<?xml version="1.0" standalone="no"?>
<!DOCTYPE svg PUBLIC "-//W3C//DTD SVG 1.1//EN" "http://www.w3.org/Graphics/SVG/1.1/DTD/svg11.dtd" >
<svg xmlns="http://www.w3.org/2000/svg" xmlns:xlink="http://www.w3.org/1999/xlink" version="1.1">
<metadata>
Created by FontForge 20170731 at Tue Jun 16 15:11:31 2015
 By Aleksey,,,
Copyright (c) 2015 by MA^ns Grebck. All rights reserved.
</metadata>
<defs>
<font id="ShimesTwoPERSONALUSE" horiz-adv-x="294" >
  <font-face 
    font-family="Shimes Two PERSONAL USE"
    font-weight="400"
    font-stretch="normal"
    units-per-em="1000"
    panose-1="0 0 0 0 0 0 0 0 0 0"
    ascent="750"
    descent="-250"
    x-height="442.5"
    cap-height="845"
    bbox="-290.538 -422.533 1116 1058.28"
    underline-thickness="50"
    underline-position="-150"
    unicode-range="U+000D-FB02"
  />
<missing-glyph horiz-adv-x="196" 
 />
    <glyph glyph-name="fi" unicode="fi" horiz-adv-x="420" 
d="M377 315q3 -8 6 -18t-1 -18q-2 -5 -7 -6t-9 3q-9 8 -9 22.5t-2 25.5q-8 32 -8 62q0 13 -2 21t-21 11t-63.5 0t-129.5 -11q9 -59 23.5 -114t37.5 -110q3 -9 1.5 -14.5t-6 -7t-10 1.5t-8.5 11q-3 7 -5 14t-5 14q-9 31 -17 61t-15 62q-4 20 -7.5 40t-6.5 41q-6 0 -22 -3.5
t-32.5 -5t-29.5 -0.5t-14 10q-2 6 1.5 10.5t10 8.5t13.5 6.5t11 4.5q16 8 28.5 20t23.5 26q-7 62 -8 124t4 124q1 14 2.5 37.5t7 46.5t16 41t29.5 21q22 4 33 -15t15.5 -45.5t4 -54t-1.5 -39.5q-3 -54 -16.5 -106t-40.5 -99q-6 -11 -12 -21t-13 -20l2 -24t3 -24q53 1 97.5 4
t76.5 4.5t50 -1t18 -11.5q0 -14 -2 -24.5t-2 -24.5q0 -31 11 -61zM122 769q-10 -65 -9 -131.5t7 -131.5q26 41 41 87t23 95q4 29 4.5 57.5t-3.5 57.5q-2 15 -7 32t-20 24h-1q-10 -1 -16.5 -12.5t-10 -26.5t-5.5 -29.5t-3 -21.5zM459 595q0 -10 -7 -18.5t-16.5 -15.5
t-20 -12.5t-17.5 -8.5q-29 -17 -60.5 -29.5t-63.5 -15.5q-7 0 -19.5 -0.5t-24 1.5t-19 8t-3.5 18q3 8 10.5 14t17 10.5t19.5 8t16 5.5q26 8 52 11t52 -2q-17 -1 -38.5 -4t-42.5 -9t-39 -15.5t-30 -23.5q10 -7 24 -7t29.5 3.5t29.5 8.5t24 9q26 11 54.5 25.5t48.5 34.5
q-35 9 -69 0.5t-66 -20.5q-3 -1 -8 -1.5t-9 0.5t-6 3.5t0 7.5q3 11 14.5 15t20.5 6q15 3 30 6.5t32 5.5q6 1 20 2t28.5 0.5t25.5 -5.5t11 -16zM100 426q7 0 9 1l-4 30q-17 -19 -38 -34z" />
    <glyph glyph-name="fl" unicode="fl" horiz-adv-x="332" 
d="M289 747q3 -58 0 -116t-7 -116l-8 -116t-4 -116q0 -23 1 -47t6 -47q1 -11 6 -23t2 -23t-11 -7.5t-12 11.5q-3 7 -3.5 15t-0.5 16q-2 17 -4 34.5t-2 35.5q-2 49 -0.5 97.5t4.5 96.5q-14 -32 -43.5 -59t-81.5 -41q9 -59 23.5 -115t37.5 -111q3 -9 1.5 -14.5t-6 -7t-10 1
t-8.5 10.5t-5 14.5t-5 14.5q-9 30 -17 60.5t-15 61.5q-4 20 -8 41.5t-7 42.5q-7 0 -22.5 -3.5t-31.5 -6t-29 -1.5t-14 10q-2 6 1.5 10.5t10 8t13.5 6t11 4.5q16 8 28.5 20.5t23.5 25.5q-7 63 -8 124.5t4 124.5q1 13 2.5 37t7 47t16 41t29.5 21q22 4 33 -15t15.5 -46t4 -54
t-1.5 -39q-3 -54 -16.5 -106t-40.5 -100q-6 -10 -12 -20.5t-13 -19.5l2 -24t3 -25q47 11 83 46t50 87l6 94q2 43 4 85.5t-1 84.5q-1 12 -2.5 25t-4.5 27q-2 9 -7.5 18t-4.5 19q0 6 4.5 9t9.5 2q10 -5 15 -19.5t7 -32.5t2 -34.5v-24.5zM122 702q-10 -66 -9 -132t7 -132
q26 41 41 87.5t23 95.5q4 28 4.5 56.5t-3.5 57.5q-2 16 -7 33t-20 24h-1q-10 -1 -16.5 -13t-10 -27t-5.5 -29.5t-3 -20.5zM100 359q7 0 9 1l-4 30q-17 -19 -38 -34z" />
    <glyph glyph-name=".notdef" horiz-adv-x="196" 
 />
    <glyph glyph-name=".null" horiz-adv-x="0" 
 />
    <glyph glyph-name="nonmarkingreturn" unicode="&#xd;" horiz-adv-x="196" 
 />
    <glyph glyph-name="NULL" horiz-adv-x="0" 
 />
    <glyph glyph-name="NULL" horiz-adv-x="0" 
 />
    <glyph glyph-name="space" unicode=" " horiz-adv-x="196" 
 />
    <glyph glyph-name="exclam" unicode="!" horiz-adv-x="236" 
d="M16 224q-3 13 0 27.5t9.5 28.5t15 26.5t17.5 22.5q4 6 16 18t26.5 23.5t29.5 17.5t25 -1q4 4 15.5 12.5t23 13.5t20 2.5t7.5 -19.5q0 -15 -5.5 -31t-14 -31t-18 -29.5t-18.5 -26.5q-10 -13 -21.5 -26.5t-25 -25t-28.5 -20t-32 -9.5q-15 -2 -26 4.5t-16 22.5zM38 247
q0 -5 -1 -8.5t-1 -6.5q-1 -12 15 -12.5t31 8.5q25 13 44 35t35 44q6 9 14 20.5t15 24t11 25t3 23.5q-11 1 -23.5 -7.5t-24 -20t-21.5 -24t-16 -19.5q-11 -14 -20.5 -26.5t-18.5 -26.5q10 23 22 43.5t29 40.5q-34 -14 -59.5 -46.5t-33.5 -66.5zM103 410q-3 17 -2 34.5t3 34.5
q4 49 14 97.5t26 95.5l4 16t7.5 24t11 20t14.5 5q7 -3 6.5 -12.5t-5 -21t-10 -22.5t-7.5 -16q-20 -63 -35.5 -128.5t-26.5 -130.5v4z" />
    <glyph glyph-name="quotedbl" unicode="&#x22;" horiz-adv-x="150" 
d="M94 610q-1 21 0 42t6 43q3 12 5 25t11 22q2 1 4 2.5t3 1.5q14 2 12 -12q0 -11 -7 -21t-9 -21q-3 -12 -4.5 -25t-2.5 -26q0 -12 0.5 -24t3.5 -23t5.5 -19.5t-4.5 -18.5q-6 -8 -10.5 -1.5t-7.5 18t-4 23.5t-1 14zM22 558q-11 11 -8.5 26.5t4.5 27.5q1 19 2 36.5t3 35.5
q0 4 -0.5 13t0 18t3 16t10.5 7t10.5 -6t2 -14t-2.5 -15.5t-3 -10.5q-5 -20 -7.5 -45.5t0.5 -44.5q0 -2 0.5 -12t0 -19.5t-4 -15t-10.5 2.5z" />
    <glyph glyph-name="numbersign" unicode="#" horiz-adv-x="1028" 
d="M87 517q34 18 67 33t71 26q2 0 4 10t4 22t4 23.5t4 15.5q11 17 33 26t38 17q43 17 87.5 30t89.5 25q46 11 92 19t93 12q16 2 39 4t46.5 1.5t45 -6t34.5 -18.5q1 -2 -1 -14t-3 -16l-3 -48q0 -2 2 -2q38 -11 74.5 -28.5t60.5 -50.5v-1q-8 2 -18 -1.5t-20 -10t-18.5 -13.5
t-13.5 -13q15 -8 24.5 -23t13.5 -32.5t3 -35.5t-6 -33q-8 21 -24.5 32.5t-36.5 17t-41.5 7t-40.5 2.5q-22 2 -46 1t-45 7q-8 3 -11 12.5t-3.5 21t1 22.5t2.5 18q-90 -7 -177.5 -27.5t-171.5 -49.5q-4 -1 -4 -3q1 -5 4 -16.5t5 -24.5t3 -24t-3 -14q-11 -9 -28.5 -10.5
t-31.5 -3.5q-19 -3 -38.5 -6t-38.5 -6q-17 -4 -32.5 -8.5t-30.5 -10.5q-7 -4 -14 -6.5t-14 -7.5q-4 -4 -9 -10t-8 -8q5 17 12 33t13 31q1 3 6.5 12.5t10.5 20t9 19t3 10.5q-12 17 -28.5 33t-38.5 18zM817 577q3 27 3 55t2 54q0 14 1 28t3 28q1 7 -3 11t-10 6.5t-13 3.5
t-13 2q-58 9 -120 0.5t-120 -20.5q-63 -13 -124.5 -29.5t-121.5 -42.5q-11 -6 -22.5 -12t-21.5 -14t-12 -24t-4 -27q-4 -32 -4 -64.5v-65.5q4 0 11 3t14 7.5t13.5 9t11.5 6.5q18 8 36.5 14.5t37.5 13.5q38 11 76 21t78 19q38 8 75.5 15.5t76.5 10.5q35 4 75.5 5.5
t74.5 -14.5zM730 639q-5 -4 -8 -7.5t-9 -5.5q-5 -2 -8 0l-6 4q-2 -2 -6 -4t-8 -3q-15 -3 -21 10v1q-4 -5 -8.5 -8.5t-11.5 -5.5q-7 -4 -12 6q-3 6 -1.5 11.5t4 10.5t4.5 10.5t1 11.5q-9 -4 -12.5 -9.5t-5.5 -12.5t-3 -14t-4 -14q-3 -8 -12 -4q-4 1 -4 5q0 2 0.5 4.5t0.5 3.5
q-7 -2 -9.5 -2t-7.5 -5t-12 -9t-15 -4q-5 1 -8 4t-5 7q-8 -8 -19.5 -16t-24.5 -6q-8 1 -12 9q-12 -14 -25 -18q-14 -6 -16 10q-2 13 4 21.5t11 18.5q1 2 -1.5 2.5t-3.5 -1.5q-4 -10 -9 -21.5t-12.5 -22t-17.5 -17t-23 -5.5q-15 1 -17.5 11t3 22.5t15.5 22.5t21 11q6 0 8 -5
q4 -6 1 -14q-3 -11 -13.5 -19.5t-21.5 -10.5q1 -6 5 -6.5t8.5 1.5t8.5 5t6 5q12 10 17.5 22.5t10.5 25.5q1 1 -0.5 4.5t-4 7.5t-4 8.5t-0.5 7.5q5 13 17 11q6 0 8 -6q2 -5 1 -11t-1 -12q10 1 14 -0.5t-2 -13.5q-4 -8 -8.5 -16.5t-5.5 -17.5q0 -5 3 -5q10 0 17 10t12.5 22.5
l11 25t12.5 16.5q4 1 8 -1q1 -2 1 -6q-2 -6 -5 -10.5t-1 -11.5q3 -6 6.5 -12.5t2.5 -13.5h1q10 12 16 29.5t22 25.5q18 7 24 -10q5 -7 3 -12.5t-1 -13.5q4 1 7 5q8 6 9 17t4 20q2 2 5.5 2.5t5.5 -0.5q5 -1 4 -6v-1q5 5 12 8q5 3 8.5 1t5.5 -7q2 -6 0.5 -11t-4 -10.5l-5 -11
t-1.5 -11.5q7 6 12 13t9 14.5t8.5 14t12.5 11.5q10 5 25 0q2 3 8.5 4t4.5 -7q-2 -9 -7 -19t-5 -20q0 -7 4 -1q10 10 15 23.5t9.5 27t11.5 26t21 20.5q7 4 12 -4q6 -11 2 -23.5t-12 -20.5q-7 -9 -21 -21.5t-12 -25.5q2 -8 11 -6q7 3 10.5 9.5t7.5 12.5q2 1 6 1t4 -5l-2 -6
q-8 -19 -26 -26q-12 -7 -21 7q-2 2 -2 5zM948 605q-24 23 -54 37.5t-62 22.5q-1 -28 -1.5 -55t-2.5 -55l-1 1v-3q-13 -1 -31.5 -2t-36.5 -4.5t-33.5 -10.5t-23.5 -19q-4 -3 2 -4q13 -5 28 -6.5t30.5 -1.5h30.5t29 -1t28 -2.5t28 -6.5q14 -4 25 -11.5t24 -13.5q0 30 -10.5 52
t-39.5 33q17 15 34 28.5t37 21.5zM226 565q-29 -8 -57 -19.5t-55 -25.5q33 -18 53 -53q1 -1 -2 -7.5t-7 -14t-7.5 -14t-4.5 -9.5q-12 -22 -20 -46q25 13 51 19t53 10t53.5 7.5t52.5 11.5q-9 9 -23 12.5t-30 4t-32 -1t-27 -2.5v64t2 64zM455 286q0 5 -4 11h28q14 -6 25 -24.5
t17 -32.5q0 12 1 29t-6 28h36q-6 -5 -5.5 -12t0.5 -14v-120q0 -7 -0.5 -15.5t5.5 -13.5h-101q5 7 6.5 17t1 21.5t-2 22.5t-1.5 19v84zM404 297q18 0 26.5 -10t11.5 -24.5t2 -31t-1 -29.5v-39q0 -23 -13 -32.5t-35 -8.5q-19 0 -27.5 10t-11.5 24.5t-2 31t1 29.5q0 10 -0.5 19
t0.5 19q0 24 13 33t36 9zM351 671q6 0 10 -1q8 -1 13.5 -7.5t6.5 -15.5q3 -21 -11.5 -40.5t-32.5 -30.5q-9 -6 -13.5 -15.5l-9 -19t-10 -18.5t-16.5 -14q-11 -8 -26 -5q-6 2 -10 7t-3 12q0 11 7.5 18.5t17.5 9.5q3 1 7.5 -1t2.5 -7q-6 -4 -11 -4q-6 -2 -8 -8t1 -11
q2 -2 4 -2.5t4 -1.5q10 -1 16.5 5.5t11 16.5t6.5 20t4 17q-13 -13 -30 -17q-13 -2 -21 6q-8 4 -8 18q0 13 6 25q13 30 42 48q6 3 12.5 6t13.5 5q5 2 10.5 6t10.5 5q6 0 3 -6zM454 414q-2 7 -5 18.5t-4 23.5t1 22.5t10 16.5q5 5 15.5 5t14.5 -8q3 -8 -1 -10.5t-9 -2t-8.5 4
t0.5 7.5q-8 -4 -8.5 -14t3 -21.5t8.5 -22.5t7 -17q6 -18 8.5 -42.5t-10.5 -41.5q-5 -7 -16.5 -9.5t-24.5 -2.5t-26 1.5t-20 1.5q6 7 7.5 18t1 23.5t-2 24t-1.5 20.5v61q0 8 0.5 15t-5.5 14h37q-7 -6 -6 -16t1 -18v-69q0 -8 -1 -24t5 -23q7 -11 18.5 -4t13.5 16
q4 13 1.5 26.5t-4.5 26.5zM660 437q-2 -4 -7.5 -14.5t-10 -22t-5.5 -22t5 -13.5q-3 6 2 6.5t10.5 -2t7 -7t-8.5 -8.5q-12 -5 -17 4.5t-4 17.5q0 8 3 16t4 15t-2 11t-14 3v-76q8 0 20.5 -1.5t21.5 5.5q-3 -7 -4 -13t-3 -13h-68q5 6 5.5 12.5t0.5 13.5v121q0 7 -0.5 15
t-5.5 14h62q12 -12 12.5 -29t-4.5 -33zM572 494q0 -7 3.5 -14.5t6.5 -15t2.5 -14.5t-7.5 -13q-7 -5 -16.5 -4.5t-10.5 10.5q0 6 3.5 8.5t7.5 2.5t7 -2.5t2 -6.5q7 1 7 6t-4 10.5t-9 10t-9 5.5q-7 2 -16 0.5t-12 -9.5q-6 -12 -2 -21t12 -16t18 -13.5t16 -13.5q7 -10 11 -23
t2 -25.5t-10 -21.5t-23 -11q-13 -1 -26 -0.5t-27 0.5q4 2 2.5 9.5t-4 16.5t-4 18.5t3.5 15.5t16 6.5t13 -10.5q0 -5 -3.5 -7.5t-7.5 -2.5t-7 2t-3 7q-6 -2 -6 -7t3.5 -10t8.5 -9.5t8 -5.5q7 -2 17 -2t15 5q10 10 8 20t-9.5 18.5t-17.5 15.5t-15 12q-9 8 -15 20.5t-6 25.5
t6.5 23.5t21.5 13.5q13 3 26.5 2t25.5 -1zM216 55l-21 -109h-21q-3 18 -5.5 36t-4.5 36q-2 -18 -5.5 -36t-6.5 -36h-21l-19 109h23q2 -20 3.5 -40.5t5.5 -40.5q2 20 5 40.5t7 40.5h18l12 -81q2 20 4.5 40.5t4.5 40.5h21zM322 55l-21 -109h-20q-4 18 -6.5 36t-4.5 36
q-2 -18 -5 -36l-6 -36h-22l-18 109h22q2 -20 4 -40.5t5 -40.5q2 20 5 40.5t7 40.5h19l11 -81q2 20 4.5 40.5t4.5 40.5h21zM428 55l-20 -109h-21q-4 18 -6 36t-5 36q-2 -18 -5 -36l-6 -36h-21l-19 109h22q2 -20 4.5 -40.5t4.5 -40.5q2 20 5 40.5t7 40.5h19l12 -81
q1 20 3.5 40.5t5.5 40.5h20zM616 -2q7 -3 10.5 -9.5t5 -14t2.5 -15t4 -13.5h-25q-3 6 -4 13.5t-3 14t-6 11t-13 3.5v-42h-26v108q14 2 31.5 3t30.5 -7q15 -11 11 -28t-18 -24zM818 -54h-25q-10 19 -18 38.5t-17 37.5q1 -19 1 -38v-38h-23v109h28l33 -74q-2 19 -2 37.5v36.5
h23v-109zM557 122q6 7 7.5 18t1 23t-2 23.5t-1.5 19.5v62q0 8 0.5 14.5t-5.5 14.5h37q-5 -5 -6.5 -15t-1 -20.5t1.5 -21t1 -17.5v-81h51q11 0 27 -1.5t27 6.5q-2 -4 -3.5 -14.5t-6.5 -10.5h-127zM548 -54h-25l-7 25h-26l-5 -25h-26l29 109h31zM918 -50q-20 -8 -38.5 -4.5
t-30.5 14.5t-16 29t7 39q6 14 19.5 21t30.5 7h5t8.5 -1t8 -2t3.5 -2l-4 -20q-13 6 -23.5 4t-18 -9t-10 -18t1.5 -23q8 -23 30 -20q5 1 4 10.5t-1 13.5h-13v20h37v-59zM643 210q-6 11 -10.5 22.5t-8.5 22.5q-5 11 -7 22.5t-11 19.5h38q-6 -14 1 -32t13 -30q6 14 11 30.5
t0 31.5h39q-11 -6 -13 -19t-5 -23t-11.5 -23.5t-8.5 -23.5q0 -11 -1.5 -27.5t6.5 -25.5h-37q9 9 7 26.5t-2 28.5zM417 255q0 8 -5 13.5t-11 7.5t-11.5 -1t-7.5 -11q-1 -7 -0.5 -14.5t0.5 -13.5q0 -18 -0.5 -36.5t0.5 -36.5q0 -8 4.5 -13t10.5 -7t11.5 0.5t7.5 11.5
q1 6 1 13.5v14.5v72zM521 137q-2 31 -10.5 62.5t-28.5 56.5v-113q0 -7 5.5 -11.5t12.5 -5.5t13.5 1.5t7.5 9.5zM332 656q-14 -3 -25.5 -11.5t-21.5 -18.5q-3 -3 -7.5 -12.5t-7.5 -19t-2 -17t11 -7.5q15 0 24 9.5t15 23t9 28.5zM652 55h26v-109h-26v109zM329 584
q7 2 14.5 9.5t12.5 17t7 19.5t0 17q-3 11 -16 11q-7 -18 -10 -36.5t-8 -37.5zM623 443q10 0 22.5 1t13.5 16q0 8 -3.5 11.5t-9 5t-12 1.5h-11.5v-35zM705 673q-1 4 -2 6.5t-6 0.5q-8 -4 -12.5 -11.5t-6.5 -15.5q-2 -5 0.5 -13.5t10.5 -1.5q6 6 10.5 16t5.5 19zM556 630
q5 -7 12 -3q8 2 11.5 10.5t1.5 16.5q-1 5 -4.5 8t-10.5 -2q-10 -7 -12 -23zM419 -40q0 7 4.5 11t10.5 4t10.5 -4t4.5 -11q0 -8 -4.5 -11.5t-10.5 -3.5t-10.5 3.5t-4.5 11.5zM692 -40q0 7 4.5 11t10.5 4t10.5 -4t4.5 -11q0 -8 -4.5 -11.5t-10.5 -3.5t-10.5 3.5t-4.5 11.5z
M593 7q9 0 13 5t3 11t-5.5 10.5t-13.5 3.5q-5 -1 -4 -13t1 -17h6zM513 -10q-2 11 -4.5 22.5t-5.5 22.5l-10 -45h20zM507 638q-3 -4 -7 -11t-3 -12q2 -6 8 -5t7 7q1 9 -5 21zM390 602q6 -1 14 7.5t9 13.5q2 4 -1 6t-6 -1q-5 -5 -9 -12t-7 -14zM774 727q-18 -18 -24 -42
q8 10 15.5 19.5t9.5 22.5h-1zM453 659q0 4 0.5 6.5t-0.5 6.5q-3 0 -4 -3q-1 -4 2 -10h2z" />
    <glyph glyph-name="dollar" unicode="$" horiz-adv-x="297" 
d="M43 305q12 -6 28 -6t30 2q3 60 3 121q-10 1 -24 3t-27.5 6.5t-24 12t-13.5 20.5q-2 15 5 26.5t18 20.5t25 15t25 10q4 1 8 2.5t8 1.5q0 5 -2.5 19t-4.5 29t-1 27t7 14q9 2 13.5 -8.5t5.5 -25t1 -28.5v-18v-5q7 1 14.5 1.5t15.5 0.5q-2 19 -3.5 37.5t-6.5 35.5
q-2 8 -3.5 17t3.5 16q4 5 10 3t9 -7q10 -16 9.5 -40t1.5 -43q1 -5 1 -10v-10q11 -1 24 -2.5t19 -12.5q5 -10 0 -13t-13.5 -2t-17.5 3.5t-12 3.5q1 -21 0.5 -43t-1.5 -43q9 -1 26.5 -1.5t35 -3.5t31.5 -9.5t16 -18.5q5 -18 -8 -34.5t-33 -30t-41 -23.5t-33 -14
q-1 -19 -1.5 -36.5t-0.5 -34.5v-45.5t6 -44.5q-12 20 -15 43t-5 46q-2 17 -2.5 32.5t-0.5 32.5q-15 -7 -29 -8q0 -4 1.5 -17t1.5 -27t-3 -23.5t-12 -6.5q-7 2 -9 11.5t-1.5 20.5t2 22t1.5 16q-18 -3 -37 0q-8 1 -17 3.5t-15 8.5q-4 5 -4 12q0 11 6.5 22t16 20.5t20 17.5
t18.5 14l-12.5 -15t-15 -19t-13 -20.5t-5.5 -18.5v-2h1zM173 413l-6 -91q10 4 25.5 11.5t30.5 17t26 20.5t13 24v3q-11 7 -26.5 8t-26.5 3zM38 467q3 -7 12 -10.5t19 -6t20 -3.5t16 -2v73l-18 -6t-23 -10t-19 -14t-7 -17v-4zM123 419q-1 -28 -2 -57t-1 -57q14 3 28 9
q0 26 1 51l2 50zM151 438q2 22 2 43v44q-8 0 -15 -1t-15 -2q2 -41 0 -80z" />
    <glyph glyph-name="percent" unicode="%" horiz-adv-x="355" 
d="M18 260q-7 4 -2 14.5t14.5 21.5t19 21t12.5 13q45 51 94 98.5t106 85.5l20 12q-23 -1 -46.5 0.5t-46.5 7.5l-11 3q5 -19 2 -37q-2 -12 -14.5 -27.5t-28.5 -27t-33.5 -15.5t-30.5 6q-12 9 -12.5 24.5t4.5 32.5t13.5 32t14.5 24l10 15t14 17.5t16.5 14t16.5 4.5
q7 -1 8.5 -4.5t-1 -8t-6.5 -9t-8 -6.5q9 2 20.5 -5t18.5 -11q14 -6 30.5 -8t31.5 -3q14 -1 28.5 -0.5t29.5 3.5q3 1 9 2.5t12 1.5t11 -2t6 -8q2 -5 -0.5 -8.5t-7 -6.5t-9.5 -5t-8 -3q-14 -5 -25.5 -11t-22.5 -13q-25 -17 -47.5 -35.5t-44.5 -38.5q-48 -45 -90 -93
q-4 -5 -13 -18t-19 -25.5t-19.5 -21t-15.5 -3.5zM170 298q-2 22 7 42q3 8 9.5 17.5t15 17.5t18 13.5t20.5 5.5q11 -1 12.5 -5t-1.5 -8.5t-9 -8.5t-10 -5q-12 -5 -21.5 -12t-14.5 -19q-6 -14 -7 -30t8 -28q7 -12 19 -17.5t25.5 -6t27 4t23.5 11.5q24 18 25 44t-13 50
q-12 20 -26 28q-8 5 -16.5 7.5t-15.5 7.5q-5 5 -4 10t6 8q2 1 7 1q14 0 26.5 -8.5t22.5 -20.5t17.5 -26t10.5 -26q4 -15 4 -31.5t-8 -30.5q-13 -24 -37.5 -35.5t-50 -10.5t-46 16t-24.5 45zM162 504q2 22 -9 34q-5 5 -13 11.5t-4 14.5q0 1 1 2t1 2q-36 -26 -52 -72
q-3 -9 -5.5 -24t4.5 -23q10 -2 22 2.5t23 12t19.5 17.5t11.5 19q0 1 0.5 1t0.5 1v1v1z" />
    <glyph glyph-name="ampersand" unicode="&#x26;" horiz-adv-x="220" 
d="M16 229q-3 7 -1.5 16t4.5 18t7 17.5t6 14.5l33 69l-11 20q-18 39 -19 80t10 82q9 26 21.5 49.5t32.5 43.5q7 7 16 15t20 14.5t22.5 9.5t22.5 1q16 -4 21.5 -15t4.5 -25.5t-5.5 -29t-8.5 -24.5q-20 -58 -47.5 -113.5t-55.5 -110.5q3 -5 6 -9.5t8 -9.5q2 8 3.5 16.5
t6.5 16.5q5 7 13 6.5t9 -10.5q1 -12 -5 -24l-11 -22q13 -14 27 -27t28 -23q-18 4 -33.5 12t-29.5 20q-22 -42 -56 -73q-7 -6 -19 -11.5t-20 6.5zM55 483q-1 -26 4 -50.5t15 -46.5q19 36 37 72.5t35 72.5q8 20 15.5 39t13.5 38q4 8 8 22.5t-1 22.5q-1 0 -1.5 0.5t-2.5 0.5
q-11 4 -22 0t-21.5 -12t-19 -17.5t-14.5 -16.5q-21 -26 -33.5 -59.5t-12.5 -65.5zM38 248q19 14 32.5 34t23.5 42l-14 17q-8 -15 -15.5 -30t-14.5 -32z" />
    <glyph glyph-name="quotesingle" unicode="'" horiz-adv-x="66" 
d="M26 437q-5 5 -6.5 11.5t-1.5 14t1.5 15t2.5 13.5q0 9 2 28.5t4.5 41t4.5 41t3 28.5q1 4 0.5 13t0 18t3 16t10.5 7q7 0 9.5 -6t2 -14t-2 -15.5t-2.5 -10.5q-3 -10 -6.5 -32t-6.5 -47t-4.5 -47t0.5 -32q0 -2 0.5 -11.5t0 -19t-4 -15t-10.5 2.5z" />
    <glyph glyph-name="parenleft" unicode="(" horiz-adv-x="115" 
d="M26 324q-11 59 -11 122.5t23 120.5q3 8 7.5 19.5t11 22.5t14.5 19t18 9q13 2 11 -12q-2 -13 -15 -25t-19 -23t-10 -23.5t-7 -24.5q-8 -34 -10.5 -68.5t-0.5 -69.5q1 -25 4 -53t9 -55.5t15 -53.5t24 -47q-18 15 -28.5 34.5t-18.5 40.5v2q-6 15 -10 31.5t-7 33.5z" />
    <glyph glyph-name="parenright" unicode=")" horiz-adv-x="111" 
d="M16 660q-3 3 -2 8t6 7q13 4 23 -4t17.5 -21t12 -26.5t7.5 -21.5q12 -41 15 -85t0 -88.5t-11.5 -88t-20.5 -83.5q-7 -23 -15.5 -44.5t-20.5 -41.5q17 55 28 111t15 113q2 34 2.5 67t-2.5 67q-3 26 -8 55t-22 51q-5 8 -12 12.5t-12 12.5z" />
    <glyph glyph-name="asterisk" unicode="*" horiz-adv-x="215" 
d="M19 502q-1 3 -2.5 10t-1.5 13.5t2.5 11.5t9.5 5q4 2 8 -1.5t5 -11.5q4 -11 4.5 -21.5t5.5 -19.5q7 -14 17.5 -26t22.5 -22l14 67q2 12 0.5 25.5t3.5 25.5q2 5 7 6.5t9 -1.5l4 -7q5 -14 1 -27.5t-6 -25.5l-14 -63q25 15 46 39q6 7 14.5 22.5t20.5 16.5q13 0 10 -9.5
t-12 -21.5t-19.5 -22.5l-11.5 -11.5q-22 -19 -44 -32l15 -12q14 -11 24 -21.5t19 -24.5q-12 9 -25.5 17t-25.5 16l-15 10q-1 -6 1 -15t3.5 -19t1 -18t-5.5 -12q-9 -6 -13.5 1.5t-6 19.5t-1 24t0.5 15h1v4q-9 -5 -24 -11.5t-26 0.5q-6 4 -9 14t-4 21t-0.5 22t0.5 17
q-1 8 -1.5 16.5t-2.5 16.5zM57 444q-10 8 -15 17q0 -12 0.5 -25.5t4.5 -24.5q8 2 16.5 5t16.5 7l-12 10t-11 11z" />
    <glyph glyph-name="plus" unicode="+" horiz-adv-x="277" 
d="M184 364q0 -3 1 -14t0 -21.5t-4 -18t-12 -3.5q-7 4 -8.5 11.5t-0.5 16t3.5 17t2.5 13.5q-23 -4 -45.5 -5.5t-44.5 0.5q-4 0 -15.5 0.5t-23 3t-19 7.5t-2.5 15q3 6 11 6.5t18 -2t19 -5.5t14 -3q23 -2 45 -1t44 3q2 17 4 33.5t2 32.5q-2 11 -5 22t-5 22q-1 10 6.5 13
t14.5 -5q8 -11 6.5 -24.5t-0.5 -25.5q2 -17 0 -32.5t-4 -32.5l77 13q-15 -9 -28.5 -15.5t-30.5 -11.5l-19 -4q0 -4 -1 -5z" />
    <glyph glyph-name="comma" unicode="," horiz-adv-x="78" 
d="M13 193q7 34 13 68t10 69q1 4 0.5 14.5t1 21t5 17t12.5 1.5q7 -4 8.5 -11.5t0 -15.5t-4.5 -16.5t-4 -14.5q-3 -20 -8.5 -40t-11.5 -39q-3 -10 -6 -18.5t-7 -16.5z" />
    <glyph glyph-name="hyphen" unicode="-" horiz-adv-x="231" 
d="M167 402q10 0 23 0.5t21 -8.5q5 -8 -0.5 -12t-12.5 -4q-12 -2 -24.5 1.5t-25.5 3.5q-14 0 -27.5 -2t-27.5 -5q-3 0 -12.5 -5t-20 -9.5t-19 -5t-9.5 8.5q0 13 18.5 20t42 11t45.5 5t29 1z" />
    <glyph glyph-name="period" unicode="." horiz-adv-x="109" 
d="M43 360q5 9 13.5 13.5t16.5 -0.5q7 -3 9.5 -12t-1.5 -20q-5 -9 -13.5 -13.5t-16.5 0.5q-7 3 -9.5 12t1.5 20z" />
    <glyph glyph-name="slash" unicode="/" horiz-adv-x="255" 
d="M16 141q-5 23 0 47.5t11 45.5q26 94 76 181t114 157q13 14 25 28t25 26q4 4 11 7t13 3t8 -4t-3 -13q-5 -8 -12.5 -13t-13.5 -11q-11 -8 -19.5 -17.5t-16.5 -19.5q-43 -48 -78.5 -102t-66.5 -111q-12 -23 -24 -48.5t-22.5 -52.5t-17.5 -54t-7 -54q-1 0 -1 1q-1 1 -1 4z
" />
    <glyph glyph-name="zero" unicode="0" horiz-adv-x="1028" 
d="M87 517q34 18 67 33t71 26q2 0 4 10t4 22t4 23.5t4 15.5q11 17 33 26t38 17q43 17 87.5 30t89.5 25q46 11 92 19t93 12q16 2 39 4t46.5 1.5t45 -6t34.5 -18.5q1 -2 -1 -14t-3 -16l-3 -48q0 -2 2 -2q38 -11 74.5 -28.5t60.5 -50.5v-1q-8 2 -18 -1.5t-20 -10t-18.5 -13.5
t-13.5 -13q15 -8 24.5 -23t13.5 -32.5t3 -35.5t-6 -33q-8 21 -24.5 32.5t-36.5 17t-41.5 7t-40.5 2.5q-22 2 -46 1t-45 7q-8 3 -11 12.5t-3.5 21t1 22.5t2.5 18q-90 -7 -177.5 -27.5t-171.5 -49.5q-4 -1 -4 -3q1 -5 4 -16.5t5 -24.5t3 -24t-3 -14q-11 -9 -28.5 -10.5
t-31.5 -3.5q-19 -3 -38.5 -6t-38.5 -6q-17 -4 -32.5 -8.5t-30.5 -10.5q-7 -4 -14 -6.5t-14 -7.5q-4 -4 -9 -10t-8 -8q5 17 12 33t13 31q1 3 6.5 12.5t10.5 20t9 19t3 10.5q-12 17 -28.5 33t-38.5 18zM817 577q3 27 3 55t2 54q0 14 1 28t3 28q1 7 -3 11t-10 6.5t-13 3.5
t-13 2q-58 9 -120 0.5t-120 -20.5q-63 -13 -124.5 -29.5t-121.5 -42.5q-11 -6 -22.5 -12t-21.5 -14t-12 -24t-4 -27q-4 -32 -4 -64.5v-65.5q4 0 11 3t14 7.5t13.5 9t11.5 6.5q18 8 36.5 14.5t37.5 13.5q38 11 76 21t78 19q38 8 75.5 15.5t76.5 10.5q35 4 75.5 5.5
t74.5 -14.5zM730 639q-5 -4 -8 -7.5t-9 -5.5q-5 -2 -8 0l-6 4q-2 -2 -6 -4t-8 -3q-15 -3 -21 10v1q-4 -5 -8.5 -8.5t-11.5 -5.5q-7 -4 -12 6q-3 6 -1.5 11.5t4 10.5t4.5 10.5t1 11.5q-9 -4 -12.5 -9.5t-5.5 -12.5t-3 -14t-4 -14q-3 -8 -12 -4q-4 1 -4 5q0 2 0.5 4.5t0.5 3.5
q-7 -2 -9.5 -2t-7.5 -5t-12 -9t-15 -4q-5 1 -8 4t-5 7q-8 -8 -19.5 -16t-24.5 -6q-8 1 -12 9q-12 -14 -25 -18q-14 -6 -16 10q-2 13 4 21.5t11 18.5q1 2 -1.5 2.5t-3.5 -1.5q-4 -10 -9 -21.5t-12.5 -22t-17.5 -17t-23 -5.5q-15 1 -17.5 11t3 22.5t15.5 22.5t21 11q6 0 8 -5
q4 -6 1 -14q-3 -11 -13.5 -19.5t-21.5 -10.5q1 -6 5 -6.5t8.5 1.5t8.5 5t6 5q12 10 17.5 22.5t10.5 25.5q1 1 -0.5 4.5t-4 7.5t-4 8.5t-0.5 7.5q5 13 17 11q6 0 8 -6q2 -5 1 -11t-1 -12q10 1 14 -0.5t-2 -13.5q-4 -8 -8.5 -16.5t-5.5 -17.5q0 -5 3 -5q10 0 17 10t12.5 22.5
l11 25t12.5 16.5q4 1 8 -1q1 -2 1 -6q-2 -6 -5 -10.5t-1 -11.5q3 -6 6.5 -12.5t2.5 -13.5h1q10 12 16 29.5t22 25.5q18 7 24 -10q5 -7 3 -12.5t-1 -13.5q4 1 7 5q8 6 9 17t4 20q2 2 5.5 2.5t5.5 -0.5q5 -1 4 -6v-1q5 5 12 8q5 3 8.5 1t5.5 -7q2 -6 0.5 -11t-4 -10.5l-5 -11
t-1.5 -11.5q7 6 12 13t9 14.5t8.5 14t12.5 11.5q10 5 25 0q2 3 8.5 4t4.5 -7q-2 -9 -7 -19t-5 -20q0 -7 4 -1q10 10 15 23.5t9.5 27t11.5 26t21 20.5q7 4 12 -4q6 -11 2 -23.5t-12 -20.5q-7 -9 -21 -21.5t-12 -25.5q2 -8 11 -6q7 3 10.5 9.5t7.5 12.5q2 1 6 1t4 -5l-2 -6
q-8 -19 -26 -26q-12 -7 -21 7q-2 2 -2 5zM948 605q-24 23 -54 37.5t-62 22.5q-1 -28 -1.5 -55t-2.5 -55l-1 1v-3q-13 -1 -31.5 -2t-36.5 -4.5t-33.5 -10.5t-23.5 -19q-4 -3 2 -4q13 -5 28 -6.5t30.5 -1.5h30.5t29 -1t28 -2.5t28 -6.5q14 -4 25 -11.5t24 -13.5q0 30 -10.5 52
t-39.5 33q17 15 34 28.5t37 21.5zM226 565q-29 -8 -57 -19.5t-55 -25.5q33 -18 53 -53q1 -1 -2 -7.5t-7 -14t-7.5 -14t-4.5 -9.5q-12 -22 -20 -46q25 13 51 19t53 10t53.5 7.5t52.5 11.5q-9 9 -23 12.5t-30 4t-32 -1t-27 -2.5v64t2 64zM455 286q0 5 -4 11h28q14 -6 25 -24.5
t17 -32.5q0 12 1 29t-6 28h36q-6 -5 -5.5 -12t0.5 -14v-120q0 -7 -0.5 -15.5t5.5 -13.5h-101q5 7 6.5 17t1 21.5t-2 22.5t-1.5 19v84zM404 297q18 0 26.5 -10t11.5 -24.5t2 -31t-1 -29.5v-39q0 -23 -13 -32.5t-35 -8.5q-19 0 -27.5 10t-11.5 24.5t-2 31t1 29.5q0 10 -0.5 19
t0.5 19q0 24 13 33t36 9zM351 671q6 0 10 -1q8 -1 13.5 -7.5t6.5 -15.5q3 -21 -11.5 -40.5t-32.5 -30.5q-9 -6 -13.5 -15.5l-9 -19t-10 -18.5t-16.5 -14q-11 -8 -26 -5q-6 2 -10 7t-3 12q0 11 7.5 18.5t17.5 9.5q3 1 7.5 -1t2.5 -7q-6 -4 -11 -4q-6 -2 -8 -8t1 -11
q2 -2 4 -2.5t4 -1.5q10 -1 16.5 5.5t11 16.5t6.5 20t4 17q-13 -13 -30 -17q-13 -2 -21 6q-8 4 -8 18q0 13 6 25q13 30 42 48q6 3 12.5 6t13.5 5q5 2 10.5 6t10.5 5q6 0 3 -6zM454 414q-2 7 -5 18.5t-4 23.5t1 22.5t10 16.5q5 5 15.5 5t14.5 -8q3 -8 -1 -10.5t-9 -2t-8.5 4
t0.5 7.5q-8 -4 -8.5 -14t3 -21.5t8.5 -22.5t7 -17q6 -18 8.5 -42.5t-10.5 -41.5q-5 -7 -16.5 -9.5t-24.5 -2.5t-26 1.5t-20 1.5q6 7 7.5 18t1 23.5t-2 24t-1.5 20.5v61q0 8 0.5 15t-5.5 14h37q-7 -6 -6 -16t1 -18v-69q0 -8 -1 -24t5 -23q7 -11 18.5 -4t13.5 16
q4 13 1.5 26.5t-4.5 26.5zM660 437q-2 -4 -7.5 -14.5t-10 -22t-5.5 -22t5 -13.5q-3 6 2 6.5t10.5 -2t7 -7t-8.5 -8.5q-12 -5 -17 4.5t-4 17.5q0 8 3 16t4 15t-2 11t-14 3v-76q8 0 20.5 -1.5t21.5 5.5q-3 -7 -4 -13t-3 -13h-68q5 6 5.5 12.5t0.5 13.5v121q0 7 -0.5 15
t-5.5 14h62q12 -12 12.5 -29t-4.5 -33zM572 494q0 -7 3.5 -14.5t6.5 -15t2.5 -14.5t-7.5 -13q-7 -5 -16.5 -4.5t-10.5 10.5q0 6 3.5 8.5t7.5 2.5t7 -2.5t2 -6.5q7 1 7 6t-4 10.5t-9 10t-9 5.5q-7 2 -16 0.5t-12 -9.5q-6 -12 -2 -21t12 -16t18 -13.5t16 -13.5q7 -10 11 -23
t2 -25.5t-10 -21.5t-23 -11q-13 -1 -26 -0.5t-27 0.5q4 2 2.5 9.5t-4 16.5t-4 18.5t3.5 15.5t16 6.5t13 -10.5q0 -5 -3.5 -7.5t-7.5 -2.5t-7 2t-3 7q-6 -2 -6 -7t3.5 -10t8.5 -9.5t8 -5.5q7 -2 17 -2t15 5q10 10 8 20t-9.5 18.5t-17.5 15.5t-15 12q-9 8 -15 20.5t-6 25.5
t6.5 23.5t21.5 13.5q13 3 26.5 2t25.5 -1zM216 55l-21 -109h-21q-3 18 -5.5 36t-4.5 36q-2 -18 -5.5 -36t-6.5 -36h-21l-19 109h23q2 -20 3.5 -40.5t5.5 -40.5q2 20 5 40.5t7 40.5h18l12 -81q2 20 4.5 40.5t4.5 40.5h21zM322 55l-21 -109h-20q-4 18 -6.5 36t-4.5 36
q-2 -18 -5 -36l-6 -36h-22l-18 109h22q2 -20 4 -40.5t5 -40.5q2 20 5 40.5t7 40.5h19l11 -81q2 20 4.5 40.5t4.5 40.5h21zM428 55l-20 -109h-21q-4 18 -6 36t-5 36q-2 -18 -5 -36l-6 -36h-21l-19 109h22q2 -20 4.5 -40.5t4.5 -40.5q2 20 5 40.5t7 40.5h19l12 -81
q1 20 3.5 40.5t5.5 40.5h20zM616 -2q7 -3 10.5 -9.5t5 -14t2.5 -15t4 -13.5h-25q-3 6 -4 13.5t-3 14t-6 11t-13 3.5v-42h-26v108q14 2 31.5 3t30.5 -7q15 -11 11 -28t-18 -24zM818 -54h-25q-10 19 -18 38.5t-17 37.5q1 -19 1 -38v-38h-23v109h28l33 -74q-2 19 -2 37.5v36.5
h23v-109zM557 122q6 7 7.5 18t1 23t-2 23.5t-1.5 19.5v62q0 8 0.5 14.5t-5.5 14.5h37q-5 -5 -6.5 -15t-1 -20.5t1.5 -21t1 -17.5v-81h51q11 0 27 -1.5t27 6.5q-2 -4 -3.5 -14.5t-6.5 -10.5h-127zM548 -54h-25l-7 25h-26l-5 -25h-26l29 109h31zM918 -50q-20 -8 -38.5 -4.5
t-30.5 14.5t-16 29t7 39q6 14 19.5 21t30.5 7h5t8.5 -1t8 -2t3.5 -2l-4 -20q-13 6 -23.5 4t-18 -9t-10 -18t1.5 -23q8 -23 30 -20q5 1 4 10.5t-1 13.5h-13v20h37v-59zM643 210q-6 11 -10.5 22.5t-8.5 22.5q-5 11 -7 22.5t-11 19.5h38q-6 -14 1 -32t13 -30q6 14 11 30.5
t0 31.5h39q-11 -6 -13 -19t-5 -23t-11.5 -23.5t-8.5 -23.5q0 -11 -1.5 -27.5t6.5 -25.5h-37q9 9 7 26.5t-2 28.5zM417 255q0 8 -5 13.5t-11 7.5t-11.5 -1t-7.5 -11q-1 -7 -0.5 -14.5t0.5 -13.5q0 -18 -0.5 -36.5t0.5 -36.5q0 -8 4.5 -13t10.5 -7t11.5 0.5t7.5 11.5
q1 6 1 13.5v14.5v72zM521 137q-2 31 -10.5 62.5t-28.5 56.5v-113q0 -7 5.5 -11.5t12.5 -5.5t13.5 1.5t7.5 9.5zM332 656q-14 -3 -25.5 -11.5t-21.5 -18.5q-3 -3 -7.5 -12.5t-7.5 -19t-2 -17t11 -7.5q15 0 24 9.5t15 23t9 28.5zM652 55h26v-109h-26v109zM329 584
q7 2 14.5 9.5t12.5 17t7 19.5t0 17q-3 11 -16 11q-7 -18 -10 -36.5t-8 -37.5zM623 443q10 0 22.5 1t13.5 16q0 8 -3.5 11.5t-9 5t-12 1.5h-11.5v-35zM705 673q-1 4 -2 6.5t-6 0.5q-8 -4 -12.5 -11.5t-6.5 -15.5q-2 -5 0.5 -13.5t10.5 -1.5q6 6 10.5 16t5.5 19zM556 630
q5 -7 12 -3q8 2 11.5 10.5t1.5 16.5q-1 5 -4.5 8t-10.5 -2q-10 -7 -12 -23zM419 -40q0 7 4.5 11t10.5 4t10.5 -4t4.5 -11q0 -8 -4.5 -11.5t-10.5 -3.5t-10.5 3.5t-4.5 11.5zM692 -40q0 7 4.5 11t10.5 4t10.5 -4t4.5 -11q0 -8 -4.5 -11.5t-10.5 -3.5t-10.5 3.5t-4.5 11.5z
M593 7q9 0 13 5t3 11t-5.5 10.5t-13.5 3.5q-5 -1 -4 -13t1 -17h6zM513 -10q-2 11 -4.5 22.5t-5.5 22.5l-10 -45h20zM507 638q-3 -4 -7 -11t-3 -12q2 -6 8 -5t7 7q1 9 -5 21zM390 602q6 -1 14 7.5t9 13.5q2 4 -1 6t-6 -1q-5 -5 -9 -12t-7 -14zM774 727q-18 -18 -24 -42
q8 10 15.5 19.5t9.5 22.5h-1zM453 659q0 4 0.5 6.5t-0.5 6.5q-3 0 -4 -3q-1 -4 2 -10h2z" />
    <glyph glyph-name="one" unicode="1" horiz-adv-x="1028" 
d="M87 517q34 18 67 33t71 26q2 0 4 10t4 22t4 23.5t4 15.5q11 17 33 26t38 17q43 17 87.5 30t89.5 25q46 11 92 19t93 12q16 2 39 4t46.5 1.5t45 -6t34.5 -18.5q1 -2 -1 -14t-3 -16l-3 -48q0 -2 2 -2q38 -11 74.5 -28.5t60.5 -50.5v-1q-8 2 -18 -1.5t-20 -10t-18.5 -13.5
t-13.5 -13q15 -8 24.5 -23t13.5 -32.5t3 -35.5t-6 -33q-8 21 -24.5 32.5t-36.5 17t-41.5 7t-40.5 2.5q-22 2 -46 1t-45 7q-8 3 -11 12.5t-3.5 21t1 22.5t2.5 18q-90 -7 -177.5 -27.5t-171.5 -49.5q-4 -1 -4 -3q1 -5 4 -16.5t5 -24.5t3 -24t-3 -14q-11 -9 -28.5 -10.5
t-31.5 -3.5q-19 -3 -38.5 -6t-38.5 -6q-17 -4 -32.5 -8.5t-30.5 -10.5q-7 -4 -14 -6.5t-14 -7.5q-4 -4 -9 -10t-8 -8q5 17 12 33t13 31q1 3 6.5 12.5t10.5 20t9 19t3 10.5q-12 17 -28.5 33t-38.5 18zM817 577q3 27 3 55t2 54q0 14 1 28t3 28q1 7 -3 11t-10 6.5t-13 3.5
t-13 2q-58 9 -120 0.5t-120 -20.5q-63 -13 -124.5 -29.5t-121.5 -42.5q-11 -6 -22.5 -12t-21.5 -14t-12 -24t-4 -27q-4 -32 -4 -64.5v-65.5q4 0 11 3t14 7.5t13.5 9t11.5 6.5q18 8 36.5 14.5t37.5 13.5q38 11 76 21t78 19q38 8 75.5 15.5t76.5 10.5q35 4 75.5 5.5
t74.5 -14.5zM730 639q-5 -4 -8 -7.5t-9 -5.5q-5 -2 -8 0l-6 4q-2 -2 -6 -4t-8 -3q-15 -3 -21 10v1q-4 -5 -8.5 -8.5t-11.5 -5.5q-7 -4 -12 6q-3 6 -1.5 11.5t4 10.5t4.5 10.5t1 11.5q-9 -4 -12.5 -9.5t-5.5 -12.5t-3 -14t-4 -14q-3 -8 -12 -4q-4 1 -4 5q0 2 0.5 4.5t0.5 3.5
q-7 -2 -9.5 -2t-7.5 -5t-12 -9t-15 -4q-5 1 -8 4t-5 7q-8 -8 -19.5 -16t-24.5 -6q-8 1 -12 9q-12 -14 -25 -18q-14 -6 -16 10q-2 13 4 21.5t11 18.5q1 2 -1.5 2.5t-3.5 -1.5q-4 -10 -9 -21.5t-12.5 -22t-17.5 -17t-23 -5.5q-15 1 -17.5 11t3 22.5t15.5 22.5t21 11q6 0 8 -5
q4 -6 1 -14q-3 -11 -13.5 -19.5t-21.5 -10.5q1 -6 5 -6.5t8.5 1.5t8.5 5t6 5q12 10 17.5 22.5t10.5 25.5q1 1 -0.5 4.5t-4 7.5t-4 8.5t-0.5 7.5q5 13 17 11q6 0 8 -6q2 -5 1 -11t-1 -12q10 1 14 -0.5t-2 -13.5q-4 -8 -8.5 -16.5t-5.5 -17.5q0 -5 3 -5q10 0 17 10t12.5 22.5
l11 25t12.5 16.5q4 1 8 -1q1 -2 1 -6q-2 -6 -5 -10.5t-1 -11.5q3 -6 6.5 -12.5t2.5 -13.5h1q10 12 16 29.5t22 25.5q18 7 24 -10q5 -7 3 -12.5t-1 -13.5q4 1 7 5q8 6 9 17t4 20q2 2 5.5 2.5t5.5 -0.5q5 -1 4 -6v-1q5 5 12 8q5 3 8.5 1t5.5 -7q2 -6 0.5 -11t-4 -10.5l-5 -11
t-1.5 -11.5q7 6 12 13t9 14.5t8.5 14t12.5 11.5q10 5 25 0q2 3 8.5 4t4.5 -7q-2 -9 -7 -19t-5 -20q0 -7 4 -1q10 10 15 23.5t9.5 27t11.5 26t21 20.5q7 4 12 -4q6 -11 2 -23.5t-12 -20.5q-7 -9 -21 -21.5t-12 -25.5q2 -8 11 -6q7 3 10.5 9.5t7.5 12.5q2 1 6 1t4 -5l-2 -6
q-8 -19 -26 -26q-12 -7 -21 7q-2 2 -2 5zM948 605q-24 23 -54 37.5t-62 22.5q-1 -28 -1.5 -55t-2.5 -55l-1 1v-3q-13 -1 -31.5 -2t-36.5 -4.5t-33.5 -10.5t-23.5 -19q-4 -3 2 -4q13 -5 28 -6.5t30.5 -1.5h30.5t29 -1t28 -2.5t28 -6.5q14 -4 25 -11.5t24 -13.5q0 30 -10.5 52
t-39.5 33q17 15 34 28.5t37 21.5zM226 565q-29 -8 -57 -19.5t-55 -25.5q33 -18 53 -53q1 -1 -2 -7.5t-7 -14t-7.5 -14t-4.5 -9.5q-12 -22 -20 -46q25 13 51 19t53 10t53.5 7.5t52.5 11.5q-9 9 -23 12.5t-30 4t-32 -1t-27 -2.5v64t2 64zM455 286q0 5 -4 11h28q14 -6 25 -24.5
t17 -32.5q0 12 1 29t-6 28h36q-6 -5 -5.5 -12t0.5 -14v-120q0 -7 -0.5 -15.5t5.5 -13.5h-101q5 7 6.5 17t1 21.5t-2 22.5t-1.5 19v84zM404 297q18 0 26.5 -10t11.5 -24.5t2 -31t-1 -29.5v-39q0 -23 -13 -32.5t-35 -8.5q-19 0 -27.5 10t-11.5 24.5t-2 31t1 29.5q0 10 -0.5 19
t0.5 19q0 24 13 33t36 9zM351 671q6 0 10 -1q8 -1 13.5 -7.5t6.5 -15.5q3 -21 -11.5 -40.5t-32.5 -30.5q-9 -6 -13.5 -15.5l-9 -19t-10 -18.5t-16.5 -14q-11 -8 -26 -5q-6 2 -10 7t-3 12q0 11 7.5 18.5t17.5 9.5q3 1 7.5 -1t2.5 -7q-6 -4 -11 -4q-6 -2 -8 -8t1 -11
q2 -2 4 -2.5t4 -1.5q10 -1 16.5 5.5t11 16.5t6.5 20t4 17q-13 -13 -30 -17q-13 -2 -21 6q-8 4 -8 18q0 13 6 25q13 30 42 48q6 3 12.5 6t13.5 5q5 2 10.5 6t10.5 5q6 0 3 -6zM454 414q-2 7 -5 18.5t-4 23.5t1 22.5t10 16.5q5 5 15.5 5t14.5 -8q3 -8 -1 -10.5t-9 -2t-8.5 4
t0.5 7.5q-8 -4 -8.5 -14t3 -21.5t8.5 -22.5t7 -17q6 -18 8.5 -42.5t-10.5 -41.5q-5 -7 -16.5 -9.5t-24.5 -2.5t-26 1.5t-20 1.5q6 7 7.5 18t1 23.5t-2 24t-1.5 20.5v61q0 8 0.5 15t-5.5 14h37q-7 -6 -6 -16t1 -18v-69q0 -8 -1 -24t5 -23q7 -11 18.5 -4t13.5 16
q4 13 1.5 26.5t-4.5 26.5zM660 437q-2 -4 -7.5 -14.5t-10 -22t-5.5 -22t5 -13.5q-3 6 2 6.5t10.5 -2t7 -7t-8.5 -8.5q-12 -5 -17 4.5t-4 17.5q0 8 3 16t4 15t-2 11t-14 3v-76q8 0 20.5 -1.5t21.5 5.5q-3 -7 -4 -13t-3 -13h-68q5 6 5.5 12.5t0.5 13.5v121q0 7 -0.5 15
t-5.5 14h62q12 -12 12.5 -29t-4.5 -33zM572 494q0 -7 3.5 -14.5t6.5 -15t2.5 -14.5t-7.5 -13q-7 -5 -16.5 -4.5t-10.5 10.5q0 6 3.5 8.5t7.5 2.5t7 -2.5t2 -6.5q7 1 7 6t-4 10.5t-9 10t-9 5.5q-7 2 -16 0.5t-12 -9.5q-6 -12 -2 -21t12 -16t18 -13.5t16 -13.5q7 -10 11 -23
t2 -25.5t-10 -21.5t-23 -11q-13 -1 -26 -0.5t-27 0.5q4 2 2.5 9.5t-4 16.5t-4 18.5t3.5 15.5t16 6.5t13 -10.5q0 -5 -3.5 -7.5t-7.5 -2.5t-7 2t-3 7q-6 -2 -6 -7t3.5 -10t8.5 -9.5t8 -5.5q7 -2 17 -2t15 5q10 10 8 20t-9.5 18.5t-17.5 15.5t-15 12q-9 8 -15 20.5t-6 25.5
t6.5 23.5t21.5 13.5q13 3 26.5 2t25.5 -1zM216 55l-21 -109h-21q-3 18 -5.5 36t-4.5 36q-2 -18 -5.5 -36t-6.5 -36h-21l-19 109h23q2 -20 3.5 -40.5t5.5 -40.5q2 20 5 40.5t7 40.5h18l12 -81q2 20 4.5 40.5t4.5 40.5h21zM322 55l-21 -109h-20q-4 18 -6.5 36t-4.5 36
q-2 -18 -5 -36l-6 -36h-22l-18 109h22q2 -20 4 -40.5t5 -40.5q2 20 5 40.5t7 40.5h19l11 -81q2 20 4.5 40.5t4.5 40.5h21zM428 55l-20 -109h-21q-4 18 -6 36t-5 36q-2 -18 -5 -36l-6 -36h-21l-19 109h22q2 -20 4.5 -40.5t4.5 -40.5q2 20 5 40.5t7 40.5h19l12 -81
q1 20 3.5 40.5t5.5 40.5h20zM616 -2q7 -3 10.5 -9.5t5 -14t2.5 -15t4 -13.5h-25q-3 6 -4 13.5t-3 14t-6 11t-13 3.5v-42h-26v108q14 2 31.5 3t30.5 -7q15 -11 11 -28t-18 -24zM818 -54h-25q-10 19 -18 38.5t-17 37.5q1 -19 1 -38v-38h-23v109h28l33 -74q-2 19 -2 37.5v36.5
h23v-109zM557 122q6 7 7.5 18t1 23t-2 23.5t-1.5 19.5v62q0 8 0.5 14.5t-5.5 14.5h37q-5 -5 -6.5 -15t-1 -20.5t1.5 -21t1 -17.5v-81h51q11 0 27 -1.5t27 6.5q-2 -4 -3.5 -14.5t-6.5 -10.5h-127zM548 -54h-25l-7 25h-26l-5 -25h-26l29 109h31zM918 -50q-20 -8 -38.5 -4.5
t-30.5 14.5t-16 29t7 39q6 14 19.5 21t30.5 7h5t8.5 -1t8 -2t3.5 -2l-4 -20q-13 6 -23.5 4t-18 -9t-10 -18t1.5 -23q8 -23 30 -20q5 1 4 10.5t-1 13.5h-13v20h37v-59zM643 210q-6 11 -10.5 22.5t-8.5 22.5q-5 11 -7 22.5t-11 19.5h38q-6 -14 1 -32t13 -30q6 14 11 30.5
t0 31.5h39q-11 -6 -13 -19t-5 -23t-11.5 -23.5t-8.5 -23.5q0 -11 -1.5 -27.5t6.5 -25.5h-37q9 9 7 26.5t-2 28.5zM417 255q0 8 -5 13.5t-11 7.5t-11.5 -1t-7.5 -11q-1 -7 -0.5 -14.5t0.5 -13.5q0 -18 -0.5 -36.5t0.5 -36.5q0 -8 4.5 -13t10.5 -7t11.5 0.5t7.5 11.5
q1 6 1 13.5v14.5v72zM521 137q-2 31 -10.5 62.5t-28.5 56.5v-113q0 -7 5.5 -11.5t12.5 -5.5t13.5 1.5t7.5 9.5zM332 656q-14 -3 -25.5 -11.5t-21.5 -18.5q-3 -3 -7.5 -12.5t-7.5 -19t-2 -17t11 -7.5q15 0 24 9.5t15 23t9 28.5zM652 55h26v-109h-26v109zM329 584
q7 2 14.5 9.5t12.5 17t7 19.5t0 17q-3 11 -16 11q-7 -18 -10 -36.5t-8 -37.5zM623 443q10 0 22.5 1t13.5 16q0 8 -3.5 11.5t-9 5t-12 1.5h-11.5v-35zM705 673q-1 4 -2 6.5t-6 0.5q-8 -4 -12.5 -11.5t-6.5 -15.5q-2 -5 0.5 -13.5t10.5 -1.5q6 6 10.5 16t5.5 19zM556 630
q5 -7 12 -3q8 2 11.5 10.5t1.5 16.5q-1 5 -4.5 8t-10.5 -2q-10 -7 -12 -23zM419 -40q0 7 4.5 11t10.5 4t10.5 -4t4.5 -11q0 -8 -4.5 -11.5t-10.5 -3.5t-10.5 3.5t-4.5 11.5zM692 -40q0 7 4.5 11t10.5 4t10.5 -4t4.5 -11q0 -8 -4.5 -11.5t-10.5 -3.5t-10.5 3.5t-4.5 11.5z
M593 7q9 0 13 5t3 11t-5.5 10.5t-13.5 3.5q-5 -1 -4 -13t1 -17h6zM513 -10q-2 11 -4.5 22.5t-5.5 22.5l-10 -45h20zM507 638q-3 -4 -7 -11t-3 -12q2 -6 8 -5t7 7q1 9 -5 21zM390 602q6 -1 14 7.5t9 13.5q2 4 -1 6t-6 -1q-5 -5 -9 -12t-7 -14zM774 727q-18 -18 -24 -42
q8 10 15.5 19.5t9.5 22.5h-1zM453 659q0 4 0.5 6.5t-0.5 6.5q-3 0 -4 -3q-1 -4 2 -10h2z" />
    <glyph glyph-name="two" unicode="2" horiz-adv-x="1028" 
d="M87 517q34 18 67 33t71 26q2 0 4 10t4 22t4 23.5t4 15.5q11 17 33 26t38 17q43 17 87.5 30t89.5 25q46 11 92 19t93 12q16 2 39 4t46.5 1.5t45 -6t34.5 -18.5q1 -2 -1 -14t-3 -16l-3 -48q0 -2 2 -2q38 -11 74.5 -28.5t60.5 -50.5v-1q-8 2 -18 -1.5t-20 -10t-18.5 -13.5
t-13.5 -13q15 -8 24.5 -23t13.5 -32.5t3 -35.5t-6 -33q-8 21 -24.5 32.5t-36.5 17t-41.5 7t-40.5 2.5q-22 2 -46 1t-45 7q-8 3 -11 12.5t-3.5 21t1 22.5t2.5 18q-90 -7 -177.5 -27.5t-171.5 -49.5q-4 -1 -4 -3q1 -5 4 -16.5t5 -24.5t3 -24t-3 -14q-11 -9 -28.5 -10.5
t-31.5 -3.5q-19 -3 -38.5 -6t-38.5 -6q-17 -4 -32.5 -8.5t-30.5 -10.5q-7 -4 -14 -6.5t-14 -7.5q-4 -4 -9 -10t-8 -8q5 17 12 33t13 31q1 3 6.5 12.5t10.5 20t9 19t3 10.5q-12 17 -28.5 33t-38.5 18zM817 577q3 27 3 55t2 54q0 14 1 28t3 28q1 7 -3 11t-10 6.5t-13 3.5
t-13 2q-58 9 -120 0.5t-120 -20.5q-63 -13 -124.5 -29.5t-121.5 -42.5q-11 -6 -22.5 -12t-21.5 -14t-12 -24t-4 -27q-4 -32 -4 -64.5v-65.5q4 0 11 3t14 7.5t13.5 9t11.5 6.5q18 8 36.5 14.5t37.5 13.5q38 11 76 21t78 19q38 8 75.5 15.5t76.5 10.5q35 4 75.5 5.5
t74.5 -14.5zM730 639q-5 -4 -8 -7.5t-9 -5.5q-5 -2 -8 0l-6 4q-2 -2 -6 -4t-8 -3q-15 -3 -21 10v1q-4 -5 -8.5 -8.5t-11.5 -5.5q-7 -4 -12 6q-3 6 -1.5 11.5t4 10.5t4.5 10.5t1 11.5q-9 -4 -12.5 -9.5t-5.5 -12.5t-3 -14t-4 -14q-3 -8 -12 -4q-4 1 -4 5q0 2 0.5 4.5t0.5 3.5
q-7 -2 -9.5 -2t-7.5 -5t-12 -9t-15 -4q-5 1 -8 4t-5 7q-8 -8 -19.5 -16t-24.5 -6q-8 1 -12 9q-12 -14 -25 -18q-14 -6 -16 10q-2 13 4 21.5t11 18.5q1 2 -1.5 2.5t-3.5 -1.5q-4 -10 -9 -21.5t-12.5 -22t-17.5 -17t-23 -5.5q-15 1 -17.5 11t3 22.5t15.5 22.5t21 11q6 0 8 -5
q4 -6 1 -14q-3 -11 -13.5 -19.5t-21.5 -10.5q1 -6 5 -6.5t8.5 1.5t8.5 5t6 5q12 10 17.5 22.5t10.5 25.5q1 1 -0.5 4.5t-4 7.5t-4 8.5t-0.5 7.5q5 13 17 11q6 0 8 -6q2 -5 1 -11t-1 -12q10 1 14 -0.5t-2 -13.5q-4 -8 -8.5 -16.5t-5.5 -17.5q0 -5 3 -5q10 0 17 10t12.5 22.5
l11 25t12.5 16.5q4 1 8 -1q1 -2 1 -6q-2 -6 -5 -10.5t-1 -11.5q3 -6 6.5 -12.5t2.5 -13.5h1q10 12 16 29.5t22 25.5q18 7 24 -10q5 -7 3 -12.5t-1 -13.5q4 1 7 5q8 6 9 17t4 20q2 2 5.5 2.5t5.5 -0.5q5 -1 4 -6v-1q5 5 12 8q5 3 8.5 1t5.5 -7q2 -6 0.5 -11t-4 -10.5l-5 -11
t-1.5 -11.5q7 6 12 13t9 14.5t8.5 14t12.5 11.5q10 5 25 0q2 3 8.5 4t4.5 -7q-2 -9 -7 -19t-5 -20q0 -7 4 -1q10 10 15 23.5t9.5 27t11.5 26t21 20.5q7 4 12 -4q6 -11 2 -23.5t-12 -20.5q-7 -9 -21 -21.5t-12 -25.5q2 -8 11 -6q7 3 10.5 9.5t7.5 12.5q2 1 6 1t4 -5l-2 -6
q-8 -19 -26 -26q-12 -7 -21 7q-2 2 -2 5zM948 605q-24 23 -54 37.5t-62 22.5q-1 -28 -1.5 -55t-2.5 -55l-1 1v-3q-13 -1 -31.5 -2t-36.5 -4.5t-33.5 -10.5t-23.5 -19q-4 -3 2 -4q13 -5 28 -6.5t30.5 -1.5h30.5t29 -1t28 -2.5t28 -6.5q14 -4 25 -11.5t24 -13.5q0 30 -10.5 52
t-39.5 33q17 15 34 28.5t37 21.5zM226 565q-29 -8 -57 -19.5t-55 -25.5q33 -18 53 -53q1 -1 -2 -7.5t-7 -14t-7.5 -14t-4.5 -9.5q-12 -22 -20 -46q25 13 51 19t53 10t53.5 7.5t52.5 11.5q-9 9 -23 12.5t-30 4t-32 -1t-27 -2.5v64t2 64zM455 286q0 5 -4 11h28q14 -6 25 -24.5
t17 -32.5q0 12 1 29t-6 28h36q-6 -5 -5.5 -12t0.5 -14v-120q0 -7 -0.5 -15.5t5.5 -13.5h-101q5 7 6.5 17t1 21.5t-2 22.5t-1.5 19v84zM404 297q18 0 26.5 -10t11.5 -24.5t2 -31t-1 -29.5v-39q0 -23 -13 -32.5t-35 -8.5q-19 0 -27.5 10t-11.5 24.5t-2 31t1 29.5q0 10 -0.5 19
t0.5 19q0 24 13 33t36 9zM351 671q6 0 10 -1q8 -1 13.5 -7.5t6.5 -15.5q3 -21 -11.5 -40.5t-32.5 -30.5q-9 -6 -13.5 -15.5l-9 -19t-10 -18.5t-16.5 -14q-11 -8 -26 -5q-6 2 -10 7t-3 12q0 11 7.5 18.5t17.5 9.5q3 1 7.5 -1t2.5 -7q-6 -4 -11 -4q-6 -2 -8 -8t1 -11
q2 -2 4 -2.5t4 -1.5q10 -1 16.5 5.5t11 16.5t6.5 20t4 17q-13 -13 -30 -17q-13 -2 -21 6q-8 4 -8 18q0 13 6 25q13 30 42 48q6 3 12.5 6t13.5 5q5 2 10.5 6t10.5 5q6 0 3 -6zM454 414q-2 7 -5 18.5t-4 23.5t1 22.5t10 16.5q5 5 15.5 5t14.5 -8q3 -8 -1 -10.5t-9 -2t-8.5 4
t0.5 7.5q-8 -4 -8.5 -14t3 -21.5t8.5 -22.5t7 -17q6 -18 8.5 -42.5t-10.5 -41.5q-5 -7 -16.5 -9.5t-24.5 -2.5t-26 1.5t-20 1.5q6 7 7.5 18t1 23.5t-2 24t-1.5 20.5v61q0 8 0.5 15t-5.5 14h37q-7 -6 -6 -16t1 -18v-69q0 -8 -1 -24t5 -23q7 -11 18.5 -4t13.5 16
q4 13 1.5 26.5t-4.5 26.5zM660 437q-2 -4 -7.5 -14.5t-10 -22t-5.5 -22t5 -13.5q-3 6 2 6.5t10.5 -2t7 -7t-8.5 -8.5q-12 -5 -17 4.5t-4 17.5q0 8 3 16t4 15t-2 11t-14 3v-76q8 0 20.5 -1.5t21.5 5.5q-3 -7 -4 -13t-3 -13h-68q5 6 5.5 12.5t0.5 13.5v121q0 7 -0.5 15
t-5.5 14h62q12 -12 12.5 -29t-4.5 -33zM572 494q0 -7 3.5 -14.5t6.5 -15t2.5 -14.5t-7.5 -13q-7 -5 -16.5 -4.5t-10.5 10.5q0 6 3.5 8.5t7.5 2.5t7 -2.5t2 -6.5q7 1 7 6t-4 10.5t-9 10t-9 5.5q-7 2 -16 0.5t-12 -9.5q-6 -12 -2 -21t12 -16t18 -13.5t16 -13.5q7 -10 11 -23
t2 -25.5t-10 -21.5t-23 -11q-13 -1 -26 -0.5t-27 0.5q4 2 2.5 9.5t-4 16.5t-4 18.5t3.5 15.5t16 6.5t13 -10.5q0 -5 -3.5 -7.5t-7.5 -2.5t-7 2t-3 7q-6 -2 -6 -7t3.5 -10t8.5 -9.5t8 -5.5q7 -2 17 -2t15 5q10 10 8 20t-9.5 18.5t-17.5 15.5t-15 12q-9 8 -15 20.5t-6 25.5
t6.5 23.5t21.5 13.5q13 3 26.5 2t25.5 -1zM216 55l-21 -109h-21q-3 18 -5.5 36t-4.5 36q-2 -18 -5.5 -36t-6.5 -36h-21l-19 109h23q2 -20 3.5 -40.5t5.5 -40.5q2 20 5 40.5t7 40.5h18l12 -81q2 20 4.5 40.5t4.5 40.5h21zM322 55l-21 -109h-20q-4 18 -6.5 36t-4.5 36
q-2 -18 -5 -36l-6 -36h-22l-18 109h22q2 -20 4 -40.5t5 -40.5q2 20 5 40.5t7 40.5h19l11 -81q2 20 4.5 40.5t4.5 40.5h21zM428 55l-20 -109h-21q-4 18 -6 36t-5 36q-2 -18 -5 -36l-6 -36h-21l-19 109h22q2 -20 4.5 -40.5t4.5 -40.5q2 20 5 40.5t7 40.5h19l12 -81
q1 20 3.5 40.5t5.5 40.5h20zM616 -2q7 -3 10.5 -9.5t5 -14t2.5 -15t4 -13.5h-25q-3 6 -4 13.5t-3 14t-6 11t-13 3.5v-42h-26v108q14 2 31.5 3t30.5 -7q15 -11 11 -28t-18 -24zM818 -54h-25q-10 19 -18 38.5t-17 37.5q1 -19 1 -38v-38h-23v109h28l33 -74q-2 19 -2 37.5v36.5
h23v-109zM557 122q6 7 7.5 18t1 23t-2 23.5t-1.5 19.5v62q0 8 0.5 14.5t-5.5 14.5h37q-5 -5 -6.5 -15t-1 -20.5t1.5 -21t1 -17.5v-81h51q11 0 27 -1.5t27 6.5q-2 -4 -3.5 -14.5t-6.5 -10.5h-127zM548 -54h-25l-7 25h-26l-5 -25h-26l29 109h31zM918 -50q-20 -8 -38.5 -4.5
t-30.5 14.5t-16 29t7 39q6 14 19.5 21t30.5 7h5t8.5 -1t8 -2t3.5 -2l-4 -20q-13 6 -23.5 4t-18 -9t-10 -18t1.5 -23q8 -23 30 -20q5 1 4 10.5t-1 13.5h-13v20h37v-59zM643 210q-6 11 -10.5 22.5t-8.5 22.5q-5 11 -7 22.5t-11 19.5h38q-6 -14 1 -32t13 -30q6 14 11 30.5
t0 31.5h39q-11 -6 -13 -19t-5 -23t-11.5 -23.5t-8.5 -23.5q0 -11 -1.5 -27.5t6.5 -25.5h-37q9 9 7 26.5t-2 28.5zM417 255q0 8 -5 13.5t-11 7.5t-11.5 -1t-7.5 -11q-1 -7 -0.5 -14.5t0.5 -13.5q0 -18 -0.5 -36.5t0.5 -36.5q0 -8 4.5 -13t10.5 -7t11.5 0.5t7.5 11.5
q1 6 1 13.5v14.5v72zM521 137q-2 31 -10.5 62.5t-28.5 56.5v-113q0 -7 5.5 -11.5t12.5 -5.5t13.5 1.5t7.5 9.5zM332 656q-14 -3 -25.5 -11.5t-21.5 -18.5q-3 -3 -7.5 -12.5t-7.5 -19t-2 -17t11 -7.5q15 0 24 9.5t15 23t9 28.5zM652 55h26v-109h-26v109zM329 584
q7 2 14.5 9.5t12.5 17t7 19.5t0 17q-3 11 -16 11q-7 -18 -10 -36.5t-8 -37.5zM623 443q10 0 22.5 1t13.5 16q0 8 -3.5 11.5t-9 5t-12 1.5h-11.5v-35zM705 673q-1 4 -2 6.5t-6 0.5q-8 -4 -12.5 -11.5t-6.5 -15.5q-2 -5 0.5 -13.5t10.5 -1.5q6 6 10.5 16t5.5 19zM556 630
q5 -7 12 -3q8 2 11.5 10.5t1.5 16.5q-1 5 -4.5 8t-10.5 -2q-10 -7 -12 -23zM419 -40q0 7 4.5 11t10.5 4t10.5 -4t4.5 -11q0 -8 -4.5 -11.5t-10.5 -3.5t-10.5 3.5t-4.5 11.5zM692 -40q0 7 4.5 11t10.5 4t10.5 -4t4.5 -11q0 -8 -4.5 -11.5t-10.5 -3.5t-10.5 3.5t-4.5 11.5z
M593 7q9 0 13 5t3 11t-5.5 10.5t-13.5 3.5q-5 -1 -4 -13t1 -17h6zM513 -10q-2 11 -4.5 22.5t-5.5 22.5l-10 -45h20zM507 638q-3 -4 -7 -11t-3 -12q2 -6 8 -5t7 7q1 9 -5 21zM390 602q6 -1 14 7.5t9 13.5q2 4 -1 6t-6 -1q-5 -5 -9 -12t-7 -14zM774 727q-18 -18 -24 -42
q8 10 15.5 19.5t9.5 22.5h-1zM453 659q0 4 0.5 6.5t-0.5 6.5q-3 0 -4 -3q-1 -4 2 -10h2z" />
    <glyph glyph-name="three" unicode="3" horiz-adv-x="1028" 
d="M87 517q34 18 67 33t71 26q2 0 4 10t4 22t4 23.5t4 15.5q11 17 33 26t38 17q43 17 87.5 30t89.5 25q46 11 92 19t93 12q16 2 39 4t46.5 1.5t45 -6t34.5 -18.5q1 -2 -1 -14t-3 -16l-3 -48q0 -2 2 -2q38 -11 74.5 -28.5t60.5 -50.5v-1q-8 2 -18 -1.5t-20 -10t-18.5 -13.5
t-13.5 -13q15 -8 24.5 -23t13.5 -32.5t3 -35.5t-6 -33q-8 21 -24.5 32.5t-36.5 17t-41.5 7t-40.5 2.5q-22 2 -46 1t-45 7q-8 3 -11 12.5t-3.5 21t1 22.5t2.5 18q-90 -7 -177.5 -27.5t-171.5 -49.5q-4 -1 -4 -3q1 -5 4 -16.5t5 -24.5t3 -24t-3 -14q-11 -9 -28.5 -10.5
t-31.5 -3.5q-19 -3 -38.5 -6t-38.5 -6q-17 -4 -32.5 -8.5t-30.5 -10.5q-7 -4 -14 -6.5t-14 -7.5q-4 -4 -9 -10t-8 -8q5 17 12 33t13 31q1 3 6.5 12.5t10.5 20t9 19t3 10.5q-12 17 -28.5 33t-38.5 18zM817 577q3 27 3 55t2 54q0 14 1 28t3 28q1 7 -3 11t-10 6.5t-13 3.5
t-13 2q-58 9 -120 0.5t-120 -20.5q-63 -13 -124.5 -29.5t-121.5 -42.5q-11 -6 -22.5 -12t-21.5 -14t-12 -24t-4 -27q-4 -32 -4 -64.5v-65.5q4 0 11 3t14 7.5t13.5 9t11.5 6.5q18 8 36.5 14.5t37.5 13.5q38 11 76 21t78 19q38 8 75.5 15.5t76.5 10.5q35 4 75.5 5.5
t74.5 -14.5zM730 639q-5 -4 -8 -7.5t-9 -5.5q-5 -2 -8 0l-6 4q-2 -2 -6 -4t-8 -3q-15 -3 -21 10v1q-4 -5 -8.5 -8.5t-11.5 -5.5q-7 -4 -12 6q-3 6 -1.5 11.5t4 10.5t4.5 10.5t1 11.5q-9 -4 -12.5 -9.5t-5.5 -12.5t-3 -14t-4 -14q-3 -8 -12 -4q-4 1 -4 5q0 2 0.5 4.5t0.5 3.5
q-7 -2 -9.5 -2t-7.5 -5t-12 -9t-15 -4q-5 1 -8 4t-5 7q-8 -8 -19.5 -16t-24.5 -6q-8 1 -12 9q-12 -14 -25 -18q-14 -6 -16 10q-2 13 4 21.5t11 18.5q1 2 -1.5 2.5t-3.5 -1.5q-4 -10 -9 -21.5t-12.5 -22t-17.5 -17t-23 -5.5q-15 1 -17.5 11t3 22.5t15.5 22.5t21 11q6 0 8 -5
q4 -6 1 -14q-3 -11 -13.5 -19.5t-21.5 -10.5q1 -6 5 -6.5t8.5 1.5t8.5 5t6 5q12 10 17.5 22.5t10.5 25.5q1 1 -0.5 4.5t-4 7.5t-4 8.5t-0.5 7.5q5 13 17 11q6 0 8 -6q2 -5 1 -11t-1 -12q10 1 14 -0.5t-2 -13.5q-4 -8 -8.5 -16.5t-5.5 -17.5q0 -5 3 -5q10 0 17 10t12.5 22.5
l11 25t12.5 16.5q4 1 8 -1q1 -2 1 -6q-2 -6 -5 -10.5t-1 -11.5q3 -6 6.5 -12.5t2.5 -13.5h1q10 12 16 29.5t22 25.5q18 7 24 -10q5 -7 3 -12.5t-1 -13.5q4 1 7 5q8 6 9 17t4 20q2 2 5.5 2.5t5.5 -0.5q5 -1 4 -6v-1q5 5 12 8q5 3 8.5 1t5.5 -7q2 -6 0.5 -11t-4 -10.5l-5 -11
t-1.5 -11.5q7 6 12 13t9 14.5t8.5 14t12.5 11.5q10 5 25 0q2 3 8.5 4t4.5 -7q-2 -9 -7 -19t-5 -20q0 -7 4 -1q10 10 15 23.5t9.5 27t11.5 26t21 20.5q7 4 12 -4q6 -11 2 -23.5t-12 -20.5q-7 -9 -21 -21.5t-12 -25.5q2 -8 11 -6q7 3 10.5 9.5t7.5 12.5q2 1 6 1t4 -5l-2 -6
q-8 -19 -26 -26q-12 -7 -21 7q-2 2 -2 5zM948 605q-24 23 -54 37.5t-62 22.5q-1 -28 -1.5 -55t-2.5 -55l-1 1v-3q-13 -1 -31.5 -2t-36.5 -4.5t-33.5 -10.5t-23.5 -19q-4 -3 2 -4q13 -5 28 -6.5t30.5 -1.5h30.5t29 -1t28 -2.5t28 -6.5q14 -4 25 -11.5t24 -13.5q0 30 -10.5 52
t-39.5 33q17 15 34 28.5t37 21.5zM226 565q-29 -8 -57 -19.5t-55 -25.5q33 -18 53 -53q1 -1 -2 -7.5t-7 -14t-7.5 -14t-4.5 -9.5q-12 -22 -20 -46q25 13 51 19t53 10t53.5 7.5t52.5 11.5q-9 9 -23 12.5t-30 4t-32 -1t-27 -2.5v64t2 64zM455 286q0 5 -4 11h28q14 -6 25 -24.5
t17 -32.5q0 12 1 29t-6 28h36q-6 -5 -5.5 -12t0.5 -14v-120q0 -7 -0.5 -15.5t5.5 -13.5h-101q5 7 6.5 17t1 21.5t-2 22.5t-1.5 19v84zM404 297q18 0 26.5 -10t11.5 -24.5t2 -31t-1 -29.5v-39q0 -23 -13 -32.5t-35 -8.5q-19 0 -27.5 10t-11.5 24.5t-2 31t1 29.5q0 10 -0.5 19
t0.5 19q0 24 13 33t36 9zM351 671q6 0 10 -1q8 -1 13.5 -7.5t6.5 -15.5q3 -21 -11.5 -40.5t-32.5 -30.5q-9 -6 -13.5 -15.5l-9 -19t-10 -18.5t-16.5 -14q-11 -8 -26 -5q-6 2 -10 7t-3 12q0 11 7.5 18.5t17.5 9.5q3 1 7.5 -1t2.5 -7q-6 -4 -11 -4q-6 -2 -8 -8t1 -11
q2 -2 4 -2.5t4 -1.5q10 -1 16.5 5.5t11 16.5t6.5 20t4 17q-13 -13 -30 -17q-13 -2 -21 6q-8 4 -8 18q0 13 6 25q13 30 42 48q6 3 12.5 6t13.5 5q5 2 10.5 6t10.5 5q6 0 3 -6zM454 414q-2 7 -5 18.5t-4 23.5t1 22.5t10 16.5q5 5 15.5 5t14.5 -8q3 -8 -1 -10.5t-9 -2t-8.5 4
t0.5 7.5q-8 -4 -8.5 -14t3 -21.5t8.5 -22.5t7 -17q6 -18 8.5 -42.5t-10.5 -41.5q-5 -7 -16.5 -9.5t-24.5 -2.5t-26 1.5t-20 1.5q6 7 7.5 18t1 23.5t-2 24t-1.5 20.5v61q0 8 0.5 15t-5.5 14h37q-7 -6 -6 -16t1 -18v-69q0 -8 -1 -24t5 -23q7 -11 18.5 -4t13.5 16
q4 13 1.5 26.5t-4.5 26.5zM660 437q-2 -4 -7.5 -14.5t-10 -22t-5.5 -22t5 -13.5q-3 6 2 6.5t10.5 -2t7 -7t-8.5 -8.5q-12 -5 -17 4.5t-4 17.5q0 8 3 16t4 15t-2 11t-14 3v-76q8 0 20.5 -1.5t21.5 5.5q-3 -7 -4 -13t-3 -13h-68q5 6 5.5 12.5t0.5 13.5v121q0 7 -0.5 15
t-5.5 14h62q12 -12 12.5 -29t-4.5 -33zM572 494q0 -7 3.5 -14.5t6.5 -15t2.5 -14.5t-7.5 -13q-7 -5 -16.5 -4.5t-10.5 10.5q0 6 3.5 8.5t7.5 2.5t7 -2.5t2 -6.5q7 1 7 6t-4 10.5t-9 10t-9 5.5q-7 2 -16 0.5t-12 -9.5q-6 -12 -2 -21t12 -16t18 -13.5t16 -13.5q7 -10 11 -23
t2 -25.5t-10 -21.5t-23 -11q-13 -1 -26 -0.5t-27 0.5q4 2 2.5 9.5t-4 16.5t-4 18.5t3.5 15.5t16 6.5t13 -10.5q0 -5 -3.5 -7.5t-7.5 -2.5t-7 2t-3 7q-6 -2 -6 -7t3.5 -10t8.5 -9.5t8 -5.5q7 -2 17 -2t15 5q10 10 8 20t-9.5 18.5t-17.5 15.5t-15 12q-9 8 -15 20.5t-6 25.5
t6.5 23.5t21.5 13.5q13 3 26.5 2t25.5 -1zM216 55l-21 -109h-21q-3 18 -5.5 36t-4.5 36q-2 -18 -5.5 -36t-6.5 -36h-21l-19 109h23q2 -20 3.5 -40.5t5.5 -40.5q2 20 5 40.5t7 40.5h18l12 -81q2 20 4.5 40.5t4.5 40.5h21zM322 55l-21 -109h-20q-4 18 -6.5 36t-4.5 36
q-2 -18 -5 -36l-6 -36h-22l-18 109h22q2 -20 4 -40.5t5 -40.5q2 20 5 40.5t7 40.5h19l11 -81q2 20 4.5 40.5t4.5 40.5h21zM428 55l-20 -109h-21q-4 18 -6 36t-5 36q-2 -18 -5 -36l-6 -36h-21l-19 109h22q2 -20 4.5 -40.5t4.5 -40.5q2 20 5 40.5t7 40.5h19l12 -81
q1 20 3.5 40.5t5.5 40.5h20zM616 -2q7 -3 10.5 -9.5t5 -14t2.5 -15t4 -13.5h-25q-3 6 -4 13.5t-3 14t-6 11t-13 3.5v-42h-26v108q14 2 31.5 3t30.5 -7q15 -11 11 -28t-18 -24zM818 -54h-25q-10 19 -18 38.5t-17 37.5q1 -19 1 -38v-38h-23v109h28l33 -74q-2 19 -2 37.5v36.5
h23v-109zM557 122q6 7 7.5 18t1 23t-2 23.5t-1.5 19.5v62q0 8 0.5 14.5t-5.5 14.5h37q-5 -5 -6.5 -15t-1 -20.5t1.5 -21t1 -17.5v-81h51q11 0 27 -1.5t27 6.5q-2 -4 -3.5 -14.5t-6.5 -10.5h-127zM548 -54h-25l-7 25h-26l-5 -25h-26l29 109h31zM918 -50q-20 -8 -38.5 -4.5
t-30.5 14.5t-16 29t7 39q6 14 19.5 21t30.5 7h5t8.5 -1t8 -2t3.5 -2l-4 -20q-13 6 -23.5 4t-18 -9t-10 -18t1.5 -23q8 -23 30 -20q5 1 4 10.5t-1 13.5h-13v20h37v-59zM643 210q-6 11 -10.5 22.5t-8.5 22.5q-5 11 -7 22.5t-11 19.5h38q-6 -14 1 -32t13 -30q6 14 11 30.5
t0 31.5h39q-11 -6 -13 -19t-5 -23t-11.5 -23.5t-8.5 -23.5q0 -11 -1.5 -27.5t6.5 -25.5h-37q9 9 7 26.5t-2 28.5zM417 255q0 8 -5 13.5t-11 7.5t-11.5 -1t-7.5 -11q-1 -7 -0.5 -14.5t0.5 -13.5q0 -18 -0.5 -36.5t0.5 -36.5q0 -8 4.5 -13t10.5 -7t11.5 0.5t7.5 11.5
q1 6 1 13.5v14.5v72zM521 137q-2 31 -10.5 62.5t-28.5 56.5v-113q0 -7 5.5 -11.5t12.5 -5.5t13.5 1.5t7.5 9.5zM332 656q-14 -3 -25.5 -11.5t-21.5 -18.5q-3 -3 -7.5 -12.5t-7.5 -19t-2 -17t11 -7.5q15 0 24 9.5t15 23t9 28.5zM652 55h26v-109h-26v109zM329 584
q7 2 14.5 9.5t12.5 17t7 19.5t0 17q-3 11 -16 11q-7 -18 -10 -36.5t-8 -37.5zM623 443q10 0 22.5 1t13.5 16q0 8 -3.5 11.5t-9 5t-12 1.5h-11.5v-35zM705 673q-1 4 -2 6.5t-6 0.5q-8 -4 -12.5 -11.5t-6.5 -15.5q-2 -5 0.5 -13.5t10.5 -1.5q6 6 10.5 16t5.5 19zM556 630
q5 -7 12 -3q8 2 11.5 10.5t1.5 16.5q-1 5 -4.5 8t-10.5 -2q-10 -7 -12 -23zM419 -40q0 7 4.5 11t10.5 4t10.5 -4t4.5 -11q0 -8 -4.5 -11.5t-10.5 -3.5t-10.5 3.5t-4.5 11.5zM692 -40q0 7 4.5 11t10.5 4t10.5 -4t4.5 -11q0 -8 -4.5 -11.5t-10.5 -3.5t-10.5 3.5t-4.5 11.5z
M593 7q9 0 13 5t3 11t-5.5 10.5t-13.5 3.5q-5 -1 -4 -13t1 -17h6zM513 -10q-2 11 -4.5 22.5t-5.5 22.5l-10 -45h20zM507 638q-3 -4 -7 -11t-3 -12q2 -6 8 -5t7 7q1 9 -5 21zM390 602q6 -1 14 7.5t9 13.5q2 4 -1 6t-6 -1q-5 -5 -9 -12t-7 -14zM774 727q-18 -18 -24 -42
q8 10 15.5 19.5t9.5 22.5h-1zM453 659q0 4 0.5 6.5t-0.5 6.5q-3 0 -4 -3q-1 -4 2 -10h2z" />
    <glyph glyph-name="four" unicode="4" horiz-adv-x="1028" 
d="M87 517q34 18 67 33t71 26q2 0 4 10t4 22t4 23.5t4 15.5q11 17 33 26t38 17q43 17 87.5 30t89.5 25q46 11 92 19t93 12q16 2 39 4t46.5 1.5t45 -6t34.5 -18.5q1 -2 -1 -14t-3 -16l-3 -48q0 -2 2 -2q38 -11 74.5 -28.5t60.5 -50.5v-1q-8 2 -18 -1.5t-20 -10t-18.5 -13.5
t-13.5 -13q15 -8 24.5 -23t13.5 -32.5t3 -35.5t-6 -33q-8 21 -24.5 32.5t-36.5 17t-41.5 7t-40.5 2.5q-22 2 -46 1t-45 7q-8 3 -11 12.5t-3.5 21t1 22.5t2.5 18q-90 -7 -177.5 -27.5t-171.5 -49.5q-4 -1 -4 -3q1 -5 4 -16.5t5 -24.5t3 -24t-3 -14q-11 -9 -28.5 -10.5
t-31.5 -3.5q-19 -3 -38.5 -6t-38.5 -6q-17 -4 -32.5 -8.5t-30.5 -10.5q-7 -4 -14 -6.5t-14 -7.5q-4 -4 -9 -10t-8 -8q5 17 12 33t13 31q1 3 6.5 12.5t10.5 20t9 19t3 10.5q-12 17 -28.5 33t-38.5 18zM817 577q3 27 3 55t2 54q0 14 1 28t3 28q1 7 -3 11t-10 6.5t-13 3.5
t-13 2q-58 9 -120 0.5t-120 -20.5q-63 -13 -124.5 -29.5t-121.5 -42.5q-11 -6 -22.5 -12t-21.5 -14t-12 -24t-4 -27q-4 -32 -4 -64.5v-65.5q4 0 11 3t14 7.5t13.5 9t11.5 6.5q18 8 36.5 14.5t37.5 13.5q38 11 76 21t78 19q38 8 75.5 15.5t76.5 10.5q35 4 75.5 5.5
t74.5 -14.5zM730 639q-5 -4 -8 -7.5t-9 -5.5q-5 -2 -8 0l-6 4q-2 -2 -6 -4t-8 -3q-15 -3 -21 10v1q-4 -5 -8.5 -8.5t-11.5 -5.5q-7 -4 -12 6q-3 6 -1.5 11.5t4 10.5t4.5 10.5t1 11.5q-9 -4 -12.5 -9.5t-5.5 -12.5t-3 -14t-4 -14q-3 -8 -12 -4q-4 1 -4 5q0 2 0.5 4.5t0.5 3.5
q-7 -2 -9.5 -2t-7.5 -5t-12 -9t-15 -4q-5 1 -8 4t-5 7q-8 -8 -19.5 -16t-24.5 -6q-8 1 -12 9q-12 -14 -25 -18q-14 -6 -16 10q-2 13 4 21.5t11 18.5q1 2 -1.5 2.5t-3.5 -1.5q-4 -10 -9 -21.5t-12.5 -22t-17.5 -17t-23 -5.5q-15 1 -17.5 11t3 22.5t15.5 22.5t21 11q6 0 8 -5
q4 -6 1 -14q-3 -11 -13.5 -19.5t-21.5 -10.5q1 -6 5 -6.5t8.5 1.5t8.5 5t6 5q12 10 17.5 22.5t10.5 25.5q1 1 -0.5 4.5t-4 7.5t-4 8.5t-0.5 7.5q5 13 17 11q6 0 8 -6q2 -5 1 -11t-1 -12q10 1 14 -0.5t-2 -13.5q-4 -8 -8.5 -16.5t-5.5 -17.5q0 -5 3 -5q10 0 17 10t12.5 22.5
l11 25t12.5 16.5q4 1 8 -1q1 -2 1 -6q-2 -6 -5 -10.5t-1 -11.5q3 -6 6.5 -12.5t2.5 -13.5h1q10 12 16 29.5t22 25.5q18 7 24 -10q5 -7 3 -12.5t-1 -13.5q4 1 7 5q8 6 9 17t4 20q2 2 5.5 2.5t5.5 -0.5q5 -1 4 -6v-1q5 5 12 8q5 3 8.5 1t5.5 -7q2 -6 0.5 -11t-4 -10.5l-5 -11
t-1.5 -11.5q7 6 12 13t9 14.5t8.5 14t12.5 11.5q10 5 25 0q2 3 8.5 4t4.5 -7q-2 -9 -7 -19t-5 -20q0 -7 4 -1q10 10 15 23.5t9.5 27t11.5 26t21 20.5q7 4 12 -4q6 -11 2 -23.5t-12 -20.5q-7 -9 -21 -21.5t-12 -25.5q2 -8 11 -6q7 3 10.5 9.5t7.5 12.5q2 1 6 1t4 -5l-2 -6
q-8 -19 -26 -26q-12 -7 -21 7q-2 2 -2 5zM948 605q-24 23 -54 37.5t-62 22.5q-1 -28 -1.5 -55t-2.5 -55l-1 1v-3q-13 -1 -31.5 -2t-36.5 -4.5t-33.5 -10.5t-23.5 -19q-4 -3 2 -4q13 -5 28 -6.5t30.5 -1.5h30.5t29 -1t28 -2.5t28 -6.5q14 -4 25 -11.5t24 -13.5q0 30 -10.5 52
t-39.5 33q17 15 34 28.5t37 21.5zM226 565q-29 -8 -57 -19.5t-55 -25.5q33 -18 53 -53q1 -1 -2 -7.5t-7 -14t-7.5 -14t-4.5 -9.5q-12 -22 -20 -46q25 13 51 19t53 10t53.5 7.5t52.5 11.5q-9 9 -23 12.5t-30 4t-32 -1t-27 -2.5v64t2 64zM455 286q0 5 -4 11h28q14 -6 25 -24.5
t17 -32.5q0 12 1 29t-6 28h36q-6 -5 -5.5 -12t0.5 -14v-120q0 -7 -0.5 -15.5t5.5 -13.5h-101q5 7 6.5 17t1 21.5t-2 22.5t-1.5 19v84zM404 297q18 0 26.5 -10t11.5 -24.5t2 -31t-1 -29.5v-39q0 -23 -13 -32.5t-35 -8.5q-19 0 -27.5 10t-11.5 24.5t-2 31t1 29.5q0 10 -0.5 19
t0.5 19q0 24 13 33t36 9zM351 671q6 0 10 -1q8 -1 13.5 -7.5t6.5 -15.5q3 -21 -11.5 -40.5t-32.5 -30.5q-9 -6 -13.5 -15.5l-9 -19t-10 -18.5t-16.5 -14q-11 -8 -26 -5q-6 2 -10 7t-3 12q0 11 7.5 18.5t17.5 9.5q3 1 7.5 -1t2.5 -7q-6 -4 -11 -4q-6 -2 -8 -8t1 -11
q2 -2 4 -2.5t4 -1.5q10 -1 16.5 5.5t11 16.5t6.5 20t4 17q-13 -13 -30 -17q-13 -2 -21 6q-8 4 -8 18q0 13 6 25q13 30 42 48q6 3 12.5 6t13.5 5q5 2 10.5 6t10.5 5q6 0 3 -6zM454 414q-2 7 -5 18.5t-4 23.5t1 22.5t10 16.5q5 5 15.5 5t14.5 -8q3 -8 -1 -10.5t-9 -2t-8.5 4
t0.5 7.5q-8 -4 -8.5 -14t3 -21.5t8.5 -22.5t7 -17q6 -18 8.5 -42.5t-10.5 -41.5q-5 -7 -16.5 -9.5t-24.5 -2.5t-26 1.5t-20 1.5q6 7 7.5 18t1 23.5t-2 24t-1.5 20.5v61q0 8 0.5 15t-5.5 14h37q-7 -6 -6 -16t1 -18v-69q0 -8 -1 -24t5 -23q7 -11 18.5 -4t13.5 16
q4 13 1.5 26.5t-4.5 26.5zM660 437q-2 -4 -7.5 -14.5t-10 -22t-5.5 -22t5 -13.5q-3 6 2 6.5t10.5 -2t7 -7t-8.5 -8.5q-12 -5 -17 4.5t-4 17.5q0 8 3 16t4 15t-2 11t-14 3v-76q8 0 20.5 -1.5t21.5 5.5q-3 -7 -4 -13t-3 -13h-68q5 6 5.5 12.5t0.5 13.5v121q0 7 -0.5 15
t-5.5 14h62q12 -12 12.5 -29t-4.5 -33zM572 494q0 -7 3.5 -14.5t6.5 -15t2.5 -14.5t-7.5 -13q-7 -5 -16.5 -4.5t-10.5 10.5q0 6 3.5 8.5t7.5 2.5t7 -2.5t2 -6.5q7 1 7 6t-4 10.5t-9 10t-9 5.5q-7 2 -16 0.5t-12 -9.5q-6 -12 -2 -21t12 -16t18 -13.5t16 -13.5q7 -10 11 -23
t2 -25.5t-10 -21.5t-23 -11q-13 -1 -26 -0.5t-27 0.5q4 2 2.5 9.5t-4 16.5t-4 18.5t3.5 15.5t16 6.5t13 -10.5q0 -5 -3.5 -7.5t-7.5 -2.5t-7 2t-3 7q-6 -2 -6 -7t3.5 -10t8.5 -9.5t8 -5.5q7 -2 17 -2t15 5q10 10 8 20t-9.5 18.5t-17.5 15.5t-15 12q-9 8 -15 20.5t-6 25.5
t6.5 23.5t21.5 13.5q13 3 26.5 2t25.5 -1zM216 55l-21 -109h-21q-3 18 -5.5 36t-4.5 36q-2 -18 -5.5 -36t-6.5 -36h-21l-19 109h23q2 -20 3.5 -40.5t5.5 -40.5q2 20 5 40.5t7 40.5h18l12 -81q2 20 4.5 40.5t4.5 40.5h21zM322 55l-21 -109h-20q-4 18 -6.5 36t-4.5 36
q-2 -18 -5 -36l-6 -36h-22l-18 109h22q2 -20 4 -40.5t5 -40.5q2 20 5 40.5t7 40.5h19l11 -81q2 20 4.5 40.5t4.5 40.5h21zM428 55l-20 -109h-21q-4 18 -6 36t-5 36q-2 -18 -5 -36l-6 -36h-21l-19 109h22q2 -20 4.5 -40.5t4.5 -40.5q2 20 5 40.5t7 40.5h19l12 -81
q1 20 3.5 40.5t5.5 40.5h20zM616 -2q7 -3 10.5 -9.5t5 -14t2.5 -15t4 -13.5h-25q-3 6 -4 13.5t-3 14t-6 11t-13 3.5v-42h-26v108q14 2 31.5 3t30.5 -7q15 -11 11 -28t-18 -24zM818 -54h-25q-10 19 -18 38.5t-17 37.5q1 -19 1 -38v-38h-23v109h28l33 -74q-2 19 -2 37.5v36.5
h23v-109zM557 122q6 7 7.5 18t1 23t-2 23.5t-1.5 19.5v62q0 8 0.5 14.5t-5.5 14.5h37q-5 -5 -6.5 -15t-1 -20.5t1.5 -21t1 -17.5v-81h51q11 0 27 -1.5t27 6.5q-2 -4 -3.5 -14.5t-6.5 -10.5h-127zM548 -54h-25l-7 25h-26l-5 -25h-26l29 109h31zM918 -50q-20 -8 -38.5 -4.5
t-30.5 14.5t-16 29t7 39q6 14 19.5 21t30.5 7h5t8.5 -1t8 -2t3.5 -2l-4 -20q-13 6 -23.5 4t-18 -9t-10 -18t1.5 -23q8 -23 30 -20q5 1 4 10.5t-1 13.5h-13v20h37v-59zM643 210q-6 11 -10.5 22.5t-8.5 22.5q-5 11 -7 22.5t-11 19.5h38q-6 -14 1 -32t13 -30q6 14 11 30.5
t0 31.5h39q-11 -6 -13 -19t-5 -23t-11.5 -23.5t-8.5 -23.5q0 -11 -1.5 -27.5t6.5 -25.5h-37q9 9 7 26.5t-2 28.5zM417 255q0 8 -5 13.5t-11 7.5t-11.5 -1t-7.5 -11q-1 -7 -0.5 -14.5t0.5 -13.5q0 -18 -0.5 -36.5t0.5 -36.5q0 -8 4.5 -13t10.5 -7t11.5 0.5t7.5 11.5
q1 6 1 13.5v14.5v72zM521 137q-2 31 -10.5 62.5t-28.5 56.5v-113q0 -7 5.5 -11.5t12.5 -5.5t13.5 1.5t7.5 9.5zM332 656q-14 -3 -25.5 -11.5t-21.5 -18.5q-3 -3 -7.5 -12.5t-7.5 -19t-2 -17t11 -7.5q15 0 24 9.5t15 23t9 28.5zM652 55h26v-109h-26v109zM329 584
q7 2 14.5 9.5t12.5 17t7 19.5t0 17q-3 11 -16 11q-7 -18 -10 -36.5t-8 -37.5zM623 443q10 0 22.5 1t13.5 16q0 8 -3.5 11.5t-9 5t-12 1.5h-11.5v-35zM705 673q-1 4 -2 6.5t-6 0.5q-8 -4 -12.5 -11.5t-6.5 -15.5q-2 -5 0.5 -13.5t10.5 -1.5q6 6 10.5 16t5.5 19zM556 630
q5 -7 12 -3q8 2 11.5 10.5t1.5 16.5q-1 5 -4.5 8t-10.5 -2q-10 -7 -12 -23zM419 -40q0 7 4.5 11t10.5 4t10.5 -4t4.5 -11q0 -8 -4.5 -11.5t-10.5 -3.5t-10.5 3.5t-4.5 11.5zM692 -40q0 7 4.5 11t10.5 4t10.5 -4t4.5 -11q0 -8 -4.5 -11.5t-10.5 -3.5t-10.5 3.5t-4.5 11.5z
M593 7q9 0 13 5t3 11t-5.5 10.5t-13.5 3.5q-5 -1 -4 -13t1 -17h6zM513 -10q-2 11 -4.5 22.5t-5.5 22.5l-10 -45h20zM507 638q-3 -4 -7 -11t-3 -12q2 -6 8 -5t7 7q1 9 -5 21zM390 602q6 -1 14 7.5t9 13.5q2 4 -1 6t-6 -1q-5 -5 -9 -12t-7 -14zM774 727q-18 -18 -24 -42
q8 10 15.5 19.5t9.5 22.5h-1zM453 659q0 4 0.5 6.5t-0.5 6.5q-3 0 -4 -3q-1 -4 2 -10h2z" />
    <glyph glyph-name="five" unicode="5" horiz-adv-x="1028" 
d="M87 517q34 18 67 33t71 26q2 0 4 10t4 22t4 23.5t4 15.5q11 17 33 26t38 17q43 17 87.5 30t89.5 25q46 11 92 19t93 12q16 2 39 4t46.5 1.5t45 -6t34.5 -18.5q1 -2 -1 -14t-3 -16l-3 -48q0 -2 2 -2q38 -11 74.5 -28.5t60.5 -50.5v-1q-8 2 -18 -1.5t-20 -10t-18.5 -13.5
t-13.5 -13q15 -8 24.5 -23t13.5 -32.5t3 -35.5t-6 -33q-8 21 -24.5 32.5t-36.5 17t-41.5 7t-40.5 2.5q-22 2 -46 1t-45 7q-8 3 -11 12.5t-3.5 21t1 22.5t2.5 18q-90 -7 -177.5 -27.5t-171.5 -49.5q-4 -1 -4 -3q1 -5 4 -16.5t5 -24.5t3 -24t-3 -14q-11 -9 -28.5 -10.5
t-31.5 -3.5q-19 -3 -38.5 -6t-38.5 -6q-17 -4 -32.5 -8.5t-30.5 -10.5q-7 -4 -14 -6.5t-14 -7.5q-4 -4 -9 -10t-8 -8q5 17 12 33t13 31q1 3 6.5 12.5t10.5 20t9 19t3 10.5q-12 17 -28.5 33t-38.5 18zM817 577q3 27 3 55t2 54q0 14 1 28t3 28q1 7 -3 11t-10 6.5t-13 3.5
t-13 2q-58 9 -120 0.5t-120 -20.5q-63 -13 -124.5 -29.5t-121.5 -42.5q-11 -6 -22.5 -12t-21.5 -14t-12 -24t-4 -27q-4 -32 -4 -64.5v-65.5q4 0 11 3t14 7.5t13.5 9t11.5 6.5q18 8 36.5 14.5t37.5 13.5q38 11 76 21t78 19q38 8 75.5 15.5t76.5 10.5q35 4 75.5 5.5
t74.5 -14.5zM730 639q-5 -4 -8 -7.5t-9 -5.5q-5 -2 -8 0l-6 4q-2 -2 -6 -4t-8 -3q-15 -3 -21 10v1q-4 -5 -8.5 -8.5t-11.5 -5.5q-7 -4 -12 6q-3 6 -1.5 11.5t4 10.5t4.5 10.5t1 11.5q-9 -4 -12.5 -9.5t-5.5 -12.5t-3 -14t-4 -14q-3 -8 -12 -4q-4 1 -4 5q0 2 0.5 4.5t0.5 3.5
q-7 -2 -9.5 -2t-7.5 -5t-12 -9t-15 -4q-5 1 -8 4t-5 7q-8 -8 -19.5 -16t-24.5 -6q-8 1 -12 9q-12 -14 -25 -18q-14 -6 -16 10q-2 13 4 21.5t11 18.5q1 2 -1.5 2.5t-3.5 -1.5q-4 -10 -9 -21.5t-12.5 -22t-17.5 -17t-23 -5.5q-15 1 -17.5 11t3 22.5t15.5 22.5t21 11q6 0 8 -5
q4 -6 1 -14q-3 -11 -13.5 -19.5t-21.5 -10.5q1 -6 5 -6.5t8.5 1.5t8.5 5t6 5q12 10 17.5 22.5t10.5 25.5q1 1 -0.5 4.5t-4 7.5t-4 8.5t-0.5 7.5q5 13 17 11q6 0 8 -6q2 -5 1 -11t-1 -12q10 1 14 -0.5t-2 -13.5q-4 -8 -8.5 -16.5t-5.5 -17.5q0 -5 3 -5q10 0 17 10t12.5 22.5
l11 25t12.5 16.5q4 1 8 -1q1 -2 1 -6q-2 -6 -5 -10.5t-1 -11.5q3 -6 6.5 -12.5t2.5 -13.5h1q10 12 16 29.5t22 25.5q18 7 24 -10q5 -7 3 -12.5t-1 -13.5q4 1 7 5q8 6 9 17t4 20q2 2 5.5 2.5t5.5 -0.5q5 -1 4 -6v-1q5 5 12 8q5 3 8.5 1t5.5 -7q2 -6 0.5 -11t-4 -10.5l-5 -11
t-1.5 -11.5q7 6 12 13t9 14.5t8.5 14t12.5 11.5q10 5 25 0q2 3 8.5 4t4.5 -7q-2 -9 -7 -19t-5 -20q0 -7 4 -1q10 10 15 23.5t9.5 27t11.5 26t21 20.5q7 4 12 -4q6 -11 2 -23.5t-12 -20.5q-7 -9 -21 -21.5t-12 -25.5q2 -8 11 -6q7 3 10.5 9.5t7.5 12.5q2 1 6 1t4 -5l-2 -6
q-8 -19 -26 -26q-12 -7 -21 7q-2 2 -2 5zM948 605q-24 23 -54 37.5t-62 22.5q-1 -28 -1.5 -55t-2.5 -55l-1 1v-3q-13 -1 -31.5 -2t-36.5 -4.5t-33.5 -10.5t-23.5 -19q-4 -3 2 -4q13 -5 28 -6.5t30.5 -1.5h30.5t29 -1t28 -2.5t28 -6.5q14 -4 25 -11.5t24 -13.5q0 30 -10.5 52
t-39.5 33q17 15 34 28.5t37 21.5zM226 565q-29 -8 -57 -19.5t-55 -25.5q33 -18 53 -53q1 -1 -2 -7.5t-7 -14t-7.5 -14t-4.5 -9.5q-12 -22 -20 -46q25 13 51 19t53 10t53.5 7.5t52.5 11.5q-9 9 -23 12.5t-30 4t-32 -1t-27 -2.5v64t2 64zM455 286q0 5 -4 11h28q14 -6 25 -24.5
t17 -32.5q0 12 1 29t-6 28h36q-6 -5 -5.5 -12t0.5 -14v-120q0 -7 -0.5 -15.5t5.5 -13.5h-101q5 7 6.5 17t1 21.5t-2 22.5t-1.5 19v84zM404 297q18 0 26.5 -10t11.5 -24.5t2 -31t-1 -29.5v-39q0 -23 -13 -32.5t-35 -8.5q-19 0 -27.5 10t-11.5 24.5t-2 31t1 29.5q0 10 -0.5 19
t0.5 19q0 24 13 33t36 9zM351 671q6 0 10 -1q8 -1 13.5 -7.5t6.5 -15.5q3 -21 -11.5 -40.5t-32.5 -30.5q-9 -6 -13.5 -15.5l-9 -19t-10 -18.5t-16.5 -14q-11 -8 -26 -5q-6 2 -10 7t-3 12q0 11 7.5 18.5t17.5 9.5q3 1 7.5 -1t2.5 -7q-6 -4 -11 -4q-6 -2 -8 -8t1 -11
q2 -2 4 -2.5t4 -1.5q10 -1 16.5 5.5t11 16.5t6.5 20t4 17q-13 -13 -30 -17q-13 -2 -21 6q-8 4 -8 18q0 13 6 25q13 30 42 48q6 3 12.5 6t13.5 5q5 2 10.5 6t10.5 5q6 0 3 -6zM454 414q-2 7 -5 18.5t-4 23.5t1 22.5t10 16.5q5 5 15.5 5t14.5 -8q3 -8 -1 -10.5t-9 -2t-8.5 4
t0.5 7.5q-8 -4 -8.5 -14t3 -21.5t8.5 -22.5t7 -17q6 -18 8.5 -42.5t-10.5 -41.5q-5 -7 -16.5 -9.5t-24.5 -2.5t-26 1.5t-20 1.5q6 7 7.5 18t1 23.5t-2 24t-1.5 20.5v61q0 8 0.5 15t-5.5 14h37q-7 -6 -6 -16t1 -18v-69q0 -8 -1 -24t5 -23q7 -11 18.5 -4t13.5 16
q4 13 1.5 26.5t-4.5 26.5zM660 437q-2 -4 -7.5 -14.5t-10 -22t-5.5 -22t5 -13.5q-3 6 2 6.5t10.5 -2t7 -7t-8.5 -8.5q-12 -5 -17 4.5t-4 17.5q0 8 3 16t4 15t-2 11t-14 3v-76q8 0 20.5 -1.5t21.5 5.5q-3 -7 -4 -13t-3 -13h-68q5 6 5.5 12.5t0.5 13.5v121q0 7 -0.5 15
t-5.5 14h62q12 -12 12.5 -29t-4.5 -33zM572 494q0 -7 3.5 -14.5t6.5 -15t2.5 -14.5t-7.5 -13q-7 -5 -16.5 -4.5t-10.5 10.5q0 6 3.5 8.5t7.5 2.5t7 -2.5t2 -6.5q7 1 7 6t-4 10.5t-9 10t-9 5.5q-7 2 -16 0.5t-12 -9.5q-6 -12 -2 -21t12 -16t18 -13.5t16 -13.5q7 -10 11 -23
t2 -25.5t-10 -21.5t-23 -11q-13 -1 -26 -0.5t-27 0.5q4 2 2.5 9.5t-4 16.5t-4 18.5t3.5 15.5t16 6.5t13 -10.5q0 -5 -3.5 -7.5t-7.5 -2.5t-7 2t-3 7q-6 -2 -6 -7t3.5 -10t8.5 -9.5t8 -5.5q7 -2 17 -2t15 5q10 10 8 20t-9.5 18.5t-17.5 15.5t-15 12q-9 8 -15 20.5t-6 25.5
t6.5 23.5t21.5 13.5q13 3 26.5 2t25.5 -1zM216 55l-21 -109h-21q-3 18 -5.5 36t-4.5 36q-2 -18 -5.5 -36t-6.5 -36h-21l-19 109h23q2 -20 3.5 -40.5t5.5 -40.5q2 20 5 40.5t7 40.5h18l12 -81q2 20 4.5 40.5t4.5 40.5h21zM322 55l-21 -109h-20q-4 18 -6.5 36t-4.5 36
q-2 -18 -5 -36l-6 -36h-22l-18 109h22q2 -20 4 -40.5t5 -40.5q2 20 5 40.5t7 40.5h19l11 -81q2 20 4.5 40.5t4.5 40.5h21zM428 55l-20 -109h-21q-4 18 -6 36t-5 36q-2 -18 -5 -36l-6 -36h-21l-19 109h22q2 -20 4.5 -40.5t4.5 -40.5q2 20 5 40.5t7 40.5h19l12 -81
q1 20 3.5 40.5t5.5 40.5h20zM616 -2q7 -3 10.5 -9.5t5 -14t2.5 -15t4 -13.5h-25q-3 6 -4 13.5t-3 14t-6 11t-13 3.5v-42h-26v108q14 2 31.5 3t30.5 -7q15 -11 11 -28t-18 -24zM818 -54h-25q-10 19 -18 38.5t-17 37.5q1 -19 1 -38v-38h-23v109h28l33 -74q-2 19 -2 37.5v36.5
h23v-109zM557 122q6 7 7.5 18t1 23t-2 23.5t-1.5 19.5v62q0 8 0.5 14.5t-5.5 14.5h37q-5 -5 -6.5 -15t-1 -20.5t1.5 -21t1 -17.5v-81h51q11 0 27 -1.5t27 6.5q-2 -4 -3.5 -14.5t-6.5 -10.5h-127zM548 -54h-25l-7 25h-26l-5 -25h-26l29 109h31zM918 -50q-20 -8 -38.5 -4.5
t-30.5 14.5t-16 29t7 39q6 14 19.5 21t30.5 7h5t8.5 -1t8 -2t3.5 -2l-4 -20q-13 6 -23.5 4t-18 -9t-10 -18t1.5 -23q8 -23 30 -20q5 1 4 10.5t-1 13.5h-13v20h37v-59zM643 210q-6 11 -10.5 22.5t-8.5 22.5q-5 11 -7 22.5t-11 19.5h38q-6 -14 1 -32t13 -30q6 14 11 30.5
t0 31.5h39q-11 -6 -13 -19t-5 -23t-11.5 -23.5t-8.5 -23.5q0 -11 -1.5 -27.5t6.5 -25.5h-37q9 9 7 26.5t-2 28.5zM417 255q0 8 -5 13.5t-11 7.5t-11.5 -1t-7.5 -11q-1 -7 -0.5 -14.5t0.5 -13.5q0 -18 -0.5 -36.5t0.5 -36.5q0 -8 4.5 -13t10.5 -7t11.5 0.5t7.5 11.5
q1 6 1 13.5v14.5v72zM521 137q-2 31 -10.5 62.5t-28.5 56.5v-113q0 -7 5.5 -11.5t12.5 -5.5t13.5 1.5t7.5 9.5zM332 656q-14 -3 -25.5 -11.5t-21.5 -18.5q-3 -3 -7.5 -12.5t-7.5 -19t-2 -17t11 -7.5q15 0 24 9.5t15 23t9 28.5zM652 55h26v-109h-26v109zM329 584
q7 2 14.5 9.5t12.5 17t7 19.5t0 17q-3 11 -16 11q-7 -18 -10 -36.5t-8 -37.5zM623 443q10 0 22.5 1t13.5 16q0 8 -3.5 11.5t-9 5t-12 1.5h-11.5v-35zM705 673q-1 4 -2 6.5t-6 0.5q-8 -4 -12.5 -11.5t-6.5 -15.5q-2 -5 0.5 -13.5t10.5 -1.5q6 6 10.5 16t5.5 19zM556 630
q5 -7 12 -3q8 2 11.5 10.5t1.5 16.5q-1 5 -4.5 8t-10.5 -2q-10 -7 -12 -23zM419 -40q0 7 4.5 11t10.5 4t10.5 -4t4.5 -11q0 -8 -4.5 -11.5t-10.5 -3.5t-10.5 3.5t-4.5 11.5zM692 -40q0 7 4.5 11t10.5 4t10.5 -4t4.5 -11q0 -8 -4.5 -11.5t-10.5 -3.5t-10.5 3.5t-4.5 11.5z
M593 7q9 0 13 5t3 11t-5.5 10.5t-13.5 3.5q-5 -1 -4 -13t1 -17h6zM513 -10q-2 11 -4.5 22.5t-5.5 22.5l-10 -45h20zM507 638q-3 -4 -7 -11t-3 -12q2 -6 8 -5t7 7q1 9 -5 21zM390 602q6 -1 14 7.5t9 13.5q2 4 -1 6t-6 -1q-5 -5 -9 -12t-7 -14zM774 727q-18 -18 -24 -42
q8 10 15.5 19.5t9.5 22.5h-1zM453 659q0 4 0.5 6.5t-0.5 6.5q-3 0 -4 -3q-1 -4 2 -10h2z" />
    <glyph glyph-name="six" unicode="6" horiz-adv-x="1028" 
d="M87 517q34 18 67 33t71 26q2 0 4 10t4 22t4 23.5t4 15.5q11 17 33 26t38 17q43 17 87.5 30t89.5 25q46 11 92 19t93 12q16 2 39 4t46.5 1.5t45 -6t34.5 -18.5q1 -2 -1 -14t-3 -16l-3 -48q0 -2 2 -2q38 -11 74.5 -28.5t60.5 -50.5v-1q-8 2 -18 -1.5t-20 -10t-18.5 -13.5
t-13.5 -13q15 -8 24.5 -23t13.5 -32.5t3 -35.5t-6 -33q-8 21 -24.5 32.5t-36.5 17t-41.5 7t-40.5 2.5q-22 2 -46 1t-45 7q-8 3 -11 12.5t-3.5 21t1 22.5t2.5 18q-90 -7 -177.5 -27.5t-171.5 -49.5q-4 -1 -4 -3q1 -5 4 -16.5t5 -24.5t3 -24t-3 -14q-11 -9 -28.5 -10.5
t-31.5 -3.5q-19 -3 -38.5 -6t-38.5 -6q-17 -4 -32.5 -8.5t-30.5 -10.5q-7 -4 -14 -6.5t-14 -7.5q-4 -4 -9 -10t-8 -8q5 17 12 33t13 31q1 3 6.5 12.5t10.5 20t9 19t3 10.5q-12 17 -28.5 33t-38.5 18zM817 577q3 27 3 55t2 54q0 14 1 28t3 28q1 7 -3 11t-10 6.5t-13 3.5
t-13 2q-58 9 -120 0.5t-120 -20.5q-63 -13 -124.5 -29.5t-121.5 -42.5q-11 -6 -22.5 -12t-21.5 -14t-12 -24t-4 -27q-4 -32 -4 -64.5v-65.5q4 0 11 3t14 7.5t13.5 9t11.5 6.5q18 8 36.5 14.5t37.5 13.5q38 11 76 21t78 19q38 8 75.5 15.5t76.5 10.5q35 4 75.5 5.5
t74.5 -14.5zM730 639q-5 -4 -8 -7.5t-9 -5.5q-5 -2 -8 0l-6 4q-2 -2 -6 -4t-8 -3q-15 -3 -21 10v1q-4 -5 -8.5 -8.5t-11.5 -5.5q-7 -4 -12 6q-3 6 -1.5 11.5t4 10.5t4.5 10.5t1 11.5q-9 -4 -12.5 -9.5t-5.5 -12.5t-3 -14t-4 -14q-3 -8 -12 -4q-4 1 -4 5q0 2 0.5 4.5t0.5 3.5
q-7 -2 -9.5 -2t-7.5 -5t-12 -9t-15 -4q-5 1 -8 4t-5 7q-8 -8 -19.5 -16t-24.5 -6q-8 1 -12 9q-12 -14 -25 -18q-14 -6 -16 10q-2 13 4 21.5t11 18.5q1 2 -1.5 2.5t-3.5 -1.5q-4 -10 -9 -21.5t-12.5 -22t-17.5 -17t-23 -5.5q-15 1 -17.5 11t3 22.5t15.5 22.5t21 11q6 0 8 -5
q4 -6 1 -14q-3 -11 -13.5 -19.5t-21.5 -10.5q1 -6 5 -6.5t8.5 1.5t8.5 5t6 5q12 10 17.5 22.5t10.5 25.5q1 1 -0.5 4.5t-4 7.5t-4 8.5t-0.5 7.5q5 13 17 11q6 0 8 -6q2 -5 1 -11t-1 -12q10 1 14 -0.5t-2 -13.5q-4 -8 -8.5 -16.5t-5.5 -17.5q0 -5 3 -5q10 0 17 10t12.5 22.5
l11 25t12.5 16.5q4 1 8 -1q1 -2 1 -6q-2 -6 -5 -10.5t-1 -11.5q3 -6 6.5 -12.5t2.5 -13.5h1q10 12 16 29.5t22 25.5q18 7 24 -10q5 -7 3 -12.5t-1 -13.5q4 1 7 5q8 6 9 17t4 20q2 2 5.5 2.5t5.5 -0.5q5 -1 4 -6v-1q5 5 12 8q5 3 8.5 1t5.5 -7q2 -6 0.5 -11t-4 -10.5l-5 -11
t-1.5 -11.5q7 6 12 13t9 14.5t8.5 14t12.5 11.5q10 5 25 0q2 3 8.5 4t4.5 -7q-2 -9 -7 -19t-5 -20q0 -7 4 -1q10 10 15 23.5t9.5 27t11.5 26t21 20.5q7 4 12 -4q6 -11 2 -23.5t-12 -20.5q-7 -9 -21 -21.5t-12 -25.5q2 -8 11 -6q7 3 10.5 9.5t7.5 12.5q2 1 6 1t4 -5l-2 -6
q-8 -19 -26 -26q-12 -7 -21 7q-2 2 -2 5zM948 605q-24 23 -54 37.5t-62 22.5q-1 -28 -1.5 -55t-2.5 -55l-1 1v-3q-13 -1 -31.5 -2t-36.5 -4.5t-33.5 -10.5t-23.5 -19q-4 -3 2 -4q13 -5 28 -6.5t30.5 -1.5h30.5t29 -1t28 -2.5t28 -6.5q14 -4 25 -11.5t24 -13.5q0 30 -10.5 52
t-39.5 33q17 15 34 28.5t37 21.5zM226 565q-29 -8 -57 -19.5t-55 -25.5q33 -18 53 -53q1 -1 -2 -7.5t-7 -14t-7.5 -14t-4.5 -9.5q-12 -22 -20 -46q25 13 51 19t53 10t53.5 7.5t52.5 11.5q-9 9 -23 12.5t-30 4t-32 -1t-27 -2.5v64t2 64zM455 286q0 5 -4 11h28q14 -6 25 -24.5
t17 -32.5q0 12 1 29t-6 28h36q-6 -5 -5.5 -12t0.5 -14v-120q0 -7 -0.5 -15.5t5.5 -13.5h-101q5 7 6.5 17t1 21.5t-2 22.5t-1.5 19v84zM404 297q18 0 26.5 -10t11.5 -24.5t2 -31t-1 -29.5v-39q0 -23 -13 -32.5t-35 -8.5q-19 0 -27.5 10t-11.5 24.5t-2 31t1 29.5q0 10 -0.5 19
t0.5 19q0 24 13 33t36 9zM351 671q6 0 10 -1q8 -1 13.5 -7.5t6.5 -15.5q3 -21 -11.5 -40.5t-32.5 -30.5q-9 -6 -13.5 -15.5l-9 -19t-10 -18.5t-16.5 -14q-11 -8 -26 -5q-6 2 -10 7t-3 12q0 11 7.5 18.5t17.5 9.5q3 1 7.5 -1t2.5 -7q-6 -4 -11 -4q-6 -2 -8 -8t1 -11
q2 -2 4 -2.5t4 -1.5q10 -1 16.5 5.5t11 16.5t6.5 20t4 17q-13 -13 -30 -17q-13 -2 -21 6q-8 4 -8 18q0 13 6 25q13 30 42 48q6 3 12.5 6t13.5 5q5 2 10.5 6t10.5 5q6 0 3 -6zM454 414q-2 7 -5 18.5t-4 23.5t1 22.5t10 16.5q5 5 15.5 5t14.5 -8q3 -8 -1 -10.5t-9 -2t-8.5 4
t0.5 7.5q-8 -4 -8.5 -14t3 -21.5t8.5 -22.5t7 -17q6 -18 8.5 -42.5t-10.5 -41.5q-5 -7 -16.5 -9.5t-24.5 -2.5t-26 1.5t-20 1.5q6 7 7.5 18t1 23.5t-2 24t-1.5 20.5v61q0 8 0.5 15t-5.5 14h37q-7 -6 -6 -16t1 -18v-69q0 -8 -1 -24t5 -23q7 -11 18.5 -4t13.5 16
q4 13 1.5 26.5t-4.5 26.5zM660 437q-2 -4 -7.5 -14.5t-10 -22t-5.5 -22t5 -13.5q-3 6 2 6.5t10.5 -2t7 -7t-8.5 -8.5q-12 -5 -17 4.5t-4 17.5q0 8 3 16t4 15t-2 11t-14 3v-76q8 0 20.5 -1.5t21.5 5.5q-3 -7 -4 -13t-3 -13h-68q5 6 5.5 12.5t0.5 13.5v121q0 7 -0.5 15
t-5.5 14h62q12 -12 12.5 -29t-4.5 -33zM572 494q0 -7 3.5 -14.5t6.5 -15t2.5 -14.5t-7.5 -13q-7 -5 -16.5 -4.5t-10.5 10.5q0 6 3.5 8.5t7.5 2.5t7 -2.5t2 -6.5q7 1 7 6t-4 10.5t-9 10t-9 5.5q-7 2 -16 0.5t-12 -9.5q-6 -12 -2 -21t12 -16t18 -13.5t16 -13.5q7 -10 11 -23
t2 -25.5t-10 -21.5t-23 -11q-13 -1 -26 -0.5t-27 0.5q4 2 2.5 9.5t-4 16.5t-4 18.5t3.5 15.5t16 6.5t13 -10.5q0 -5 -3.5 -7.5t-7.5 -2.5t-7 2t-3 7q-6 -2 -6 -7t3.5 -10t8.5 -9.5t8 -5.5q7 -2 17 -2t15 5q10 10 8 20t-9.5 18.5t-17.5 15.5t-15 12q-9 8 -15 20.5t-6 25.5
t6.5 23.5t21.5 13.5q13 3 26.5 2t25.5 -1zM216 55l-21 -109h-21q-3 18 -5.5 36t-4.5 36q-2 -18 -5.5 -36t-6.5 -36h-21l-19 109h23q2 -20 3.5 -40.5t5.5 -40.5q2 20 5 40.5t7 40.5h18l12 -81q2 20 4.5 40.5t4.5 40.5h21zM322 55l-21 -109h-20q-4 18 -6.5 36t-4.5 36
q-2 -18 -5 -36l-6 -36h-22l-18 109h22q2 -20 4 -40.5t5 -40.5q2 20 5 40.5t7 40.5h19l11 -81q2 20 4.5 40.5t4.5 40.5h21zM428 55l-20 -109h-21q-4 18 -6 36t-5 36q-2 -18 -5 -36l-6 -36h-21l-19 109h22q2 -20 4.5 -40.5t4.5 -40.5q2 20 5 40.5t7 40.5h19l12 -81
q1 20 3.5 40.5t5.5 40.5h20zM616 -2q7 -3 10.5 -9.5t5 -14t2.5 -15t4 -13.5h-25q-3 6 -4 13.5t-3 14t-6 11t-13 3.5v-42h-26v108q14 2 31.5 3t30.5 -7q15 -11 11 -28t-18 -24zM818 -54h-25q-10 19 -18 38.5t-17 37.5q1 -19 1 -38v-38h-23v109h28l33 -74q-2 19 -2 37.5v36.5
h23v-109zM557 122q6 7 7.5 18t1 23t-2 23.5t-1.5 19.5v62q0 8 0.5 14.5t-5.5 14.5h37q-5 -5 -6.5 -15t-1 -20.5t1.5 -21t1 -17.5v-81h51q11 0 27 -1.5t27 6.5q-2 -4 -3.5 -14.5t-6.5 -10.5h-127zM548 -54h-25l-7 25h-26l-5 -25h-26l29 109h31zM918 -50q-20 -8 -38.5 -4.5
t-30.5 14.5t-16 29t7 39q6 14 19.5 21t30.5 7h5t8.5 -1t8 -2t3.5 -2l-4 -20q-13 6 -23.5 4t-18 -9t-10 -18t1.5 -23q8 -23 30 -20q5 1 4 10.5t-1 13.5h-13v20h37v-59zM643 210q-6 11 -10.5 22.5t-8.5 22.5q-5 11 -7 22.5t-11 19.5h38q-6 -14 1 -32t13 -30q6 14 11 30.5
t0 31.5h39q-11 -6 -13 -19t-5 -23t-11.5 -23.5t-8.5 -23.5q0 -11 -1.5 -27.5t6.5 -25.5h-37q9 9 7 26.5t-2 28.5zM417 255q0 8 -5 13.5t-11 7.5t-11.5 -1t-7.5 -11q-1 -7 -0.5 -14.5t0.5 -13.5q0 -18 -0.5 -36.5t0.5 -36.5q0 -8 4.5 -13t10.5 -7t11.5 0.5t7.5 11.5
q1 6 1 13.5v14.5v72zM521 137q-2 31 -10.5 62.5t-28.5 56.5v-113q0 -7 5.5 -11.5t12.5 -5.5t13.5 1.5t7.5 9.5zM332 656q-14 -3 -25.5 -11.5t-21.5 -18.5q-3 -3 -7.5 -12.5t-7.5 -19t-2 -17t11 -7.5q15 0 24 9.5t15 23t9 28.5zM652 55h26v-109h-26v109zM329 584
q7 2 14.5 9.5t12.5 17t7 19.5t0 17q-3 11 -16 11q-7 -18 -10 -36.5t-8 -37.5zM623 443q10 0 22.5 1t13.5 16q0 8 -3.5 11.5t-9 5t-12 1.5h-11.5v-35zM705 673q-1 4 -2 6.5t-6 0.5q-8 -4 -12.5 -11.5t-6.5 -15.5q-2 -5 0.5 -13.5t10.5 -1.5q6 6 10.5 16t5.5 19zM556 630
q5 -7 12 -3q8 2 11.5 10.5t1.5 16.5q-1 5 -4.5 8t-10.5 -2q-10 -7 -12 -23zM419 -40q0 7 4.5 11t10.5 4t10.5 -4t4.5 -11q0 -8 -4.5 -11.5t-10.5 -3.5t-10.5 3.5t-4.5 11.5zM692 -40q0 7 4.5 11t10.5 4t10.5 -4t4.5 -11q0 -8 -4.5 -11.5t-10.5 -3.5t-10.5 3.5t-4.5 11.5z
M593 7q9 0 13 5t3 11t-5.5 10.5t-13.5 3.5q-5 -1 -4 -13t1 -17h6zM513 -10q-2 11 -4.5 22.5t-5.5 22.5l-10 -45h20zM507 638q-3 -4 -7 -11t-3 -12q2 -6 8 -5t7 7q1 9 -5 21zM390 602q6 -1 14 7.5t9 13.5q2 4 -1 6t-6 -1q-5 -5 -9 -12t-7 -14zM774 727q-18 -18 -24 -42
q8 10 15.5 19.5t9.5 22.5h-1zM453 659q0 4 0.5 6.5t-0.5 6.5q-3 0 -4 -3q-1 -4 2 -10h2z" />
    <glyph glyph-name="seven" unicode="7" horiz-adv-x="1028" 
d="M87 517q34 18 67 33t71 26q2 0 4 10t4 22t4 23.5t4 15.5q11 17 33 26t38 17q43 17 87.5 30t89.5 25q46 11 92 19t93 12q16 2 39 4t46.5 1.5t45 -6t34.5 -18.5q1 -2 -1 -14t-3 -16l-3 -48q0 -2 2 -2q38 -11 74.5 -28.5t60.5 -50.5v-1q-8 2 -18 -1.5t-20 -10t-18.5 -13.5
t-13.5 -13q15 -8 24.5 -23t13.5 -32.5t3 -35.5t-6 -33q-8 21 -24.5 32.5t-36.5 17t-41.5 7t-40.5 2.5q-22 2 -46 1t-45 7q-8 3 -11 12.5t-3.5 21t1 22.5t2.5 18q-90 -7 -177.5 -27.5t-171.5 -49.5q-4 -1 -4 -3q1 -5 4 -16.5t5 -24.5t3 -24t-3 -14q-11 -9 -28.5 -10.5
t-31.5 -3.5q-19 -3 -38.5 -6t-38.5 -6q-17 -4 -32.5 -8.5t-30.5 -10.5q-7 -4 -14 -6.5t-14 -7.5q-4 -4 -9 -10t-8 -8q5 17 12 33t13 31q1 3 6.5 12.5t10.5 20t9 19t3 10.5q-12 17 -28.5 33t-38.5 18zM817 577q3 27 3 55t2 54q0 14 1 28t3 28q1 7 -3 11t-10 6.5t-13 3.5
t-13 2q-58 9 -120 0.5t-120 -20.5q-63 -13 -124.5 -29.5t-121.5 -42.5q-11 -6 -22.5 -12t-21.5 -14t-12 -24t-4 -27q-4 -32 -4 -64.5v-65.5q4 0 11 3t14 7.5t13.5 9t11.5 6.5q18 8 36.5 14.5t37.5 13.5q38 11 76 21t78 19q38 8 75.5 15.5t76.5 10.5q35 4 75.5 5.5
t74.5 -14.5zM730 639q-5 -4 -8 -7.5t-9 -5.5q-5 -2 -8 0l-6 4q-2 -2 -6 -4t-8 -3q-15 -3 -21 10v1q-4 -5 -8.5 -8.5t-11.5 -5.5q-7 -4 -12 6q-3 6 -1.5 11.5t4 10.5t4.5 10.5t1 11.5q-9 -4 -12.5 -9.5t-5.5 -12.5t-3 -14t-4 -14q-3 -8 -12 -4q-4 1 -4 5q0 2 0.5 4.5t0.5 3.5
q-7 -2 -9.5 -2t-7.5 -5t-12 -9t-15 -4q-5 1 -8 4t-5 7q-8 -8 -19.5 -16t-24.5 -6q-8 1 -12 9q-12 -14 -25 -18q-14 -6 -16 10q-2 13 4 21.5t11 18.5q1 2 -1.5 2.5t-3.5 -1.5q-4 -10 -9 -21.5t-12.5 -22t-17.5 -17t-23 -5.5q-15 1 -17.5 11t3 22.5t15.5 22.5t21 11q6 0 8 -5
q4 -6 1 -14q-3 -11 -13.5 -19.5t-21.5 -10.5q1 -6 5 -6.5t8.5 1.5t8.5 5t6 5q12 10 17.5 22.5t10.5 25.5q1 1 -0.5 4.5t-4 7.5t-4 8.5t-0.5 7.5q5 13 17 11q6 0 8 -6q2 -5 1 -11t-1 -12q10 1 14 -0.5t-2 -13.5q-4 -8 -8.5 -16.5t-5.5 -17.5q0 -5 3 -5q10 0 17 10t12.5 22.5
l11 25t12.5 16.5q4 1 8 -1q1 -2 1 -6q-2 -6 -5 -10.5t-1 -11.5q3 -6 6.5 -12.5t2.5 -13.5h1q10 12 16 29.5t22 25.5q18 7 24 -10q5 -7 3 -12.5t-1 -13.5q4 1 7 5q8 6 9 17t4 20q2 2 5.5 2.5t5.5 -0.5q5 -1 4 -6v-1q5 5 12 8q5 3 8.5 1t5.5 -7q2 -6 0.5 -11t-4 -10.5l-5 -11
t-1.5 -11.5q7 6 12 13t9 14.5t8.5 14t12.5 11.5q10 5 25 0q2 3 8.5 4t4.5 -7q-2 -9 -7 -19t-5 -20q0 -7 4 -1q10 10 15 23.5t9.5 27t11.5 26t21 20.5q7 4 12 -4q6 -11 2 -23.5t-12 -20.5q-7 -9 -21 -21.5t-12 -25.5q2 -8 11 -6q7 3 10.5 9.5t7.5 12.5q2 1 6 1t4 -5l-2 -6
q-8 -19 -26 -26q-12 -7 -21 7q-2 2 -2 5zM948 605q-24 23 -54 37.5t-62 22.5q-1 -28 -1.5 -55t-2.5 -55l-1 1v-3q-13 -1 -31.5 -2t-36.5 -4.5t-33.5 -10.5t-23.5 -19q-4 -3 2 -4q13 -5 28 -6.5t30.5 -1.5h30.5t29 -1t28 -2.5t28 -6.5q14 -4 25 -11.5t24 -13.5q0 30 -10.5 52
t-39.5 33q17 15 34 28.5t37 21.5zM226 565q-29 -8 -57 -19.5t-55 -25.5q33 -18 53 -53q1 -1 -2 -7.5t-7 -14t-7.5 -14t-4.5 -9.5q-12 -22 -20 -46q25 13 51 19t53 10t53.5 7.5t52.5 11.5q-9 9 -23 12.5t-30 4t-32 -1t-27 -2.5v64t2 64zM455 286q0 5 -4 11h28q14 -6 25 -24.5
t17 -32.5q0 12 1 29t-6 28h36q-6 -5 -5.5 -12t0.5 -14v-120q0 -7 -0.5 -15.5t5.5 -13.5h-101q5 7 6.5 17t1 21.5t-2 22.5t-1.5 19v84zM404 297q18 0 26.5 -10t11.5 -24.5t2 -31t-1 -29.5v-39q0 -23 -13 -32.5t-35 -8.5q-19 0 -27.5 10t-11.5 24.5t-2 31t1 29.5q0 10 -0.5 19
t0.5 19q0 24 13 33t36 9zM351 671q6 0 10 -1q8 -1 13.5 -7.5t6.5 -15.5q3 -21 -11.5 -40.5t-32.5 -30.5q-9 -6 -13.5 -15.5l-9 -19t-10 -18.5t-16.5 -14q-11 -8 -26 -5q-6 2 -10 7t-3 12q0 11 7.5 18.5t17.5 9.5q3 1 7.5 -1t2.5 -7q-6 -4 -11 -4q-6 -2 -8 -8t1 -11
q2 -2 4 -2.5t4 -1.5q10 -1 16.5 5.5t11 16.5t6.5 20t4 17q-13 -13 -30 -17q-13 -2 -21 6q-8 4 -8 18q0 13 6 25q13 30 42 48q6 3 12.5 6t13.5 5q5 2 10.5 6t10.5 5q6 0 3 -6zM454 414q-2 7 -5 18.5t-4 23.5t1 22.5t10 16.5q5 5 15.5 5t14.5 -8q3 -8 -1 -10.5t-9 -2t-8.5 4
t0.5 7.5q-8 -4 -8.5 -14t3 -21.5t8.5 -22.5t7 -17q6 -18 8.5 -42.5t-10.5 -41.5q-5 -7 -16.5 -9.5t-24.5 -2.5t-26 1.5t-20 1.5q6 7 7.5 18t1 23.5t-2 24t-1.5 20.5v61q0 8 0.5 15t-5.5 14h37q-7 -6 -6 -16t1 -18v-69q0 -8 -1 -24t5 -23q7 -11 18.5 -4t13.5 16
q4 13 1.5 26.5t-4.5 26.5zM660 437q-2 -4 -7.5 -14.5t-10 -22t-5.5 -22t5 -13.5q-3 6 2 6.5t10.5 -2t7 -7t-8.5 -8.5q-12 -5 -17 4.5t-4 17.5q0 8 3 16t4 15t-2 11t-14 3v-76q8 0 20.5 -1.5t21.5 5.5q-3 -7 -4 -13t-3 -13h-68q5 6 5.5 12.5t0.5 13.5v121q0 7 -0.5 15
t-5.5 14h62q12 -12 12.5 -29t-4.5 -33zM572 494q0 -7 3.5 -14.5t6.5 -15t2.5 -14.5t-7.5 -13q-7 -5 -16.5 -4.5t-10.5 10.5q0 6 3.5 8.5t7.5 2.5t7 -2.5t2 -6.5q7 1 7 6t-4 10.5t-9 10t-9 5.5q-7 2 -16 0.5t-12 -9.5q-6 -12 -2 -21t12 -16t18 -13.5t16 -13.5q7 -10 11 -23
t2 -25.5t-10 -21.5t-23 -11q-13 -1 -26 -0.5t-27 0.5q4 2 2.5 9.5t-4 16.5t-4 18.5t3.5 15.5t16 6.5t13 -10.5q0 -5 -3.5 -7.5t-7.5 -2.5t-7 2t-3 7q-6 -2 -6 -7t3.5 -10t8.5 -9.5t8 -5.5q7 -2 17 -2t15 5q10 10 8 20t-9.5 18.5t-17.5 15.5t-15 12q-9 8 -15 20.5t-6 25.5
t6.5 23.5t21.5 13.5q13 3 26.5 2t25.5 -1zM216 55l-21 -109h-21q-3 18 -5.5 36t-4.5 36q-2 -18 -5.5 -36t-6.5 -36h-21l-19 109h23q2 -20 3.5 -40.5t5.5 -40.5q2 20 5 40.5t7 40.5h18l12 -81q2 20 4.5 40.5t4.5 40.5h21zM322 55l-21 -109h-20q-4 18 -6.5 36t-4.5 36
q-2 -18 -5 -36l-6 -36h-22l-18 109h22q2 -20 4 -40.5t5 -40.5q2 20 5 40.5t7 40.5h19l11 -81q2 20 4.5 40.5t4.5 40.5h21zM428 55l-20 -109h-21q-4 18 -6 36t-5 36q-2 -18 -5 -36l-6 -36h-21l-19 109h22q2 -20 4.5 -40.5t4.5 -40.5q2 20 5 40.5t7 40.5h19l12 -81
q1 20 3.5 40.5t5.5 40.5h20zM616 -2q7 -3 10.5 -9.5t5 -14t2.5 -15t4 -13.5h-25q-3 6 -4 13.5t-3 14t-6 11t-13 3.5v-42h-26v108q14 2 31.5 3t30.5 -7q15 -11 11 -28t-18 -24zM818 -54h-25q-10 19 -18 38.5t-17 37.5q1 -19 1 -38v-38h-23v109h28l33 -74q-2 19 -2 37.5v36.5
h23v-109zM557 122q6 7 7.5 18t1 23t-2 23.5t-1.5 19.5v62q0 8 0.5 14.5t-5.5 14.5h37q-5 -5 -6.5 -15t-1 -20.5t1.5 -21t1 -17.5v-81h51q11 0 27 -1.5t27 6.5q-2 -4 -3.5 -14.5t-6.5 -10.5h-127zM548 -54h-25l-7 25h-26l-5 -25h-26l29 109h31zM918 -50q-20 -8 -38.5 -4.5
t-30.5 14.5t-16 29t7 39q6 14 19.5 21t30.5 7h5t8.5 -1t8 -2t3.5 -2l-4 -20q-13 6 -23.5 4t-18 -9t-10 -18t1.5 -23q8 -23 30 -20q5 1 4 10.5t-1 13.5h-13v20h37v-59zM643 210q-6 11 -10.5 22.5t-8.5 22.5q-5 11 -7 22.5t-11 19.5h38q-6 -14 1 -32t13 -30q6 14 11 30.5
t0 31.5h39q-11 -6 -13 -19t-5 -23t-11.5 -23.5t-8.5 -23.5q0 -11 -1.5 -27.5t6.5 -25.5h-37q9 9 7 26.5t-2 28.5zM417 255q0 8 -5 13.5t-11 7.5t-11.5 -1t-7.5 -11q-1 -7 -0.5 -14.5t0.5 -13.5q0 -18 -0.5 -36.5t0.5 -36.5q0 -8 4.5 -13t10.5 -7t11.5 0.5t7.5 11.5
q1 6 1 13.5v14.5v72zM521 137q-2 31 -10.5 62.5t-28.5 56.5v-113q0 -7 5.5 -11.5t12.5 -5.5t13.5 1.5t7.5 9.5zM332 656q-14 -3 -25.5 -11.5t-21.5 -18.5q-3 -3 -7.5 -12.5t-7.5 -19t-2 -17t11 -7.5q15 0 24 9.5t15 23t9 28.5zM652 55h26v-109h-26v109zM329 584
q7 2 14.5 9.5t12.5 17t7 19.5t0 17q-3 11 -16 11q-7 -18 -10 -36.5t-8 -37.5zM623 443q10 0 22.5 1t13.5 16q0 8 -3.5 11.5t-9 5t-12 1.5h-11.5v-35zM705 673q-1 4 -2 6.5t-6 0.5q-8 -4 -12.5 -11.5t-6.5 -15.5q-2 -5 0.5 -13.5t10.5 -1.5q6 6 10.5 16t5.5 19zM556 630
q5 -7 12 -3q8 2 11.5 10.5t1.5 16.5q-1 5 -4.5 8t-10.5 -2q-10 -7 -12 -23zM419 -40q0 7 4.5 11t10.5 4t10.5 -4t4.5 -11q0 -8 -4.5 -11.5t-10.5 -3.5t-10.5 3.5t-4.5 11.5zM692 -40q0 7 4.5 11t10.5 4t10.5 -4t4.5 -11q0 -8 -4.5 -11.5t-10.5 -3.5t-10.5 3.5t-4.5 11.5z
M593 7q9 0 13 5t3 11t-5.5 10.5t-13.5 3.5q-5 -1 -4 -13t1 -17h6zM513 -10q-2 11 -4.5 22.5t-5.5 22.5l-10 -45h20zM507 638q-3 -4 -7 -11t-3 -12q2 -6 8 -5t7 7q1 9 -5 21zM390 602q6 -1 14 7.5t9 13.5q2 4 -1 6t-6 -1q-5 -5 -9 -12t-7 -14zM774 727q-18 -18 -24 -42
q8 10 15.5 19.5t9.5 22.5h-1zM453 659q0 4 0.5 6.5t-0.5 6.5q-3 0 -4 -3q-1 -4 2 -10h2z" />
    <glyph glyph-name="eight" unicode="8" horiz-adv-x="1028" 
d="M87 517q34 18 67 33t71 26q2 0 4 10t4 22t4 23.5t4 15.5q11 17 33 26t38 17q43 17 87.5 30t89.5 25q46 11 92 19t93 12q16 2 39 4t46.5 1.5t45 -6t34.5 -18.5q1 -2 -1 -14t-3 -16l-3 -48q0 -2 2 -2q38 -11 74.5 -28.5t60.5 -50.5v-1q-8 2 -18 -1.5t-20 -10t-18.5 -13.5
t-13.5 -13q15 -8 24.5 -23t13.5 -32.5t3 -35.5t-6 -33q-8 21 -24.5 32.5t-36.5 17t-41.5 7t-40.5 2.5q-22 2 -46 1t-45 7q-8 3 -11 12.5t-3.5 21t1 22.5t2.5 18q-90 -7 -177.5 -27.5t-171.5 -49.5q-4 -1 -4 -3q1 -5 4 -16.5t5 -24.5t3 -24t-3 -14q-11 -9 -28.5 -10.5
t-31.5 -3.5q-19 -3 -38.5 -6t-38.5 -6q-17 -4 -32.5 -8.5t-30.5 -10.5q-7 -4 -14 -6.5t-14 -7.5q-4 -4 -9 -10t-8 -8q5 17 12 33t13 31q1 3 6.5 12.5t10.5 20t9 19t3 10.5q-12 17 -28.5 33t-38.5 18zM817 577q3 27 3 55t2 54q0 14 1 28t3 28q1 7 -3 11t-10 6.5t-13 3.5
t-13 2q-58 9 -120 0.5t-120 -20.5q-63 -13 -124.5 -29.5t-121.5 -42.5q-11 -6 -22.5 -12t-21.5 -14t-12 -24t-4 -27q-4 -32 -4 -64.5v-65.5q4 0 11 3t14 7.5t13.5 9t11.5 6.5q18 8 36.5 14.5t37.5 13.5q38 11 76 21t78 19q38 8 75.5 15.5t76.5 10.5q35 4 75.5 5.5
t74.5 -14.5zM730 639q-5 -4 -8 -7.5t-9 -5.5q-5 -2 -8 0l-6 4q-2 -2 -6 -4t-8 -3q-15 -3 -21 10v1q-4 -5 -8.5 -8.5t-11.5 -5.5q-7 -4 -12 6q-3 6 -1.5 11.5t4 10.5t4.5 10.5t1 11.5q-9 -4 -12.5 -9.5t-5.5 -12.5t-3 -14t-4 -14q-3 -8 -12 -4q-4 1 -4 5q0 2 0.5 4.5t0.5 3.5
q-7 -2 -9.5 -2t-7.5 -5t-12 -9t-15 -4q-5 1 -8 4t-5 7q-8 -8 -19.5 -16t-24.5 -6q-8 1 -12 9q-12 -14 -25 -18q-14 -6 -16 10q-2 13 4 21.5t11 18.5q1 2 -1.5 2.5t-3.5 -1.5q-4 -10 -9 -21.5t-12.5 -22t-17.5 -17t-23 -5.5q-15 1 -17.5 11t3 22.5t15.5 22.5t21 11q6 0 8 -5
q4 -6 1 -14q-3 -11 -13.5 -19.5t-21.5 -10.5q1 -6 5 -6.5t8.5 1.5t8.5 5t6 5q12 10 17.5 22.5t10.5 25.5q1 1 -0.5 4.5t-4 7.5t-4 8.5t-0.5 7.5q5 13 17 11q6 0 8 -6q2 -5 1 -11t-1 -12q10 1 14 -0.5t-2 -13.5q-4 -8 -8.5 -16.5t-5.5 -17.5q0 -5 3 -5q10 0 17 10t12.5 22.5
l11 25t12.5 16.5q4 1 8 -1q1 -2 1 -6q-2 -6 -5 -10.5t-1 -11.5q3 -6 6.5 -12.5t2.5 -13.5h1q10 12 16 29.5t22 25.5q18 7 24 -10q5 -7 3 -12.5t-1 -13.5q4 1 7 5q8 6 9 17t4 20q2 2 5.5 2.5t5.5 -0.5q5 -1 4 -6v-1q5 5 12 8q5 3 8.5 1t5.5 -7q2 -6 0.5 -11t-4 -10.5l-5 -11
t-1.5 -11.5q7 6 12 13t9 14.5t8.5 14t12.5 11.5q10 5 25 0q2 3 8.5 4t4.5 -7q-2 -9 -7 -19t-5 -20q0 -7 4 -1q10 10 15 23.5t9.5 27t11.5 26t21 20.5q7 4 12 -4q6 -11 2 -23.5t-12 -20.5q-7 -9 -21 -21.5t-12 -25.5q2 -8 11 -6q7 3 10.5 9.5t7.5 12.5q2 1 6 1t4 -5l-2 -6
q-8 -19 -26 -26q-12 -7 -21 7q-2 2 -2 5zM948 605q-24 23 -54 37.5t-62 22.5q-1 -28 -1.5 -55t-2.5 -55l-1 1v-3q-13 -1 -31.5 -2t-36.5 -4.5t-33.5 -10.5t-23.5 -19q-4 -3 2 -4q13 -5 28 -6.5t30.5 -1.5h30.5t29 -1t28 -2.5t28 -6.5q14 -4 25 -11.5t24 -13.5q0 30 -10.5 52
t-39.5 33q17 15 34 28.5t37 21.5zM226 565q-29 -8 -57 -19.5t-55 -25.5q33 -18 53 -53q1 -1 -2 -7.5t-7 -14t-7.5 -14t-4.5 -9.5q-12 -22 -20 -46q25 13 51 19t53 10t53.5 7.5t52.5 11.5q-9 9 -23 12.5t-30 4t-32 -1t-27 -2.5v64t2 64zM455 286q0 5 -4 11h28q14 -6 25 -24.5
t17 -32.5q0 12 1 29t-6 28h36q-6 -5 -5.5 -12t0.5 -14v-120q0 -7 -0.5 -15.5t5.5 -13.5h-101q5 7 6.5 17t1 21.5t-2 22.5t-1.5 19v84zM404 297q18 0 26.5 -10t11.5 -24.5t2 -31t-1 -29.5v-39q0 -23 -13 -32.5t-35 -8.5q-19 0 -27.5 10t-11.5 24.5t-2 31t1 29.5q0 10 -0.5 19
t0.5 19q0 24 13 33t36 9zM351 671q6 0 10 -1q8 -1 13.5 -7.5t6.5 -15.5q3 -21 -11.5 -40.5t-32.5 -30.5q-9 -6 -13.5 -15.5l-9 -19t-10 -18.5t-16.5 -14q-11 -8 -26 -5q-6 2 -10 7t-3 12q0 11 7.5 18.5t17.5 9.5q3 1 7.5 -1t2.5 -7q-6 -4 -11 -4q-6 -2 -8 -8t1 -11
q2 -2 4 -2.5t4 -1.5q10 -1 16.5 5.5t11 16.5t6.5 20t4 17q-13 -13 -30 -17q-13 -2 -21 6q-8 4 -8 18q0 13 6 25q13 30 42 48q6 3 12.5 6t13.5 5q5 2 10.5 6t10.5 5q6 0 3 -6zM454 414q-2 7 -5 18.5t-4 23.5t1 22.5t10 16.5q5 5 15.5 5t14.5 -8q3 -8 -1 -10.5t-9 -2t-8.5 4
t0.5 7.5q-8 -4 -8.5 -14t3 -21.5t8.5 -22.5t7 -17q6 -18 8.5 -42.5t-10.5 -41.5q-5 -7 -16.5 -9.5t-24.5 -2.5t-26 1.5t-20 1.5q6 7 7.5 18t1 23.5t-2 24t-1.5 20.5v61q0 8 0.5 15t-5.5 14h37q-7 -6 -6 -16t1 -18v-69q0 -8 -1 -24t5 -23q7 -11 18.5 -4t13.5 16
q4 13 1.5 26.5t-4.5 26.5zM660 437q-2 -4 -7.5 -14.5t-10 -22t-5.5 -22t5 -13.5q-3 6 2 6.5t10.5 -2t7 -7t-8.5 -8.5q-12 -5 -17 4.5t-4 17.5q0 8 3 16t4 15t-2 11t-14 3v-76q8 0 20.5 -1.5t21.5 5.5q-3 -7 -4 -13t-3 -13h-68q5 6 5.5 12.5t0.5 13.5v121q0 7 -0.5 15
t-5.5 14h62q12 -12 12.5 -29t-4.5 -33zM572 494q0 -7 3.5 -14.5t6.5 -15t2.5 -14.5t-7.5 -13q-7 -5 -16.5 -4.5t-10.5 10.5q0 6 3.5 8.5t7.5 2.5t7 -2.5t2 -6.5q7 1 7 6t-4 10.5t-9 10t-9 5.5q-7 2 -16 0.5t-12 -9.5q-6 -12 -2 -21t12 -16t18 -13.5t16 -13.5q7 -10 11 -23
t2 -25.5t-10 -21.5t-23 -11q-13 -1 -26 -0.5t-27 0.5q4 2 2.5 9.5t-4 16.5t-4 18.5t3.5 15.5t16 6.5t13 -10.5q0 -5 -3.5 -7.5t-7.5 -2.5t-7 2t-3 7q-6 -2 -6 -7t3.5 -10t8.5 -9.5t8 -5.5q7 -2 17 -2t15 5q10 10 8 20t-9.5 18.5t-17.5 15.5t-15 12q-9 8 -15 20.5t-6 25.5
t6.5 23.5t21.5 13.5q13 3 26.5 2t25.5 -1zM216 55l-21 -109h-21q-3 18 -5.5 36t-4.5 36q-2 -18 -5.5 -36t-6.5 -36h-21l-19 109h23q2 -20 3.5 -40.5t5.5 -40.5q2 20 5 40.5t7 40.5h18l12 -81q2 20 4.5 40.5t4.5 40.5h21zM322 55l-21 -109h-20q-4 18 -6.5 36t-4.5 36
q-2 -18 -5 -36l-6 -36h-22l-18 109h22q2 -20 4 -40.5t5 -40.5q2 20 5 40.5t7 40.5h19l11 -81q2 20 4.5 40.5t4.5 40.5h21zM428 55l-20 -109h-21q-4 18 -6 36t-5 36q-2 -18 -5 -36l-6 -36h-21l-19 109h22q2 -20 4.5 -40.5t4.5 -40.5q2 20 5 40.5t7 40.5h19l12 -81
q1 20 3.5 40.5t5.5 40.5h20zM616 -2q7 -3 10.5 -9.5t5 -14t2.5 -15t4 -13.5h-25q-3 6 -4 13.5t-3 14t-6 11t-13 3.5v-42h-26v108q14 2 31.5 3t30.5 -7q15 -11 11 -28t-18 -24zM818 -54h-25q-10 19 -18 38.5t-17 37.5q1 -19 1 -38v-38h-23v109h28l33 -74q-2 19 -2 37.5v36.5
h23v-109zM557 122q6 7 7.5 18t1 23t-2 23.5t-1.5 19.5v62q0 8 0.5 14.5t-5.5 14.5h37q-5 -5 -6.5 -15t-1 -20.5t1.5 -21t1 -17.5v-81h51q11 0 27 -1.5t27 6.5q-2 -4 -3.5 -14.5t-6.5 -10.5h-127zM548 -54h-25l-7 25h-26l-5 -25h-26l29 109h31zM918 -50q-20 -8 -38.5 -4.5
t-30.5 14.5t-16 29t7 39q6 14 19.5 21t30.5 7h5t8.5 -1t8 -2t3.5 -2l-4 -20q-13 6 -23.5 4t-18 -9t-10 -18t1.5 -23q8 -23 30 -20q5 1 4 10.5t-1 13.5h-13v20h37v-59zM643 210q-6 11 -10.5 22.5t-8.5 22.5q-5 11 -7 22.5t-11 19.5h38q-6 -14 1 -32t13 -30q6 14 11 30.5
t0 31.5h39q-11 -6 -13 -19t-5 -23t-11.5 -23.5t-8.5 -23.5q0 -11 -1.5 -27.5t6.5 -25.5h-37q9 9 7 26.5t-2 28.5zM417 255q0 8 -5 13.5t-11 7.5t-11.5 -1t-7.5 -11q-1 -7 -0.5 -14.5t0.5 -13.5q0 -18 -0.5 -36.5t0.5 -36.5q0 -8 4.5 -13t10.5 -7t11.5 0.5t7.5 11.5
q1 6 1 13.5v14.5v72zM521 137q-2 31 -10.5 62.5t-28.5 56.5v-113q0 -7 5.5 -11.5t12.5 -5.5t13.5 1.5t7.5 9.5zM332 656q-14 -3 -25.5 -11.5t-21.5 -18.5q-3 -3 -7.5 -12.5t-7.5 -19t-2 -17t11 -7.5q15 0 24 9.5t15 23t9 28.5zM652 55h26v-109h-26v109zM329 584
q7 2 14.5 9.5t12.5 17t7 19.5t0 17q-3 11 -16 11q-7 -18 -10 -36.5t-8 -37.5zM623 443q10 0 22.5 1t13.5 16q0 8 -3.5 11.5t-9 5t-12 1.5h-11.5v-35zM705 673q-1 4 -2 6.5t-6 0.5q-8 -4 -12.5 -11.5t-6.5 -15.5q-2 -5 0.5 -13.5t10.5 -1.5q6 6 10.5 16t5.5 19zM556 630
q5 -7 12 -3q8 2 11.5 10.5t1.5 16.5q-1 5 -4.5 8t-10.5 -2q-10 -7 -12 -23zM419 -40q0 7 4.5 11t10.5 4t10.5 -4t4.5 -11q0 -8 -4.5 -11.5t-10.5 -3.5t-10.5 3.5t-4.5 11.5zM692 -40q0 7 4.5 11t10.5 4t10.5 -4t4.5 -11q0 -8 -4.5 -11.5t-10.5 -3.5t-10.5 3.5t-4.5 11.5z
M593 7q9 0 13 5t3 11t-5.5 10.5t-13.5 3.5q-5 -1 -4 -13t1 -17h6zM513 -10q-2 11 -4.5 22.5t-5.5 22.5l-10 -45h20zM507 638q-3 -4 -7 -11t-3 -12q2 -6 8 -5t7 7q1 9 -5 21zM390 602q6 -1 14 7.5t9 13.5q2 4 -1 6t-6 -1q-5 -5 -9 -12t-7 -14zM774 727q-18 -18 -24 -42
q8 10 15.5 19.5t9.5 22.5h-1zM453 659q0 4 0.5 6.5t-0.5 6.5q-3 0 -4 -3q-1 -4 2 -10h2z" />
    <glyph glyph-name="nine" unicode="9" horiz-adv-x="1028" 
d="M87 517q34 18 67 33t71 26q2 0 4 10t4 22t4 23.5t4 15.5q11 17 33 26t38 17q43 17 87.5 30t89.5 25q46 11 92 19t93 12q16 2 39 4t46.5 1.5t45 -6t34.5 -18.5q1 -2 -1 -14t-3 -16l-3 -48q0 -2 2 -2q38 -11 74.5 -28.5t60.5 -50.5v-1q-8 2 -18 -1.5t-20 -10t-18.5 -13.5
t-13.5 -13q15 -8 24.5 -23t13.5 -32.5t3 -35.5t-6 -33q-8 21 -24.5 32.5t-36.5 17t-41.5 7t-40.5 2.5q-22 2 -46 1t-45 7q-8 3 -11 12.5t-3.5 21t1 22.5t2.5 18q-90 -7 -177.5 -27.5t-171.5 -49.5q-4 -1 -4 -3q1 -5 4 -16.5t5 -24.5t3 -24t-3 -14q-11 -9 -28.5 -10.5
t-31.5 -3.5q-19 -3 -38.5 -6t-38.5 -6q-17 -4 -32.5 -8.5t-30.5 -10.5q-7 -4 -14 -6.5t-14 -7.5q-4 -4 -9 -10t-8 -8q5 17 12 33t13 31q1 3 6.5 12.5t10.5 20t9 19t3 10.5q-12 17 -28.5 33t-38.5 18zM817 577q3 27 3 55t2 54q0 14 1 28t3 28q1 7 -3 11t-10 6.5t-13 3.5
t-13 2q-58 9 -120 0.5t-120 -20.5q-63 -13 -124.5 -29.5t-121.5 -42.5q-11 -6 -22.5 -12t-21.5 -14t-12 -24t-4 -27q-4 -32 -4 -64.5v-65.5q4 0 11 3t14 7.5t13.5 9t11.5 6.5q18 8 36.5 14.5t37.5 13.5q38 11 76 21t78 19q38 8 75.5 15.5t76.5 10.5q35 4 75.5 5.5
t74.5 -14.5zM730 639q-5 -4 -8 -7.5t-9 -5.5q-5 -2 -8 0l-6 4q-2 -2 -6 -4t-8 -3q-15 -3 -21 10v1q-4 -5 -8.5 -8.5t-11.5 -5.5q-7 -4 -12 6q-3 6 -1.5 11.5t4 10.5t4.5 10.5t1 11.5q-9 -4 -12.5 -9.5t-5.5 -12.5t-3 -14t-4 -14q-3 -8 -12 -4q-4 1 -4 5q0 2 0.5 4.5t0.5 3.5
q-7 -2 -9.5 -2t-7.5 -5t-12 -9t-15 -4q-5 1 -8 4t-5 7q-8 -8 -19.5 -16t-24.5 -6q-8 1 -12 9q-12 -14 -25 -18q-14 -6 -16 10q-2 13 4 21.5t11 18.5q1 2 -1.5 2.5t-3.5 -1.5q-4 -10 -9 -21.5t-12.5 -22t-17.5 -17t-23 -5.5q-15 1 -17.5 11t3 22.5t15.5 22.5t21 11q6 0 8 -5
q4 -6 1 -14q-3 -11 -13.5 -19.5t-21.5 -10.5q1 -6 5 -6.5t8.5 1.5t8.5 5t6 5q12 10 17.5 22.5t10.5 25.5q1 1 -0.5 4.5t-4 7.5t-4 8.5t-0.5 7.5q5 13 17 11q6 0 8 -6q2 -5 1 -11t-1 -12q10 1 14 -0.5t-2 -13.5q-4 -8 -8.5 -16.5t-5.5 -17.5q0 -5 3 -5q10 0 17 10t12.5 22.5
l11 25t12.5 16.5q4 1 8 -1q1 -2 1 -6q-2 -6 -5 -10.5t-1 -11.5q3 -6 6.5 -12.5t2.5 -13.5h1q10 12 16 29.5t22 25.5q18 7 24 -10q5 -7 3 -12.5t-1 -13.5q4 1 7 5q8 6 9 17t4 20q2 2 5.5 2.5t5.5 -0.5q5 -1 4 -6v-1q5 5 12 8q5 3 8.5 1t5.5 -7q2 -6 0.5 -11t-4 -10.5l-5 -11
t-1.5 -11.5q7 6 12 13t9 14.5t8.5 14t12.5 11.5q10 5 25 0q2 3 8.5 4t4.5 -7q-2 -9 -7 -19t-5 -20q0 -7 4 -1q10 10 15 23.5t9.5 27t11.5 26t21 20.5q7 4 12 -4q6 -11 2 -23.5t-12 -20.5q-7 -9 -21 -21.5t-12 -25.5q2 -8 11 -6q7 3 10.5 9.5t7.5 12.5q2 1 6 1t4 -5l-2 -6
q-8 -19 -26 -26q-12 -7 -21 7q-2 2 -2 5zM948 605q-24 23 -54 37.5t-62 22.5q-1 -28 -1.5 -55t-2.5 -55l-1 1v-3q-13 -1 -31.5 -2t-36.5 -4.5t-33.5 -10.5t-23.5 -19q-4 -3 2 -4q13 -5 28 -6.5t30.5 -1.5h30.5t29 -1t28 -2.5t28 -6.5q14 -4 25 -11.5t24 -13.5q0 30 -10.5 52
t-39.5 33q17 15 34 28.5t37 21.5zM226 565q-29 -8 -57 -19.5t-55 -25.5q33 -18 53 -53q1 -1 -2 -7.5t-7 -14t-7.5 -14t-4.5 -9.5q-12 -22 -20 -46q25 13 51 19t53 10t53.5 7.5t52.5 11.5q-9 9 -23 12.5t-30 4t-32 -1t-27 -2.5v64t2 64zM455 286q0 5 -4 11h28q14 -6 25 -24.5
t17 -32.5q0 12 1 29t-6 28h36q-6 -5 -5.5 -12t0.5 -14v-120q0 -7 -0.5 -15.5t5.5 -13.5h-101q5 7 6.5 17t1 21.5t-2 22.5t-1.5 19v84zM404 297q18 0 26.5 -10t11.5 -24.5t2 -31t-1 -29.5v-39q0 -23 -13 -32.5t-35 -8.5q-19 0 -27.5 10t-11.5 24.5t-2 31t1 29.5q0 10 -0.5 19
t0.5 19q0 24 13 33t36 9zM351 671q6 0 10 -1q8 -1 13.5 -7.5t6.5 -15.5q3 -21 -11.5 -40.5t-32.5 -30.5q-9 -6 -13.5 -15.5l-9 -19t-10 -18.5t-16.5 -14q-11 -8 -26 -5q-6 2 -10 7t-3 12q0 11 7.5 18.5t17.5 9.5q3 1 7.5 -1t2.5 -7q-6 -4 -11 -4q-6 -2 -8 -8t1 -11
q2 -2 4 -2.5t4 -1.5q10 -1 16.5 5.5t11 16.5t6.5 20t4 17q-13 -13 -30 -17q-13 -2 -21 6q-8 4 -8 18q0 13 6 25q13 30 42 48q6 3 12.5 6t13.5 5q5 2 10.5 6t10.5 5q6 0 3 -6zM454 414q-2 7 -5 18.5t-4 23.5t1 22.5t10 16.5q5 5 15.5 5t14.5 -8q3 -8 -1 -10.5t-9 -2t-8.5 4
t0.5 7.5q-8 -4 -8.5 -14t3 -21.5t8.5 -22.5t7 -17q6 -18 8.5 -42.5t-10.5 -41.5q-5 -7 -16.5 -9.5t-24.5 -2.5t-26 1.5t-20 1.5q6 7 7.5 18t1 23.5t-2 24t-1.5 20.5v61q0 8 0.5 15t-5.5 14h37q-7 -6 -6 -16t1 -18v-69q0 -8 -1 -24t5 -23q7 -11 18.5 -4t13.5 16
q4 13 1.5 26.5t-4.5 26.5zM660 437q-2 -4 -7.5 -14.5t-10 -22t-5.5 -22t5 -13.5q-3 6 2 6.5t10.5 -2t7 -7t-8.5 -8.5q-12 -5 -17 4.5t-4 17.5q0 8 3 16t4 15t-2 11t-14 3v-76q8 0 20.5 -1.5t21.5 5.5q-3 -7 -4 -13t-3 -13h-68q5 6 5.5 12.5t0.5 13.5v121q0 7 -0.5 15
t-5.5 14h62q12 -12 12.5 -29t-4.5 -33zM572 494q0 -7 3.5 -14.5t6.5 -15t2.5 -14.5t-7.5 -13q-7 -5 -16.5 -4.5t-10.5 10.5q0 6 3.5 8.5t7.5 2.5t7 -2.5t2 -6.5q7 1 7 6t-4 10.5t-9 10t-9 5.5q-7 2 -16 0.5t-12 -9.5q-6 -12 -2 -21t12 -16t18 -13.5t16 -13.5q7 -10 11 -23
t2 -25.5t-10 -21.5t-23 -11q-13 -1 -26 -0.5t-27 0.5q4 2 2.5 9.5t-4 16.5t-4 18.5t3.5 15.5t16 6.5t13 -10.5q0 -5 -3.5 -7.5t-7.5 -2.5t-7 2t-3 7q-6 -2 -6 -7t3.5 -10t8.5 -9.5t8 -5.5q7 -2 17 -2t15 5q10 10 8 20t-9.5 18.5t-17.5 15.5t-15 12q-9 8 -15 20.5t-6 25.5
t6.5 23.5t21.5 13.5q13 3 26.5 2t25.5 -1zM216 55l-21 -109h-21q-3 18 -5.5 36t-4.5 36q-2 -18 -5.5 -36t-6.5 -36h-21l-19 109h23q2 -20 3.5 -40.5t5.5 -40.5q2 20 5 40.5t7 40.5h18l12 -81q2 20 4.5 40.5t4.5 40.5h21zM322 55l-21 -109h-20q-4 18 -6.5 36t-4.5 36
q-2 -18 -5 -36l-6 -36h-22l-18 109h22q2 -20 4 -40.5t5 -40.5q2 20 5 40.5t7 40.5h19l11 -81q2 20 4.5 40.5t4.5 40.5h21zM428 55l-20 -109h-21q-4 18 -6 36t-5 36q-2 -18 -5 -36l-6 -36h-21l-19 109h22q2 -20 4.5 -40.5t4.5 -40.5q2 20 5 40.5t7 40.5h19l12 -81
q1 20 3.5 40.5t5.5 40.5h20zM616 -2q7 -3 10.5 -9.5t5 -14t2.5 -15t4 -13.5h-25q-3 6 -4 13.5t-3 14t-6 11t-13 3.5v-42h-26v108q14 2 31.5 3t30.5 -7q15 -11 11 -28t-18 -24zM818 -54h-25q-10 19 -18 38.5t-17 37.5q1 -19 1 -38v-38h-23v109h28l33 -74q-2 19 -2 37.5v36.5
h23v-109zM557 122q6 7 7.5 18t1 23t-2 23.5t-1.5 19.5v62q0 8 0.5 14.5t-5.5 14.5h37q-5 -5 -6.5 -15t-1 -20.5t1.5 -21t1 -17.5v-81h51q11 0 27 -1.5t27 6.5q-2 -4 -3.5 -14.5t-6.5 -10.5h-127zM548 -54h-25l-7 25h-26l-5 -25h-26l29 109h31zM918 -50q-20 -8 -38.5 -4.5
t-30.5 14.5t-16 29t7 39q6 14 19.5 21t30.5 7h5t8.5 -1t8 -2t3.5 -2l-4 -20q-13 6 -23.5 4t-18 -9t-10 -18t1.5 -23q8 -23 30 -20q5 1 4 10.5t-1 13.5h-13v20h37v-59zM643 210q-6 11 -10.5 22.5t-8.5 22.5q-5 11 -7 22.5t-11 19.5h38q-6 -14 1 -32t13 -30q6 14 11 30.5
t0 31.5h39q-11 -6 -13 -19t-5 -23t-11.5 -23.5t-8.5 -23.5q0 -11 -1.5 -27.5t6.5 -25.5h-37q9 9 7 26.5t-2 28.5zM417 255q0 8 -5 13.5t-11 7.5t-11.5 -1t-7.5 -11q-1 -7 -0.5 -14.5t0.5 -13.5q0 -18 -0.5 -36.5t0.5 -36.5q0 -8 4.5 -13t10.5 -7t11.5 0.5t7.5 11.5
q1 6 1 13.5v14.5v72zM521 137q-2 31 -10.5 62.5t-28.5 56.5v-113q0 -7 5.5 -11.5t12.5 -5.5t13.5 1.5t7.5 9.5zM332 656q-14 -3 -25.5 -11.5t-21.5 -18.5q-3 -3 -7.5 -12.5t-7.5 -19t-2 -17t11 -7.5q15 0 24 9.5t15 23t9 28.5zM652 55h26v-109h-26v109zM329 584
q7 2 14.5 9.5t12.5 17t7 19.5t0 17q-3 11 -16 11q-7 -18 -10 -36.5t-8 -37.5zM623 443q10 0 22.5 1t13.5 16q0 8 -3.5 11.5t-9 5t-12 1.5h-11.5v-35zM705 673q-1 4 -2 6.5t-6 0.5q-8 -4 -12.5 -11.5t-6.5 -15.5q-2 -5 0.5 -13.5t10.5 -1.5q6 6 10.5 16t5.5 19zM556 630
q5 -7 12 -3q8 2 11.5 10.5t1.5 16.5q-1 5 -4.5 8t-10.5 -2q-10 -7 -12 -23zM419 -40q0 7 4.5 11t10.5 4t10.5 -4t4.5 -11q0 -8 -4.5 -11.5t-10.5 -3.5t-10.5 3.5t-4.5 11.5zM692 -40q0 7 4.5 11t10.5 4t10.5 -4t4.5 -11q0 -8 -4.5 -11.5t-10.5 -3.5t-10.5 3.5t-4.5 11.5z
M593 7q9 0 13 5t3 11t-5.5 10.5t-13.5 3.5q-5 -1 -4 -13t1 -17h6zM513 -10q-2 11 -4.5 22.5t-5.5 22.5l-10 -45h20zM507 638q-3 -4 -7 -11t-3 -12q2 -6 8 -5t7 7q1 9 -5 21zM390 602q6 -1 14 7.5t9 13.5q2 4 -1 6t-6 -1q-5 -5 -9 -12t-7 -14zM774 727q-18 -18 -24 -42
q8 10 15.5 19.5t9.5 22.5h-1zM453 659q0 4 0.5 6.5t-0.5 6.5q-3 0 -4 -3q-1 -4 2 -10h2z" />
    <glyph glyph-name="colon" unicode=":" horiz-adv-x="85" 
d="M32 502q-1 2 -3 10.5t-2 17t3 13t12 -1.5q9 -5 10.5 -19t1.5 -22v-7t1 -10q1 -2 2 -10.5t0 -17t-4 -15t-10 -4.5q-6 2 -8 7.5t-2 12.5t1 13.5t1 11.5zM54 318q2 -2 7 -9.5t8 -15t2 -12.5t-12 -2q-10 1 -16 13t-9 19l-8 17q-1 1 -5 8.5t-7 16t-2.5 15.5t7.5 8
q6 1 10.5 -3.5t7 -11t4.5 -14t4 -11.5z" />
    <glyph glyph-name="semicolon" unicode=";" horiz-adv-x="84" 
d="M45 365q2 7 6 8t7.5 -1.5t6.5 -7.5t4 -9q2 -13 1 -26t-3 -27q-2 -46 -10 -90.5t-19 -89.5q-8 -32 -19 -67q5 40 10.5 79t9.5 80q3 23 5 46t3 46q0 14 -3.5 30t1.5 29zM27 496q-1 3 -3 11.5t-2.5 17t2.5 13t12 -1.5q10 -5 11.5 -19t1.5 -22v-7t1 -11q0 -2 1 -10t0.5 -17
t-3.5 -15.5t-10 -4.5q-12 5 -11 21t3 25z" />
    <glyph glyph-name="less" unicode="&#x3c;" horiz-adv-x="202" 
d="M104 324q-9 2 -27 7t-34.5 13.5t-25 19.5t1.5 26q12 16 28.5 28.5t34.5 23.5t36 22.5t33 25.5q5 6 13.5 14t17.5 3q6 -2 6 -7.5t-3 -9.5q-8 -14 -25 -23t-29 -18q-14 -9 -28.5 -19t-28.5 -20q-9 -6 -23 -15t-19 -20q11 -11 30 -18t34 -12q17 -6 38 -9t37 -11
q8 -4 9.5 -8.5t-1.5 -8.5t-9 -5.5t-12 0.5q-14 5 -27 10.5t-27 10.5z" />
    <glyph glyph-name="equal" unicode="=" horiz-adv-x="375" 
d="M34 414q-4 0 -8.5 1.5t-8 4t-3.5 6t5 7.5q10 9 28.5 6t30.5 -3q37 0 74 2.5t73 5.5q20 1 38 2t37 3q12 1 26 5t26 -1q11 -3 8 -11t-12 -10q-13 -5 -29 -3.5t-30 0.5q-51 -3 -100.5 -6.5t-99.5 -4.5q-14 -1 -27.5 -2.5t-27.5 -1.5zM238 357q2 0 11.5 -0.5t19 -2.5t14 -6
t-4.5 -11q-6 -5 -15 -5t-18.5 1.5t-19 3.5t-16.5 3q-24 1 -49 1.5t-49 -0.5q-20 -1 -37.5 -4.5t-37.5 -6.5q-9 -2 -15 1t-7 7.5t3 9.5t14 7l47 2q35 3 69.5 2.5t69.5 -2.5h21z" />
    <glyph glyph-name="greater" unicode="&#x3e;" horiz-adv-x="194" 
d="M20 305q-9 4 -4 13.5t15.5 18.5t22 16.5t13.5 9.5q11 9 24 16.5t26 16t24.5 17.5t20.5 20q-11 10 -28 15.5t-31 11.5q-6 3 -15.5 6.5t-19.5 9t-17 12t-8 14.5q-1 10 5 10.5t14 -4t16 -10.5t10 -8q16 -11 34.5 -18.5t36.5 -15.5q8 -3 15 -8.5t7 -14.5q0 -8 -5.5 -15
t-13.5 -13t-16.5 -11t-14.5 -8q-17 -11 -32.5 -22t-29.5 -23q-4 -3 -10 -10.5t-12.5 -14t-13.5 -10.5t-13 -1z" />
    <glyph glyph-name="question" unicode="?" horiz-adv-x="254" 
d="M15 498q-3 23 3.5 46t17.5 43t31.5 46.5t46.5 46.5t54.5 27.5t54.5 -8.5q5 -4 9 -10q10 -15 7 -33.5t-11.5 -37t-20 -36t-18.5 -29.5q-20 -32 -40.5 -64t-32.5 -67q-4 -9 -4.5 -19t-4.5 -20q-2 -6 -8 -10t-11 3q-5 5 -4.5 12.5t2.5 13.5q5 20 15.5 40t21.5 38
q14 25 29 49l30 48q6 10 13.5 21.5t14 24.5t10 25.5t0.5 24.5l-3 6l-4 4q-13 8 -27.5 7t-28.5 -7t-26.5 -15.5t-22.5 -17.5q-20 -18 -36.5 -40.5t-26.5 -48.5q-8 -19 -8 -32t3 -33q2 -6 0.5 -14.5t-12.5 -4.5q-6 2 -8.5 9t-4.5 12zM40 222q-12 12 -8 27t15.5 29.5t25 27
t21.5 18.5q14 9 33 20t38 13q5 0 10.5 -1.5t6.5 -9.5q2 -9 -8.5 -12.5t-15.5 -4.5q-14 -4 -31.5 -12.5t-32.5 -20.5t-25.5 -27t-11.5 -31l1 -1q10 -4 22.5 -2t25 7t24.5 11t20 11q13 8 25.5 17.5t18.5 23.5l-1 1q-7 3 -17.5 1.5l-17.5 -2.5q-12 -3 -23.5 -3.5t-22.5 -2.5
q9 7 19.5 13t22 10t23.5 5t24 -3q11 -5 12.5 -13t-2 -16.5t-10 -16.5t-12.5 -13q-12 -9 -29 -20.5t-36.5 -20t-39 -12t-35.5 3.5q-2 1 -4.5 2.5t-4.5 3.5z" />
    <glyph glyph-name="at" unicode="@" horiz-adv-x="371" 
d="M63 259q-27 29 -38.5 68.5t-10 81.5t14 82.5t34.5 71.5q18 26 45 43.5t57.5 24.5t61.5 1.5t58 -25.5q21 -15 36.5 -35t24.5 -43.5t10.5 -49t-5.5 -50.5q-10 -35 -33.5 -53.5t-53.5 -25t-63 -4.5t-62 10q-13 3 -28 9.5t-19 20.5q-4 12 1.5 22.5t15.5 18.5t22 13.5t22 8.5
q-4 0 -12.5 -2t-17 -3.5t-15.5 0t-8 8.5q-2 9 4.5 12.5t15 4t17.5 0t13 -0.5l31 -4q3 -1 12 -1.5t17.5 -2.5t14 -6.5t2.5 -12.5q-1 -7 -7 -9t-13.5 -2t-15 1t-11.5 1q-7 0 -19 -2.5t-23.5 -8t-19.5 -13t-6 -17.5v-1h1q10 -8 24.5 -12t27.5 -6q27 -4 56.5 -4.5t55.5 10.5
q18 5 29.5 17.5t18 28.5t8 33.5t-1.5 34.5q-6 37 -27.5 64.5t-51 41.5t-64 12.5t-65.5 -22.5q-35 -23 -56.5 -65t-27.5 -89.5t4.5 -92.5t41.5 -74q18 -17 41 -27t47.5 -12.5t48.5 2.5t45 18q26 15 46.5 39t37.5 50q-12 -53 -49.5 -88t-94.5 -42v2q-39 -5 -77.5 8t-66.5 42z
" />
    <glyph glyph-name="A" unicode="A" horiz-adv-x="431" 
d="M197 267q-4 -1 -15 -3t-22 -2.5t-19.5 2t-8.5 11.5q0 1 -0.5 2.5t0.5 2.5q1 5 6.5 7t11.5 2t12 -1t9 -1q16 -3 31 -2l30 2q29 1 58 3t57 8q-20 58 -30 118.5t-15 123.5q-4 54 -1 108.5t1 108.5q-28 -32 -48 -75t-38 -82q-29 -63 -54.5 -126t-48.5 -128q-20 -54 -38 -110
l-36 -112q-1 -3 -4 -7t-6 -6.5t-6.5 -2.5t-6.5 6q-5 9 0 21t10 20l24 67q42 124 88.5 244.5t107.5 235.5q2 4 10.5 21.5t19 35.5t21.5 30.5t19 6.5q6 0 7.5 -15t0.5 -33.5t-3 -35t-2 -20.5q-3 -99 4.5 -198t42.5 -192q9 1 15.5 -2t9 -7.5t-1 -9t-14.5 -5.5q6 -14 12.5 -27.5
t16.5 -24.5q2 -3 6.5 -8t8.5 -10.5t5 -11.5t-3 -10q-3 -6 -13 -1.5t-21 12.5t-21.5 16t-14.5 11l-32 17q-14 5 -26.5 10.5t-26.5 9.5q-17 7 -34 7t-35 -1zM354 230q17 -9 32 -14q-7 14 -14.5 27.5t-13.5 27.5q0 2 -3 5q-6 0 -12 1t-14 -1q-18 -2 -37 -3.5t-38 -2.5
q26 -8 50.5 -18.5t49.5 -21.5z" />
    <glyph glyph-name="B" unicode="B" horiz-adv-x="688" 
d="M119 696q4 0 5 1q32 5 63 5.5t61 -2.5q17 -2 33 -4t32 -7q8 -2 17 -2.5t14 -6.5q11 -4 26.5 -9.5t30 -14t24.5 -19.5t10 -26q1 -10 -4.5 -20t-12.5 -18q24 -4 54.5 -12t62 -20.5t60 -29.5t47 -39t24.5 -50t-7 -61q-11 -27 -30 -51t-42 -44.5t-49 -37.5t-51 -30
q-48 -26 -101.5 -40.5t-110.5 -5.5q-21 4 -41 15t-27 34q-5 16 -2.5 35.5t8.5 34.5q1 3 4 8t7 9t8.5 4.5t7.5 -5.5q5 -9 -2 -20t-10 -19q-7 -18 -4 -37t22 -29q19 -12 43 -15t49 0t49 9.5t44 14.5q55 23 107.5 59.5t86.5 86.5q23 35 22.5 64t-17 52.5t-45 41.5t-61.5 30.5
t-66 20.5t-58 12l-25 -14q5 -39 6 -78l2 -78q0 -5 2 -17.5t2.5 -26t-2 -24t-10.5 -10.5q-2 0 -4.5 0.5t-4.5 2.5q-6 6 -7 18.5t-4 20.5q-4 10 -9 20l-10 20q-20 33 -44 61t-52 54q-18 -2 -43 -3.5t-42 4.5q-11 5 -13 16t6 18q7 5 15 8.5t15 5.5q-23 16 -45 30t-47 25
q-5 2 -17 5.5t-24.5 8.5t-21.5 11t-7 12q-6 9 8 17.5t34 15.5t38.5 11t22.5 4zM212 684q-44 1 -87.5 -5.5t-81.5 -28.5q15 -7 29.5 -15.5t28.5 -18.5q23 -12 44 -26.5t41 -29.5q57 19 118 21q24 3 48 0q-3 33 -13 58q-3 8 -6.5 14t-5.5 13q-57 17 -115 18zM339 394l24 -42
q5 45 2 92t-7 92q-23 -11 -47.5 -17t-48.5 -9l-15 -3q47 -46 84 -100zM285 563q-41 -5 -81 -18l24 -20q32 1 65 8.5t62 20.5v9q-35 2 -70 0zM404 631q-11 8 -23 14.5t-25 11.5l10 -43l5 -34q12 0 23 -3q14 13 20 26.5t-10 27.5zM186 538q-6 -3 -12 -9q20 -4 45 -4
q-5 4 -10.5 8.5t-11.5 8.5z" />
    <glyph glyph-name="C" unicode="C" horiz-adv-x="578" 
d="M105 700q36 8 72 5.5t72 -11.5t71 -21.5t67 -24.5q34 -13 67.5 -25t66.5 -21q11 -3 21.5 -5.5t21.5 -4.5q8 -1 18.5 2t18.5 -2q5 -1 8 -5.5t-2 -9.5q-5 -6 -13 -7.5t-17 -0.5t-17.5 3t-15.5 4q-32 7 -63.5 18t-62.5 22q-54 20 -108.5 40t-112.5 28q-35 4 -71 0.5
t-64 -27.5q-20 -19 -26.5 -44t-4 -52t11 -53.5t18.5 -48.5q22 -49 54 -93.5t73 -79.5q30 -26 67 -47t80 -22q53 -2 97 27t73 69q8 11 14 24.5t14 22.5q8 8 15 5t5 -14q-2 -10 -7.5 -17t-10.5 -14q-23 -32 -50 -58.5t-64 -43.5q-51 -24 -99.5 -18t-92 31.5t-80 64.5t-63.5 79
q-15 22 -30 52t-25.5 63t-14.5 65.5t3 61.5t27.5 50.5t58.5 32.5z" />
    <glyph glyph-name="D" unicode="D" horiz-adv-x="679" 
d="M61 688q33 14 67.5 23.5t71.5 12.5q90 8 178.5 -16.5t160.5 -77.5q19 -14 38.5 -31.5t35 -37.5t26.5 -42.5t14 -47.5q5 -44 -8.5 -85.5t-39 -78.5t-58.5 -68.5t-66 -54.5q-18 -12 -46.5 -27t-59 -23.5t-59.5 -7t-49 22.5q-14 16 -14 36t10 37q13 23 35 33t47 18
q-14 -6 -29 -16.5t-26.5 -23.5t-16.5 -28t0 -30q6 -18 22 -23.5t35 -4.5t38 6.5t32 10.5q50 20 92.5 54.5t75.5 76.5q15 20 28.5 42.5t22.5 46.5t12 49t-3 50q-9 36 -33.5 66.5t-56.5 54.5t-68 42t-68 30q-44 16 -90 23t-92.5 5t-91.5 -14.5t-85 -35.5q17 -9 32 -20t30 -23
q75 -58 138 -128.5t124 -142.5q11 -12 20 -23t19 -22q-5 49 -23.5 97.5t-36.5 95.5q-14 40 -30.5 79t-36.5 75q-3 6 -6 17t6 16q5 2 9 -1t6 -6q11 -14 15.5 -32.5t11.5 -33.5q26 -64 50.5 -128t44.5 -130q1 -5 5.5 -18t8.5 -27.5t4 -26t-9 -12.5q-6 -4 -11 -0.5t-9 10
t-7 13.5t-5 11q-8 11 -15.5 22t-15.5 21q-26 37 -56 70.5t-60 65.5q-32 33 -65.5 63.5t-69.5 57.5q-14 9 -28 17.5t-29 15.5q-4 1 -11 3t-14 5t-11 7.5t-2 10.5q-4 7 0.5 13t12.5 10.5t17.5 7t14.5 4.5zM355 276q-4 -2 -6 -2zM349 274q-1 -1 -3 -1q2 0 3 1z" />
    <glyph glyph-name="E" unicode="E" horiz-adv-x="628" 
d="M356 212q-21 15 -34 38t-21 49.5t-12 54t-7 51.5q-5 -1 -16.5 -5t-23.5 -6t-22 -1t-11 10q-1 3 1.5 7.5t9.5 6.5q14 4 30.5 3.5t30.5 2.5q-5 36 -7 72t-4 73q-32 -9 -64.5 -18t-65.5 -17q-20 -5 -40.5 -9.5t-40.5 -9.5q-3 -1 -12 -2.5t-17 -1.5t-13 3t1 12q7 9 19.5 10
t23.5 2q19 3 37.5 7.5t36.5 9.5q35 8 68 17.5t66 20.5q-2 55 -7 108.5t-18 106.5q-3 13 5.5 20t16.5 -7q4 -8 4.5 -16.5t2.5 -16.5q8 -57 12 -110q2 -19 3 -38.5t2 -39.5q98 29 191.5 67t186.5 80q29 14 57.5 26t57.5 23q-24 -20 -51 -35.5t-56 -29.5q-93 -46 -188.5 -85.5
t-195.5 -69.5l4 -74t6 -75q61 11 122 25t121 32q3 1 14 5.5t23 7.5t20 2t5 -11q-2 -8 -11.5 -12t-21.5 -7t-23.5 -4.5t-17.5 -2.5q-54 -15 -108 -27.5t-109 -23.5q23 -4 46 -15q19 -9 39 -24t35.5 -33.5t25.5 -40.5t9 -46q-1 -22 -13.5 -35t-30 -17.5t-37 -1t-34.5 14.5z
M323 302q4 -13 9.5 -27.5t14 -26.5t20 -21t26.5 -11q11 -2 23.5 -1.5t23.5 5.5q12 6 17 16t5.5 22t-3 24.5t-7.5 22.5q-20 42 -61.5 68t-86.5 30q3 -26 7 -51.5t12 -49.5z" />
    <glyph glyph-name="F" unicode="F" horiz-adv-x="536" 
d="M418 117q-48 85 -103.5 163.5t-112.5 157.5q-15 -5 -30 -9.5t-29 -10.5q-7 -4 -18.5 -8.5t-19.5 3.5q-7 7 2 13.5t24 11.5t29.5 8t17.5 4l12 3q-29 41 -58 81t-58 81q-3 4 -14.5 19t-23 32t-18.5 32t0 18q1 4 9 4q9 2 18.5 -3t17.5 -7q19 -5 37 -6.5t38 -3.5
q47 -2 93 -1.5t93 0.5q2 42 4.5 83t-0.5 83q0 4 -2.5 14t-4 19.5t0.5 17t10 7.5q10 1 13.5 -17.5t3.5 -42t-1.5 -44t-1.5 -23.5l-6 -97q41 0 79.5 -1.5t73.5 -4.5q33 -3 65 -9q3 0 9.5 -2.5t11.5 -6t7.5 -8t-1.5 -9.5q-8 -9 -21 -2.5t-20 9.5q-18 6 -37.5 8t-39.5 4
q-32 2 -64 2.5t-64 0.5q-2 -48 -4 -95t0 -95q26 5 51 8.5t51 4.5q8 0 20 0.5t24.5 0t22.5 -4.5t13 -13q2 -7 -2 -10.5t-9 -3.5q-9 0 -18 3.5t-17 5.5q-9 2 -18.5 3.5t-20.5 -0.5q-24 -1 -48.5 -4.5t-48.5 -8.5q2 -58 9.5 -116.5t24.5 -114.5q8 -23 17 -43.5t24 -40.5l10 -10
t13 -14.5t8 -14.5t-4 -11q-7 -3 -12 2t-7 9zM196 456q32 8 62.5 16.5t62.5 14.5q-2 49 -1 97t3 96q-54 0 -106.5 -0.5t-105.5 4.5q-17 1 -34 3t-34 5q20 -42 46.5 -81t52.5 -77zM232 402q34 -47 67 -94t68 -94q-24 60 -33.5 125t-12.5 129q-29 -6 -57.5 -13t-55.5 -15z" />
    <glyph glyph-name="G" unicode="G" horiz-adv-x="489" 
d="M279 206q-22 -16 -47.5 -29.5t-53 -21t-55 -7.5t-54.5 12q-21 9 -32.5 26t-16.5 37t-5.5 42t1.5 41q5 60 20.5 118t35.5 114q19 52 42.5 103.5t56.5 96.5h-1q6 7 14 16.5t17 17t19.5 11.5t21.5 1q12 -5 16 -15.5t3.5 -23.5t-4.5 -26t-7 -22q-11 -28 -37 -54q4 9 12 26
t13.5 35.5t6.5 35.5t-9 25q-1 1 -5 1q-14 -6 -25 -16t-20 -22.5t-16.5 -26t-14.5 -25.5q-21 -40 -38.5 -80.5t-31.5 -82.5q-17 -48 -29 -95.5t-17 -97.5q-2 -14 -3 -33.5t1 -39t9.5 -36t23.5 -25.5q33 -21 71.5 -16t75 24t69 45.5t54.5 48.5q34 34 62.5 72t45.5 82
q8 17 12.5 38t-6.5 38q-10 13 -30.5 12t-43 -9t-43 -19t-29.5 -16q-17 -10 -33.5 -20.5t-31.5 -24.5q-8 -6 -13.5 -15.5t-14.5 -12.5q-8 -3 -12.5 0.5t-2.5 11.5q2 9 8.5 16t14.5 12l27 20q30 23 64 41t69 28q26 8 51 7t41 -24q11 -20 7 -45.5t-12 -45.5
q-28 -69 -79.5 -127.5t-111.5 -100.5z" />
    <glyph glyph-name="H" unicode="H" horiz-adv-x="301" 
d="M36 406q-17 -6 -21.5 5t11.5 21l9 4q-2 54 -2 109.5t5 111.5l4 61q0 9 -0.5 21t7.5 19q10 9 14.5 -0.5t3.5 -16.5l-5 -27q-11 -67 -11 -136.5t3 -136.5l18 5q58 16 122 19q-12 63 -23.5 126t-19.5 127l-5 52q-6 -28 -7 -57.5t0 -58.5q-2 14 -3 28l-2 28q-3 37 1 68
q1 10 1 19t3 18q3 8 10.5 14t13.5 -5q5 -8 4 -17.5t-1 -19.5q-2 -19 0 -37.5t5 -37.5q8 -62 19 -123t22 -124h7l66 3q-17 -7 -32.5 -10t-32.5 -6q-1 0 -2 -1t-3 -1q10 -51 18.5 -100.5t13.5 -92.5q6 -31 9 -64q2 -10 3.5 -21t-3.5 -20q-6 -12 -13.5 -4t-7.5 18q0 6 0.5 12.5
t0.5 14.5q-2 64 -15 128t-24 127q-35 -5 -73 -10.5t-70 -22.5q3 -52 9 -102.5t17 -100.5q3 -13 6.5 -26t10.5 -24q1 -2 5.5 -10.5t7 -16.5t0.5 -12.5t-14 1.5q-9 6 -15.5 18t-10.5 26.5t-7 28t-4 21.5q-10 47 -15 94t-8 94z" />
    <glyph glyph-name="I" unicode="I" horiz-adv-x="437" 
d="M248 213q-28 -3 -57 -5t-57 -1q-17 2 -35.5 1.5t-33.5 5.5q-6 2 -11 8t1 12q5 5 13 4.5t16 -2.5q39 -8 79 -7.5t81 4.5q-22 108 -27.5 218.5t-5.5 220.5q-28 -2 -56 -3t-55 -1q-17 0 -36.5 -2t-36.5 3q-5 1 -10 6.5t-1 11.5q5 6 13 6t14 -1q42 -6 84 -5l84 2
q0 11 0.5 21.5t0.5 20.5q1 28 3 58t13 56q-4 -26 -2 -57t2 -57q0 -10 1 -20t1 -20q38 2 77 2.5t78 -4.5q16 -2 38 -4t36 -13q9 -7 8 -11t-6.5 -5.5t-13 -1.5t-11.5 2q-30 13 -58 14q-37 5 -74 4.5t-74 -2.5q3 -109 9.5 -218.5t26.5 -217.5q29 3 57.5 7.5t57.5 9.5l28 6t28 8
q10 2 19.5 3.5t17.5 5.5q-17 -12 -37 -18.5t-40 -12.5q-32 -9 -63.5 -16t-63.5 -12q3 -12 5.5 -23.5t7.5 -22.5q1 -2 6 -9.5t8 -16t2.5 -15t-10.5 -4.5q-10 1 -17 12.5t-12 25.5t-8 28t-4 21z" />
    <glyph glyph-name="J" unicode="J" horiz-adv-x="321" 
d="M254 205q2 -35 4 -69.5t-2 -69.5q-1 -9 -3 -20t-13 -15q-9 -4 -20 0.5t-21.5 12t-19 16.5t-14.5 15q-25 25 -45.5 51t-39.5 54q-11 16 -23 36.5t-20 41.5t-9.5 42.5t8.5 41.5q11 20 28.5 33.5t36.5 23.5q28 17 55.5 30.5t56.5 29.5q-2 23 -3 45t-2 45q-1 35 -1.5 70.5
t2.5 71.5q-1 -4 -7 -8q-24 -29 -53.5 -56.5t-64.5 -41.5q-14 -5 -33 -9t-32 7q-6 7 -4 11t7.5 5t12 0.5t10.5 -0.5q20 -2 37 6.5t33 19.5q19 14 36 30t33 34q11 13 19 29t22 25q5 4 10 -1q4 -3 5 -8.5t-0.5 -12t-3.5 -12t-2 -7.5q-5 -13 -4.5 -25.5t-1.5 -24.5
q-1 -45 1 -90.5t5 -90.5q35 20 67.5 43.5t62.5 49.5q-26 -35 -58.5 -62.5t-70.5 -49.5q5 -63 9.5 -124t9.5 -123zM235 75q2 44 -1 88.5t-7 89.5l-12 185q-28 -15 -56 -29t-54 -30q-9 -6 -18.5 -12.5t-17.5 -14.5t-13.5 -17.5t-6.5 -21.5q-2 -18 4 -36.5t15 -36t20.5 -34
t20.5 -30.5q14 -20 31 -40t34 -38q11 -12 25.5 -26.5t31.5 -19.5q2 6 2.5 11.5t1.5 11.5z" />
    <glyph glyph-name="K" unicode="K" horiz-adv-x="676" 
d="M787 272q-74 27 -146.5 59.5t-145.5 62.5t-148.5 52.5t-156.5 30.5q-1 -77 3.5 -154t11.5 -155q2 -12 6 -27.5t0 -27.5q-5 -11 -12.5 -8t-10.5 12q-5 20 -3.5 43.5t-0.5 42.5q-5 69 -9 138t-4 138q-36 1 -71 0q-17 -2 -32.5 -6t-32.5 -6q-20 0 -20 12q-2 7 3.5 11t14 5.5
t16.5 1.5t13 1q29 3 55.5 8t55.5 13l2 40t3 39l11 74q3 11 8.5 16t10.5 4t7 -7.5t-2 -18.5q-11 -34 -15 -69.5t-6 -71.5q63 19 125.5 38t126.5 36q32 6 58 16q3 1 10 3t13.5 2t11 -3t2.5 -10q-2 -6 -14.5 -10t-27.5 -7.5t-28.5 -6t-18.5 -3.5q-66 -17 -130 -36t-130 -38v-7
q112 -9 216.5 -46.5t205.5 -83.5q43 -20 87 -41t88.5 -39t90.5 -32t94 -20q-38 -2 -73 4t-70 16q-11 3 -21 7t-21 8z" />
    <glyph glyph-name="L" unicode="L" horiz-adv-x="302" 
d="M506 206q-85 8 -171.5 -4t-171.5 -22q-4 -22 -7.5 -44t-9.5 -45q-5 -13 -10.5 -31.5t-18.5 -26.5q-9 -6 -18 -4.5t-16.5 6.5t-13.5 12.5t-10 15.5q-9 18 -15.5 37.5t-15.5 39.5q-3 7 -7 14t-6 14t-0.5 13.5t9.5 12.5q8 5 20 2t21 -3q20 0 40.5 1.5t40.5 3.5
q11 82 15 171.5t2 172.5q-1 34 -2.5 66.5t-6.5 64.5q0 6 -2.5 15t-4 18t0 15.5t9.5 8.5q7 1 13.5 -8.5t12.5 -23t10.5 -27t7.5 -19.5l57 -106l-37 46q-12 17 -23.5 34.5t-22.5 34.5l5 -61q5 -97 1.5 -200.5t-16.5 -200.5q78 8 155.5 17.5t154.5 9.5q7 0 21.5 0.5t29.5 0
t27.5 -4t16.5 -12.5t-3.5 -10.5t-19.5 0t-24.5 4t-16.5 2.5zM130 105q5 18 8 36t6 38l-31 -3q-18 -1 -36 -3t-37 -2q5 -11 8 -22t6 -21q3 -8 6.5 -20t8.5 -24.5t11.5 -22.5t15.5 -13q1 -1 5 -1l7 2q11 11 15 26.5t7 29.5z" />
    <glyph glyph-name="M" unicode="M" horiz-adv-x="572" 
d="M69 807q24 -49 41 -100.5t34 -103.5q19 -53 37.5 -104.5t41.5 -102.5q2 14 5 28t7 28q2 6 3.5 16.5t4.5 21t7.5 19.5t11.5 13q6 2 10.5 -0.5t4.5 -8.5q1 -10 -5 -19.5t-9 -17.5q-4 -8 -6.5 -16t-5.5 -16q-5 -20 -8.5 -39.5t-6.5 -39.5q17 -39 38 -78t50 -71
q7 -8 16.5 -16.5t20.5 -15t23 -9t24 2.5q19 7 29.5 26.5t15.5 42.5t6 47t1 40q2 52 -2 102.5t-10 101.5q-6 48 -13 95t-17 94q-1 4 -5 19.5t-7 33t-3.5 31t6.5 15.5q8 2 14 -13t10 -34.5t6 -37t2 -21.5q16 -86 29 -171.5t30 -172.5q7 -38 14.5 -76t21.5 -76q1 -5 7 -16
t10.5 -22t4.5 -18.5t-9 -5.5q-9 1 -16.5 14.5t-13 30t-9 32t-4.5 21.5q-14 57 -24 109q0 -24 -1 -61t-9.5 -72t-28 -59.5t-56.5 -21.5q-29 1 -53 19.5t-43.5 44.5t-34.5 55t-25 52q-3 -23 -6 -48.5t3 -48.5l6 -26t5 -27q2 -6 3 -14.5t-3 -14.5q-4 -5 -11.5 -6t-11.5 4
q-6 6 -8 15.5t-2 20t0.5 20t0.5 17.5q-2 15 -1 30.5t2 31.5q-18 72 -46.5 139.5t-57.5 134.5q-14 33 -28 65.5t-27 64.5q-11 30 -23.5 64.5t-10.5 67.5q1 6 3.5 13t8.5 12q4 3 8.5 2.5t9.5 -2.5q9 -5 14 -15t10 -19zM153 519q-16 43 -30.5 85.5t-28.5 86.5q-7 19 -14 38.5
t-15 39.5q-5 14 -11.5 30t-17.5 25q-6 -9 -5.5 -22.5t4.5 -28t9 -28t7 -22.5q8 -26 18 -52.5t20 -52.5q20 -53 40 -105.5t40 -103.5q11 -29 21 -57t19 -57q2 17 3.5 32t3.5 30q-17 40 -33 80t-30 82z" />
    <glyph glyph-name="N" unicode="N" horiz-adv-x="489" 
d="M165 232q0 -2 2.5 -11t3.5 -18.5t-1 -15.5t-11 -1q-7 4 -10.5 12.5t-4.5 19t-1 20.5v17q-4 45 -3 92t8 93q-43 76 -79 155q-12 29 -24 59.5t-21 60.5q-2 7 -4.5 15t-4 16.5t-1 16t5.5 13.5q3 2 6 2q7 1 10 -4.5t3.5 -13t0.5 -15.5v-11q4 -20 10 -38.5t13 -37.5
q19 -48 41.5 -95t48.5 -92q0 3 3.5 12t8 16.5t9.5 9t8 -10.5q3 -13 -4.5 -28t-10.5 -26q26 -44 54.5 -85.5t60.5 -79.5q11 -13 25.5 -28.5t30.5 -28t34 -20t37 -5.5q13 0 20 8q10 7 13.5 19.5t4 26.5t-1.5 27.5t-4 24.5q-5 29 -12.5 57.5t-15.5 57.5q-17 53 -34.5 105
t-34.5 106q-9 29 -17.5 58.5t-14.5 58.5q-1 7 -3 16.5t-3 19t0 17.5t7 13q5 5 9.5 2.5t6.5 -7.5q5 -8 2.5 -18.5t-2.5 -18.5q2 -13 4.5 -26t5.5 -25q8 -37 18.5 -71.5t23.5 -70.5l46.5 -139.5t34.5 -143.5q1 -14 2 -31.5t-2 -33.5t-11.5 -29.5t-25.5 -19.5q-20 -7 -41 -0.5
t-38 17.5q-30 18 -55.5 43t-48 54t-42 60t-37.5 60q-4 -44 -5.5 -91t7.5 -91z" />
    <glyph glyph-name="O" unicode="O" horiz-adv-x="644" 
d="M605 633q30 -69 13 -136t-62 -124q-29 -37 -66 -67.5t-79.5 -54t-88.5 -38t-92 -19.5q-23 -3 -46.5 -2.5t-46.5 5t-44 14.5t-38 26q-22 23 -32 54.5t-8 63.5q0 41 12.5 82t32.5 79t47.5 72t57.5 61q26 23 57.5 42t66.5 27q13 2 30 2.5t34.5 -2t33.5 -9t25 -18.5
q5 -6 3 -13.5t-11 -5.5q-6 1 -11.5 4.5t-10.5 7.5l-20 11q-32 11 -66 3t-62 -25q-57 -32 -100 -86t-69 -114q-9 -22 -16.5 -47t-10 -51t1 -51.5t15.5 -47.5q14 -24 36 -37t48 -18.5t53.5 -5t51.5 4.5q54 8 107.5 29.5t100.5 55t83.5 78t54.5 97.5q18 46 10 91t-32 84.5
t-59.5 73.5t-72.5 58q-43 28 -93.5 49t-103.5 19q-26 -1 -45.5 -11t-32 -26.5t-17 -39t-1.5 -47.5q-8 29 -4.5 61.5t28.5 53.5q31 26 73 26.5t79 -10.5q43 -12 86.5 -33.5t81.5 -51t68.5 -66t49.5 -78.5z" />
    <glyph glyph-name="P" unicode="P" horiz-adv-x="714" 
d="M661 650q28 -19 46 -48t14 -64q-5 -33 -25.5 -59.5t-44.5 -46.5q-48 -40 -106 -65t-116 -45q5 -35 9 -69t9 -67q3 -17 6 -34.5t9 -33.5q3 -9 8 -20t0 -19q-4 -7 -8 -6.5t-8 5t-6.5 10.5t-3.5 9q-5 20 -8.5 40.5t-6.5 40.5l-19 137q-42 -13 -85.5 -23t-88.5 -12
q-26 -1 -55.5 2.5t-48.5 23.5q-9 10 -9.5 21t3.5 21.5t11.5 19.5t16.5 15q10 7 21.5 14t22.5 10q13 3 21 -5t-6 -16q-9 -5 -20.5 -8.5t-22.5 -9t-18.5 -13.5t-7.5 -23q-1 -13 10.5 -19.5t27.5 -9t32 -2t24 0.5q44 2 86.5 12t84.5 24q-10 89 -18 179.5t-31 177.5
q-47 0 -93 -5t-92 -13q-21 -4 -41.5 -9t-40.5 -11q-14 -4 -30.5 -9.5t-27.5 -16.5q15 -9 28.5 -20.5t26.5 -22.5q48 -39 91 -80.5t84 -86.5q-34 26 -66.5 53t-64.5 56q-20 17 -40 33.5t-41 31.5q-8 6 -17.5 11.5t-16.5 12.5q-8 9 -3.5 17.5t17 16t30 14t34 11.5t30 8.5
t17.5 4.5q101 23 208 25q-2 5 -3 9t1 9q0 6 4 8.5t10 -0.5q7 -4 9.5 -11t4.5 -15q35 0 72.5 -2.5t74.5 -9.5t71.5 -20t64.5 -34zM698 548q2 31 -15.5 53.5t-44 38.5t-57 25.5t-53.5 14.5q-35 8 -72 11.5t-74 3.5l9 -56q13 -74 20.5 -147.5t15.5 -146.5q47 17 92.5 36
t87.5 46q15 10 31 23t29.5 28t22 32.5t8.5 37.5z" />
    <glyph glyph-name="Q" unicode="Q" horiz-adv-x="694" 
d="M707 553q5 -38 -16 -71t-47 -57q-38 -37 -84 -66t-93 -52q20 -29 42 -57.5t44 -56.5l57 -68q-36 27 -67 58q-26 26 -49.5 55t-46.5 60q-57 -28 -117 -48t-123 -29q-22 -3 -48 -5t-51.5 1.5t-47.5 14t-36 31.5q-11 17 -10 36.5t8 38.5t18.5 37t21.5 32q32 45 73 83t89 67
q32 20 66.5 34.5t72.5 20.5q10 2 23.5 4t28.5 3t28.5 -0.5t23.5 -6.5q8 -4 8.5 -10.5t-7.5 -10.5q-6 -2 -12.5 -0.5t-12.5 3.5q-8 2 -16.5 3t-17.5 1q-38 0 -74.5 -10.5t-69.5 -27.5q-63 -32 -117.5 -82t-89.5 -111q-6 -9 -12 -21t-9.5 -24.5t-3.5 -24.5t6 -22
q12 -23 38.5 -31.5t50.5 -9.5q40 -2 80 4t79 17.5t76.5 26.5t72.5 31q-21 29 -41 56.5t-40 56.5q-3 4 -12.5 15t-18.5 23.5t-14 23t2 15.5t16 -2.5t18 -20t16.5 -25.5t10.5 -17q21 -29 41.5 -58t40.5 -58q44 22 85.5 47t77.5 57q13 12 26.5 25.5t24 29t16.5 32.5t5 36
q-2 16 -10.5 29t-20.5 24t-26 20t-27 16q-30 15 -62.5 26.5t-64.5 19.5q-62 17 -127 23.5t-128 -0.5q-21 -2 -40 -7t-38 -13q-5 -2 -11 -1.5t-9.5 3t-3.5 6.5t6 9q8 6 17 8l18 4q54 13 107.5 13t107.5 -6q55 -7 107.5 -20.5t103.5 -36.5q18 -8 37.5 -18.5t37 -24.5
t29.5 -31.5t14 -38.5z" />
    <glyph glyph-name="R" unicode="R" horiz-adv-x="859" 
d="M849 346q11 0 11.5 -7.5t-7.5 -13.5q-7 -5 -16.5 -6t-17.5 -2q-30 -3 -62 -3q-89 -1 -176.5 -6.5t-175.5 -25.5q1 -6 6 -19t8.5 -27t4 -25.5t-6.5 -13.5q-6 -4 -10.5 -0.5t-8.5 10t-7 13.5t-5 10q-12 21 -28 40q-20 -5 -40.5 -12t-40.5 -15q-11 -4 -24 -11.5t-23 0.5
q-7 6 -3.5 11t11.5 9t16.5 6.5t11.5 2.5q18 8 36.5 16.5t36.5 16.5q-35 38 -75 71t-83 62q-23 16 -45 30.5t-46 28.5q-18 13 -40.5 28t-31.5 38q-7 18 1 36.5t23 35t32.5 30t29.5 21.5q48 27 101.5 41.5t107.5 20.5q58 7 116.5 4t114.5 -19q21 -6 42.5 -15.5t40 -23
t32.5 -31.5t20 -42q6 -21 3 -41.5t-11 -39.5t-20.5 -36.5t-25.5 -32.5q-37 -41 -81.5 -72.5t-92.5 -58.5l-50 -27v-3q66 16 132.5 23.5t133.5 9.5q30 1 61 0.5t62 1.5q14 2 30.5 8t28.5 4zM155 456q26 -18 51.5 -38t51.5 -42q23 -18 44 -38.5t41 -40.5l18 8t18 9
q-9 50 -15 100.5t-5 102.5v17t1.5 31t5.5 26t13 3q8 -8 6 -20t-4 -20q-2 -11 -2.5 -21.5t-0.5 -21.5q-2 -48 4 -95t15 -94q34 18 71 39t71 46.5t63 56t46 66.5q13 28 11.5 53t-14 46t-34 37t-47.5 26q-75 29 -160 29t-162 -17q-41 -9 -80 -23t-73 -40q-8 -6 -18 -14.5
t-18.5 -18.5t-14 -21.5t-4.5 -22.5q-1 -9 5 -17.5t14.5 -16t17.5 -13.5l15 -10zM389 271q-2 3 -2 7l-21 -6q7 -8 14.5 -17t15.5 -17z" />
    <glyph glyph-name="S" unicode="S" horiz-adv-x="672" 
d="M656 328q5 -11 -0.5 -23.5t-12.5 -20.5q-29 -28 -70.5 -41.5t-79.5 -20.5q-42 -8 -84.5 -10.5t-84.5 5.5q-23 4 -44 13t-35.5 23.5t-19 35t5.5 47.5q6 23 19 44q3 5 8.5 8t10 2t6.5 -5t-1 -12q-4 -12 -11 -22t-12.5 -20.5t-7.5 -22t4 -26.5q9 -24 33.5 -35.5t54.5 -15
t60 -1.5t49 4q38 5 74.5 13.5t71.5 23.5q7 3 15.5 7.5t16 10.5t13 13t5.5 16v2q-3 12 -12 21.5t-20.5 17.5t-24 14t-21.5 11q-32 17 -64 32t-65 29q-71 31 -142.5 59.5t-140.5 62.5q-12 6 -39 18.5t-51.5 29.5t-38.5 37t-2 40q6 11 19 17.5t28 10t30 5t27 2.5q30 2 60.5 0
t60.5 -7q36 -6 70 -16t67 -25q4 -2 17.5 -8.5t27 -14.5t22.5 -16.5t3 -14.5q-5 -6 -11 -5t-12.5 5t-12 9t-9.5 8q-14 8 -29 15t-29 15q-25 11 -52 18.5t-54 12.5q-34 5 -68.5 6.5t-68.5 -2.5q-6 -1 -17 -2.5t-22.5 -4.5t-20.5 -8t-11 -12q0 -17 15.5 -30t27.5 -21
q27 -20 56.5 -34.5t59.5 -27.5q65 -30 132 -57t133 -56q33 -14 65 -28.5t63 -33.5q20 -11 42 -26t28 -38z" />
    <glyph glyph-name="T" unicode="T" horiz-adv-x="815" 
d="M1037 715q-32 -8 -64 -13t-64 -11q-65 -11 -139.5 -22t-153.5 -19q14 -73 25 -145.5t25 -145.5q3 -17 6 -34.5t7 -34.5q3 -14 10.5 -27.5t12.5 -26.5q4 -11 8 -22.5t7 -22.5q2 -10 -1 -15t-7 -6q-9 -7 -17 7.5t-14.5 35t-10.5 39.5t-4 22q-2 8 -3.5 17t-3.5 19
q-39 64 -97.5 113t-127 85t-143 59.5t-145.5 36.5q-20 5 -42.5 8.5t-43.5 3.5h-11.5t-14.5 1t-12 4.5t-4 9.5q0 8 10 10.5t23 2.5t25.5 -1.5t18.5 -1.5q44 -2 87 -1.5t87 2.5q166 6 327 24q-6 28 -13 56t-16 55q-4 14 -14 31t-10 31q0 6 4 9t9 1q8 -3 15 -16.5t12 -30.5
t8 -33t5 -22l19 -79q73 8 146 18t145 24q28 4 55 9.5t53 13.5q8 3 19.5 7t19.5 -3q8 -8 0.5 -14t-13.5 -8zM620 519q-5 33 -11 65l-12 64q-109 -11 -217 -18.5t-217 -7.5q-5 0 -8 -1q70 -15 140.5 -41t136 -63t122 -85t99.5 -107q-9 45 -17 94t-16 100z" />
    <glyph glyph-name="U" unicode="U" horiz-adv-x="443" 
d="M396 460l9 -40.5t6.5 -45t-3.5 -42.5t-21 -35q-23 -21 -52.5 -36.5t-62 -25.5t-66 -16t-63.5 -7q-24 -1 -44.5 1.5t-36.5 10.5t-27 23.5t-15 40.5q-11 64 -3 131t18 130q4 26 9 52.5t10 52.5q1 6 2 15t2.5 18.5t4.5 18t9 12.5q8 7 10.5 2.5t2.5 -13.5t-2 -18.5t-2 -11.5
q-4 -11 -6.5 -21.5t-4.5 -21.5q-11 -51 -19 -101.5t-13 -102.5q-3 -27 -4 -55t1 -55q1 -19 4.5 -38t15.5 -33q12 -12 28.5 -16.5t35 -4.5t37 2.5t32.5 5.5q45 7 90.5 22t83.5 41q23 17 28 38t0 50q-6 50 -18.5 97t-20.5 96q-5 32 -7.5 65.5t0.5 65.5q2 11 2.5 25.5
t11.5 20.5q7 4 10 0t3.5 -11t-1 -14t-1.5 -10q-9 -32 -8 -65t6.5 -67t13.5 -67t15 -63z" />
    <glyph glyph-name="V" unicode="V" horiz-adv-x="436" 
d="M433 785q5 -5 4.5 -11t-3 -12.5t-6 -13t-4.5 -10.5q-8 -20 -12 -41t-7 -43q-9 -54 -16.5 -107t-14.5 -106l-19 -113q-5 -25 -11 -50t-19 -48q-12 -21 -32 -20.5t-41 12t-39.5 28.5t-27.5 28q-29 35 -43 79t-27 87q-14 48 -29 97t-35 96q-12 29 -28 52q-3 6 -8 17t4 16
q6 4 11.5 -1t8.5 -10q18 -32 30.5 -66.5t24.5 -69.5q19 -57 34 -113.5t37 -112.5q7 -19 18.5 -38.5t27 -36t34.5 -28.5t40 -16q12 -2 19.5 4.5t12 16.5t7 21.5t4.5 19.5q7 29 12 57t10 57q8 56 15.5 111t16.5 112q4 29 10 57.5t12 56.5q0 3 2.5 12t6 18t9 13.5t11.5 -1.5z
" />
    <glyph glyph-name="W" unicode="W" horiz-adv-x="544" 
d="M485 675q8 -63 15.5 -126t8.5 -127q1 -29 0.5 -61.5t-6 -64.5t-18.5 -60.5t-37 -48.5q-30 -27 -68 -25t-67 29q-21 20 -36 45t-25.5 52.5t-17.5 56t-11 55.5q-3 10 -3 19q-3 -11 -13 -33.5t-24 -48t-31.5 -49.5t-35.5 -38.5t-36.5 -15t-34.5 22.5q-12 18 -18.5 41
t-9.5 47t-3 47.5t1 44.5q2 44 8.5 86t18.5 84q12 44 34 81q1 3 5 10.5t9.5 14t11.5 9t11 -3.5q4 -5 2.5 -10.5t-5.5 -10.5t-9 -10l-8 -8q-19 -26 -30.5 -58.5t-18 -67t-8.5 -69.5t-2 -66v-38t2.5 -42t8.5 -40.5t18 -33.5q9 -11 20.5 -9t22 10t19.5 18.5t14 17.5
q24 32 42 69.5t27 75.5q5 20 4 39.5t-3 39.5q0 3 -1 10t-0.5 13.5t3.5 11.5t10 5q8 3 11.5 -2.5t5 -14t1 -17t-0.5 -12.5q-2 -19 -3.5 -37.5t0.5 -37.5q6 -51 19 -101.5t39 -94.5q9 -15 20 -29t25 -24t30.5 -14.5t35.5 1.5t32.5 18t22.5 28.5t15 34.5t9 36q10 54 9.5 110
t-6 112.5t-14 112t-14.5 109.5l-7 58q-1 8 -1 19.5t9 14.5t12.5 -5.5t3.5 -13.5q-2 -36 1.5 -71t8.5 -70z" />
    <glyph glyph-name="X" unicode="X" horiz-adv-x="494" 
d="M553 271q4 0 8.5 -2.5t7 -6t2.5 -7.5t-5 -7q-10 -5 -21.5 -1.5t-19.5 6.5q-18 5 -35.5 9.5t-34.5 11.5q-62 21 -118 52.5t-107 73.5q-26 -44 -54 -85.5t-60 -81.5q-6 -7 -14 -18.5t-18 -22t-21 -17.5t-21 -7q-16 1 -20 21.5t-2 47.5t6.5 52t5.5 35q5 48 9 96.5t4 98.5
q0 36 -3.5 73.5t-14.5 72.5q-2 4 -5 9.5t-5 11.5t-2.5 11.5t3.5 9.5q5 6 9.5 3.5t8 -8t6.5 -12.5t4 -10q10 -36 29 -70.5t42.5 -66t51 -60t54.5 -53.5q22 41 43 81.5t38 83.5q12 29 22.5 59.5t15.5 60.5q0 4 -0.5 11.5t0.5 15t3.5 13t9.5 5.5t10 -6t3 -13.5t-2 -15.5t-3 -11
q-7 -32 -16 -61.5t-20 -58.5q-19 -46 -40.5 -90.5t-47.5 -86.5q140 -116 314 -146zM213 414q-45 40 -83.5 86.5t-67.5 99.5l-13 25q2 -20 3 -40t1 -40q0 -49 -4.5 -96.5t-9.5 -96.5q0 -6 -3.5 -33t-5.5 -57.5t-1 -54.5t10 -24h1q20 8 35 27t26 35q20 26 39 52.5t37 55.5z
" />
    <glyph glyph-name="Y" unicode="Y" horiz-adv-x="406" 
d="M354 510q4 -89 5.5 -176t-1.5 -175q-2 -40 -4.5 -80.5t-13.5 -80.5q-3 -11 -8.5 -24.5t-19.5 -14.5q-13 -1 -27.5 6t-28.5 17t-26.5 21t-21.5 19q-32 28 -62.5 59t-59.5 63q-11 13 -22.5 28.5t-22 32t-18 34t-8.5 35.5q-1 17 7.5 30.5t22 24t29 18t29.5 13.5
q45 20 93 30.5t98 15.5q-33 -11 -67 -21t-66 -21q-17 -6 -41.5 -15t-45.5 -22t-32 -31.5t-2 -42.5q19 -48 55 -88t71 -75q20 -18 39 -35t41 -34q4 -3 12.5 -10t17.5 -14t18 -11.5t15 -3.5q9 13 13 29.5t6 34.5t2.5 35.5t1.5 31.5q3 47 4 93t0 93q0 176 -12 350
q-29 -62 -69 -117t-92 -99q-3 -4 -13 -13.5t-21 -17.5t-21.5 -12t-14.5 4q-6 3 -6 9t3 13t7 13.5t6 10.5q8 15 13.5 31.5t10.5 32.5q10 34 17.5 67.5t12.5 67.5q1 13 2.5 25t1.5 23q0 6 -1 13.5l-2 15t-0.5 14.5t4.5 12t7.5 5t6.5 -3.5t4.5 -8t1.5 -8.5q2 -14 0 -28.5
t-4 -28.5q-8 -107 -46 -210l-12 -35q34 17 62 48t52 60q37 47 62 101q6 14 10 27t9 27q3 20 16 16q7 1 10 -5.5t4 -15.5t0.5 -18.5t0.5 -14.5l8 -140v0z" />
    <glyph glyph-name="Z" unicode="Z" horiz-adv-x="486" 
d="M566 216q5 -2 11.5 -8.5t0.5 -13.5q-5 -5 -13.5 -3t-15.5 4q-11 5 -21.5 9t-21.5 8q-49 14 -99 19t-101 -1q-51 -5 -98.5 -22.5t-91.5 -43.5q-14 -9 -28.5 -18t-26.5 -20q-4 -2 -9.5 -7.5t-11.5 -10t-12 -6.5t-10 4q-5 4 -3 10t7 12t11 11.5t9 8.5l62 72q38 44 74 88
t73 90q75 90 143 182q17 23 33.5 46.5t31.5 48.5q11 14 24.5 34t13.5 38q-11 5 -25.5 0t-23.5 -9q-19 -7 -37.5 -14.5t-36.5 -15.5q-34 -14 -67.5 -26.5t-68.5 -20.5q-29 -7 -57.5 -11t-57.5 -2q-12 1 -30 0.5t-26 9.5q-7 9 -2.5 12t13 3.5t17.5 -1t12 -2.5q5 -1 10.5 -1.5
t10.5 -0.5q38 -2 76 5t73 18q38 12 74 28t74 30q7 3 22.5 9t31.5 8t27 -2.5t8 -22.5t-11.5 -35.5t-19 -34t-22.5 -32t-22 -29.5q-25 -35 -50.5 -68.5t-51.5 -65.5q-48 -63 -98 -124t-101 -122l-54 -64q5 5 10 6q90 57 189.5 73.5t202.5 -9.5q20 -5 40 -9t40 -11z" />
    <glyph glyph-name="bracketleft" unicode="[" horiz-adv-x="163" 
d="M19 224q-6 30 -5 61t2 61l4 130q2 26 2.5 52.5t-0.5 52.5q-2 11 -5 23.5t2 21.5q10 18 23.5 18.5t33.5 -1.5q6 0 12 -0.5t12 -1.5q9 -2 18 -2t17 -5q7 -4 9.5 -13t-9.5 -10q-10 0 -19.5 5t-18.5 7q-15 2 -29 0t-28 -1q7 -17 4.5 -42t-4.5 -42q0 -49 -2 -96.5t-4 -95.5
q0 -23 -1 -46.5t1 -46.5q1 -10 2 -22.5t10 -18.5q12 -10 29 -7t29 11q3 1 9 6.5t12.5 10t12.5 6t9 -5.5q6 -12 -5 -21t-27.5 -14.5t-32.5 -8t-21 -2.5q-17 2 -28 11.5t-14 25.5z" />
    <glyph glyph-name="backslash" unicode="\" horiz-adv-x="255" 
d="M281 130q-20 10 -38 27.5t-32 33.5q-63 75 -105.5 166t-63.5 184q-5 17 -9.5 35.5t-5.5 35.5q-1 6 0.5 13.5t4.5 12t7 4t8 -10.5q5 -7 4.5 -15.5t1.5 -17.5q1 -14 3.5 -27.5t5.5 -24.5q17 -63 40.5 -122.5t52.5 -116.5q12 -23 26 -48t30.5 -49t35 -45t41.5 -36h-2
q-3 0 -5 1z" />
    <glyph glyph-name="bracketright" unicode="]" horiz-adv-x="175" 
d="M28 189q-6 2 -10 6.5t-4.5 9t2.5 7.5t12 2q14 -1 26.5 -7t26.5 -5q13 0 19 7.5t9 18t3 22.5t1 21q8 68 11 135.5t7 135.5q2 19 2 37t2 36q-7 -2 -14.5 -2.5t-15.5 -2.5q-12 -3 -27 -3q-11 -1 -21.5 -1.5t-21.5 4.5q-12 9 -3.5 16t19.5 4q5 -2 12.5 -3t13.5 -1t17 3.5
t22.5 6.5t21.5 4t13 -5q5 -2 7 -8q3 -6 2.5 -14t-2 -17t-4 -18t-3.5 -15l-4 -64l-8 -136q-2 -34 -4 -67t-8 -67q-2 -11 -5 -20.5t-13 -17.5q-8 -6 -18 -8t-21.5 -1.5t-22 2.5t-19.5 5z" />
    <glyph glyph-name="asciicircum" unicode="^" horiz-adv-x="244" 
d="M57 513q-5 13 2.5 26t12.5 24q8 17 17.5 33.5t19.5 33.5q2 3 6 12t9.5 17t11.5 12.5t12 0.5q7 -2 8 -8.5t0 -15t-3 -16.5t-2 -13q2 -12 5.5 -26.5t12.5 -24.5q5 -8 12.5 -17t7.5 -18q0 -7 -3 -9t-7.5 -1t-9 4t-6.5 6q-5 7 -8 15t-7 16q-11 24 -16 54q0 3 -0.5 5t-0.5 4
q-17 -18 -30.5 -44.5t-19.5 -52.5q0 -3 -1.5 -8t-4 -9.5t-6.5 -6.5t-10 1l-2 6v0z" />
    <glyph glyph-name="underscore" unicode="_" horiz-adv-x="271" 
d="M28 275q-9 3 -12.5 8.5t-2 10t7.5 6t15 -1.5q43 -11 86.5 -18.5t88.5 -1.5q2 0 11.5 0.5t19 -0.5t14.5 -5t-2 -12q-5 -5 -12.5 -6t-16 -0.5t-17 1.5t-14.5 1q-30 0 -61 2.5t-60 7.5q-11 2 -22.5 3.5t-22.5 4.5z" />
    <glyph glyph-name="grave" unicode="`" horiz-adv-x="247" 
d="M22 722q-2 2 -3.5 4t-5.5 4q17 -8 30.5 -17.5t26.5 -20.5q29 -23 57 -48t55 -49q4 -3 13.5 -9t19 -13t15 -15t1.5 -14q-5 -8 -14 -5.5t-18 10t-16.5 16t-11.5 11.5q-29 24 -56.5 51t-53.5 54q-9 11 -19.5 20.5t-19.5 20.5z" />
    <glyph glyph-name="a" unicode="a" 
d="M255 367q11 6 17 -2t-6 -21q-18 -18 -40.5 -34.5t-45.5 -27.5q-16 -7 -34 -12t-36.5 -6.5t-36.5 2t-34 12.5q-8 5 -18.5 16.5t-5.5 23.5q4 10 17 12.5t28.5 1.5t30 -4t21.5 -4q12 -2 26 -3.5t28.5 -1.5t28 3t24.5 10q14 9 16.5 25t-4.5 30q-12 23 -37 35.5t-48 18.5
q-15 4 -31.5 6.5t-33.5 0.5q-3 0 -10 -2t-14 -3.5t-13 -1t-8 6.5q-5 13 12.5 16.5t41.5 2t45.5 -5.5t23.5 -5q15 -5 31.5 -12.5t31 -18.5t24 -25.5t9.5 -32.5zM140 287q18 5 31 12l7 3q-19 -1 -38 0.5t-39 3.5q-15 2 -34 6t-35 -1v-1q2 0 2 -1q6 -13 19 -19t29 -7.5t31.5 0
t26.5 4.5z" />
    <glyph glyph-name="b" unicode="b" horiz-adv-x="186" 
d="M155 461q7 -7 6.5 -16.5t-4 -19.5t-9.5 -19l-10 -15q-3 -4 -11.5 -14.5t-19 -20.5t-20.5 -14.5t-17 3.5q-4 -16 -7.5 -33t-4.5 -34q0 -4 -0.5 -10.5t-2 -12.5t-4.5 -10t-9 -4q-9 -1 -12 16.5t-3 40t2 43t2 23.5q4 130 13 257t6 256q-1 29 -3 57t-7 56q-1 5 -3.5 12
t-5 14.5t-3 14t3.5 11.5q7 7 12 3t8 -13t5 -18.5t2 -12.5l4 -38t3 -39q4 -74 2 -148t-6 -147.5t-8.5 -147.5t-4.5 -147q4 16 9 33.5t12.5 35t17.5 32.5t25 25q8 6 20.5 7.5t21.5 -6.5zM142 448q-12 5 -23 -5t-20 -25t-15 -31t-8 -24q12 10 24 17t22 20q6 8 15 22.5t5 25.5z
" />
    <glyph glyph-name="c" unicode="c" horiz-adv-x="360" 
d="M358 453q-54 12 -110 11t-108 -18q-12 -4 -33 -13.5t-38.5 -23t-25.5 -30t6 -35.5q11 -15 29 -24.5t38.5 -14.5t41.5 -7t38 -3q26 -2 52.5 -1.5t51.5 8.5q10 3 20.5 9t21.5 2q8 -4 6 -9t-8 -9.5t-13 -8t-10 -3.5q-20 -5 -40.5 -7t-40.5 -4q-23 -1 -61 1.5t-74 12.5
t-60.5 30.5t-20.5 55.5q2 25 21 43t39 29q38 20 80.5 30t85.5 9q23 -2 48 -5.5t46 -13.5z" />
    <glyph glyph-name="d" unicode="d" horiz-adv-x="328" 
d="M429 345q6 0 15 -4t4 -12q-3 -5 -7.5 -7t-10.5 -2.5t-12 0t-10 0.5q-20 2 -39 1t-38 -3q-17 0 -34.5 -0.5t-37.5 -0.5q2 -15 3 -31t5 -31q1 -4 3 -11t3.5 -14.5t0 -14t-7.5 -8.5q-7 -3 -11.5 1.5t-8 12t-6 15t-4.5 11.5q-10 19 -21 37t-25 34q-9 1 -27 2.5t-39 4.5
t-42 8.5t-35 14.5t-19 21.5t7 30.5q16 24 40 22t48.5 -16.5t45.5 -35t31 -33.5q10 -1 20 -1h19q-11 149 -14.5 297t-15.5 297l-13 108q-2 6 1.5 14.5t13.5 4.5q8 -5 8.5 -15t1.5 -18q0 -46 5 -91t8 -90q8 -128 11.5 -254t12.5 -253q44 0 85.5 3t85.5 6zM138 341l18 -2t18 -1
q-9 10 -21 22.5t-26.5 22t-30 15t-30.5 2.5q-19 -3 -19 -21q0 -4 2 -7q4 -9 15 -14.5t24.5 -9t27 -5zM215 318v-1h1l14 -22t14 -23l-4 45q-5 0 -10 0.5t-10 0.5h-5z" />
    <glyph glyph-name="e" unicode="e" horiz-adv-x="286" 
d="M394 396q-50 -37 -111 -62q-23 -9 -60.5 -19t-75 -11t-68 12t-39.5 49q-8 0 -22 2t-17 13q-2 7 3 10t12 3t14 -1.5t10 -1.5q8 27 35 39.5t53 16.5q11 2 25 3.5t28.5 1t27.5 -4.5t21 -13q15 -17 4 -30t-31.5 -21.5t-43 -13t-31.5 -4.5q-32 -2 -63 0q9 -23 31.5 -32
t49.5 -9t54 6t44 11q39 10 75.5 25.5t74.5 30.5zM77 403q-10 -6 -14 -17q23 -2 47 -1.5t47 5.5q5 0 14 2t18 5.5t16 8.5t7 12q-3 4 -10 6t-15 3t-16.5 0.5t-12.5 -0.5q-20 -1 -42 -5.5t-39 -18.5z" />
    <glyph glyph-name="f" unicode="f" horiz-adv-x="336" 
d="M393 379q3 1 5 2.5t4 2.5q-18 -19 -39.5 -28.5t-45.5 -12.5t-48.5 -0.5t-48.5 8.5q-18 -16 -41.5 -26.5t-48.5 -10.5q13 -38 23.5 -76t17.5 -76q1 -5 3.5 -16t3.5 -21.5t-1 -18.5t-11 -7q-6 1 -9 11t-4.5 22.5t-2.5 24.5t-2 17q-7 36 -18 71l-22 70q-14 2 -33.5 11.5
t-35 23.5t-23 31.5t3.5 35.5q4 6 11 8t14.5 1.5t15 -3l13.5 -4.5q-24 86 -35.5 173t-3.5 176q2 23 8 55.5t19 61t35 47t56 13.5q18 -3 32 -13t25.5 -24t20 -30t15.5 -31q17 -38 27.5 -79.5t16.5 -83.5q6 -47 7.5 -94t-5.5 -92q-5 -36 -17 -71t-37 -60q39 -8 78 -6.5t77 18.5
zM55 685q2 -70 13.5 -138.5t31.5 -135.5q27 -10 55 -20.5t57 -18.5q24 22 37 51t19 61t6.5 65t-0.5 63q-2 43 -9 85t-19 84q-5 17 -12 37t-16.5 38.5t-22 34t-29.5 24.5q-14 7 -27 6t-24 -8.5t-19.5 -19t-14.5 -24.5q-18 -43 -22.5 -90.5t-3.5 -93.5zM78 346q5 -3 11 -4.5
t11 -3.5q-1 5 -3 10.5t-4 10.5l-12 37q-8 3 -21.5 8.5t-21.5 1.5h-2v-3q-2 -9 2 -17.5t10.5 -16t15 -13.5t14.5 -10zM131 334q17 2 32.5 8t29.5 15q-14 5 -26.5 9t-24.5 9l-35 12l16 -53h8z" />
    <glyph glyph-name="g" unicode="g" horiz-adv-x="258" 
d="M533 256q25 -3 53 -7t55 -10t53 -15.5t48 -24.5q-24 14 -52 22t-57.5 12.5t-58.5 6.5t-56 5q-74 8 -148 8.5t-149 -4.5q8 -41 17 -80t18 -80q3 -16 7.5 -34t7.5 -36.5t3 -36.5t-5 -34q-6 -20 -21.5 -26t-35.5 -2.5t-43 14t-44 23.5t-38 25t-25 19q-29 23 -56 50.5
t-45 60.5q-9 17 -14.5 38.5t2.5 39.5q6 13 17 22t24.5 15.5t28 10.5t26.5 7q37 9 75.5 14t76.5 8q-7 38 -12 74t-7 74q-1 2 -3 2q-2 -5 -4.5 -9t-4.5 -9q-9 -15 -22 -33.5t-29.5 -34.5t-35.5 -27.5t-39 -12.5q-13 0 -20.5 6.5t-9.5 16.5t-0.5 21.5t6.5 20.5q9 16 22.5 28.5
t29.5 21.5t33.5 15.5t34.5 10.5l27 4q2 5 5 16t6.5 21.5t8.5 17t11 3.5q6 -4 7 -11t0.5 -15.5t-2 -17t-1.5 -14.5q4 0 11 -1t13 -3.5t9.5 -6.5t0.5 -11q-3 -9 -14.5 -6t-17.5 5q1 -37 6 -73.5t11 -71.5q80 5 159 2t157 -14zM200 248q-38 -3 -75.5 -8t-74.5 -14
q-10 -2 -22 -5.5t-23.5 -8.5t-21 -12t-14.5 -17q-5 -8 -4.5 -17t3.5 -19t8 -19t9 -15q17 -29 41 -52t50 -43q5 -4 19 -14t32.5 -21.5t38.5 -22t37.5 -15.5t29.5 -2.5t15 17.5q6 32 -1 68t-15 66l-30 142zM105 351q28 29 49 64q-14 -2 -38 -9.5t-46 -20t-35.5 -29.5t-7.5 -38
q2 -12 13 -9.5t24.5 11t25.5 18.5t15 13zM745 198q1 0 2 -1q-2 0 -3 1h1z" />
    <glyph glyph-name="h" unicode="h" horiz-adv-x="263" 
d="M355 333q-15 -18 -34 -32t-42 -19q-35 -8 -63 10t-47 44q-3 3 -12 18t-19.5 31t-20 28t-12.5 10q-16 -8 -24 -32.5t-12 -41.5q-2 -6 -2.5 -16t-2.5 -20.5t-6 -18.5t-11 -11q-1 -1 -4 0q-4 0 -5 1q-5 4 -6 12t-0.5 16.5t2.5 17t2 14.5q2 18 1 36t-2 38q-1 38 -4 75.5
t-9 75.5q-2 19 -5.5 37t-8.5 36q-4 11 -12.5 26.5t-6.5 27.5q1 9 5.5 9.5t9.5 -3.5t9 -9.5t5 -8.5q4 -14 6.5 -28t5.5 -27q14 -63 19 -125.5t6 -125.5q3 8 7 20t10.5 23t15 18.5t20.5 6.5q10 0 18.5 -8t15.5 -18.5t12.5 -22t10.5 -18.5q14 -23 32.5 -47.5t46.5 -33.5
q26 -8 49 2t46 22z" />
    <glyph glyph-name="i" unicode="i" horiz-adv-x="119" 
d="M163 527q11 -16 6.5 -25.5t-16.5 -13.5t-26.5 -3.5t-23.5 3.5q-22 8 -41 23t-36 29q-10 6 -18 12.5t-17 11.5q-8 4 -17.5 7t-16.5 10q-5 5 -4 9.5t6 7.5q3 1 9 1q13 -2 24.5 -11t22.5 -17q-4 6 0 9.5t10.5 5t13.5 2t10 0.5q12 -3 24 -7t23 -9q18 -7 36.5 -17.5
t30.5 -27.5zM63 303q5 -11 10.5 -21t0.5 -22q-4 -8 -12.5 -1t-10.5 12q-5 10 -6 20.5t-5 21.5q-6 27 -8 55t-1 55q0 6 -1 15.5t-0.5 19t3 17t10.5 9.5q8 1 10.5 -4.5t2.5 -14t-2 -17t-3 -11.5q-2 -15 -2.5 -32t1 -35t5 -35.5t8.5 -31.5zM151 511q-3 8 -10.5 15t-16.5 13
t-19 10t-17 7q-19 8 -38 8q-6 0 -13.5 -0.5t-13.5 1.5l7 -5q20 -17 43.5 -35.5t50.5 -22.5q2 -2 13.5 -1t13.5 6v4z" />
    <glyph glyph-name="j" unicode="j" horiz-adv-x="198" 
d="M144 9q1 -12 4 -40.5t1.5 -56t-12 -44.5t-37.5 -5q-19 10 -38 29.5t-33.5 43.5t-22 50t-2.5 49q8 35 29 64.5t45 55.5q-17 -28 -35 -59.5t-23 -63.5q-5 -24 7 -49t26 -44q15 -24 37 -43q1 -1 5.5 -4t10 -6.5t10 -6t4.5 -0.5q2 0 2 1v1q5 9 5 22v24l-4 71q-3 38 -6 74.5
t-5 74.5q-4 69 -5.5 138t4.5 138q0 -1 -1 -1t-1 -1q-27 -36 -66 -50q-14 -5 -27.5 -8t-29.5 -4q26 4 49.5 14.5t42.5 28.5q6 7 12.5 15t10.5 16q1 4 3.5 12t5.5 15.5t7.5 12.5t10.5 3q7 -1 9 -7.5t1 -15t-3 -17t-3 -13.5q-3 -32 -4 -65t0 -67q2 -71 6.5 -141t9.5 -141z
M228 603q0 -10 -5.5 -17.5t-14 -12.5t-18 -8t-17.5 -4q-37 -6 -68 9.5t-51 45.5q-11 17 -15 34q-7 22 4 47q-4 -31 13.5 -57.5t42.5 -43.5q14 -10 29 -13.5t31 -2.5q11 1 27 6t21 16v1q-11 11 -26.5 17t-29.5 10q-13 5 -32 6.5t-30 12.5q-11 10 -1.5 15.5t19.5 3.5
q15 -3 29.5 -8.5t29.5 -10.5q7 -3 17.5 -6.5t20.5 -9t17 -13t7 -17.5z" />
    <glyph glyph-name="k" unicode="k" horiz-adv-x="281" 
d="M479 352q5 0 9.5 -0.5t9.5 -0.5l-78 -13q-30 -4 -62.5 -8t-64.5 -5.5t-64 0t-62 9.5q-6 2 -12.5 4.5t-12.5 6.5q-2 -16 -6.5 -33.5t-12.5 -31.5q-7 -11 -14 -13t-14 1.5t-12.5 10.5t-9.5 16q-17 35 -26 74.5t-16 78.5q-14 80 -20.5 161.5t-7.5 162.5v42t-2 43
q-1 7 -0.5 17.5t8.5 14.5q7 5 11 -0.5t6 -11.5q1 -11 -1 -25t-2 -26q-1 -52 0 -106q2 -58 6.5 -115t13.5 -115q5 -29 9.5 -57.5t12.5 -57.5q3 -9 6 -22t7 -26.5t9.5 -25.5t13.5 -17q14 11 18.5 35t2.5 40q-2 3 -5 10t-4 14.5t1 12.5t10 4q6 4 10 1t6 -8.5t3 -12t1 -9.5l3 -3
q10 -9 25 -13.5t31.5 -6.5t32.5 -2h29q22 -1 44 -0.5t45 0.5l125 6v0z" />
    <glyph glyph-name="l" unicode="l" horiz-adv-x="101" 
d="M82 774q2 -15 1 -29.5t-2 -28.5q-3 -51 -10 -101.5t-13 -101t-9.5 -101t0.5 -101.5q1 -17 4 -34.5t9 -33.5q1 -4 5.5 -10.5t7.5 -13t3.5 -12.5t-4.5 -10q-9 -7 -17 6t-13.5 32.5t-9 37.5t-3.5 21q-8 72 0 144.5t18 144.5q5 36 9 72.5t5 74.5q0 10 0.5 21.5t-1.5 21.5
q-1 11 -4 20t-1 19q1 5 6 7t10 -1q9 -6 9 -19.5v-24.5z" />
    <glyph glyph-name="m" unicode="m" horiz-adv-x="363" 
d="M378 237q-17 6 -28 14t-23 19q-17 18 -27 42t-15 47l-4 13l-14 -24q-5 -7 -11 -15.5t-13.5 -16t-16 -12t-18.5 -3.5q-16 1 -26 14.5t-16 31.5t-8.5 36.5t-3.5 30.5l-3 27l-17 -31q-2 -4 -8.5 -16.5t-16 -29t-20.5 -33.5t-21.5 -29.5t-19.5 -16.5t-14 5q-5 8 -4 22t1 22
q1 17 1 32v32t-4 32t-5 31q-1 6 2.5 12t10.5 3q8 -5 11.5 -15t4 -22t0 -23.5t-0.5 -19.5q0 -22 -1.5 -44.5t0.5 -45.5q20 23 35.5 51t29.5 56q3 4 8 17.5t11 27t13.5 23t14.5 6.5q6 0 8.5 -4.5t3 -10.5t0 -12.5t-0.5 -10.5q-2 -14 -1 -28.5t3 -28.5q1 -5 3.5 -17t6.5 -25
t9.5 -22t13.5 -8q9 -2 17 6t13 14q18 19 27 48q2 8 6 20.5t15 10.5q7 1 11.5 -9t6.5 -24t3 -28t3 -20q8 -30 22.5 -51.5t36.5 -41.5z" />
    <glyph glyph-name="n" unicode="n" horiz-adv-x="312" 
d="M358 398q-11 -23 -28.5 -45t-46.5 -28q-25 -5 -46 10t-35 33q-9 11 -16 23.5t-15 23.5q-3 6 -7.5 14t-10.5 11q-7 -2 -12.5 -10t-10.5 -18t-9.5 -19.5t-7.5 -14.5q-8 -17 -17.5 -35t-23.5 -30q-8 -8 -17 -10.5t-17 2.5q-5 2 -6.5 4.5t-3.5 4.5q-6 11 -6 25v25
q1 14 0.5 28t-2.5 27q-1 11 -5 20.5t-2 19.5q2 6 7 7.5t10 -1.5q6 -3 8 -10t3 -15t0.5 -16t0.5 -14q0 -9 -1.5 -21t-2 -24.5t1 -24.5t6.5 -19h4q11 2 19.5 15t17 30t17 36t17.5 33t19 21t23 0q16 -9 25 -28t20 -33q10 -14 22.5 -29t28.5 -22q13 -5 25 -2.5t23 9.5t20.5 16
t18.5 17z" />
    <glyph glyph-name="o" unicode="o" horiz-adv-x="234" 
d="M207 418q4 -19 -4 -36t-23 -30t-34 -21.5t-35 -10.5q-14 -3 -30 -0.5t-29 10t-20 20t-4 30.5q2 12 9.5 22.5t16.5 18.5q3 2 10.5 6.5t15.5 8t14.5 3t8.5 -9.5q10 3 19 6t20 5q14 2 30.5 2.5t27.5 -10.5zM185 390q3 6 5 13.5t-2 13.5q-11 10 -29.5 7t-30.5 -7
q-4 -1 -14 -6.5t-21 -10.5t-20 -6.5t-11 6.5q-6 -4 -10.5 -9.5t-5.5 -12.5q-2 -17 11 -30q14 -13 33 -13.5t37.5 7.5t34 21t23.5 27z" />
    <glyph glyph-name="p" unicode="p" horiz-adv-x="315" 
d="M74 121q-21 34 -37.5 81.5t-18.5 95.5t14.5 89.5t61.5 64.5q20 9 46.5 15t54.5 6t53.5 -7.5t43.5 -24.5q10 -10 12 -22.5t-2.5 -24.5t-13 -23t-17.5 -18q-22 -18 -47.5 -28.5t-53.5 -18.5q-10 -2 -22.5 -6.5t-23.5 3.5q-6 6 -3.5 10t9 7t14 4.5t10.5 1.5q15 1 38 8
t44.5 19t35.5 28.5t10 36.5q-3 7 -11 12.5t-17.5 9t-19.5 5.5t-17 3q-20 3 -41 2t-41 -6q-29 -8 -52 -24t-34 -44q-14 -32 -13 -69.5t6 -70.5q3 -20 8 -39.5t11 -37.5l5 -12.5t6.5 -15.5t8.5 -14.5t11 -7.5h1q1 0 1 3q8 15 5.5 36.5t-3.5 38.5q-2 20 -3.5 40.5t-3.5 40.5
q-3 20 -6 41t-9 40q-2 3 -4.5 10t-4 14t0 12.5t8.5 5.5t11 -4.5t6.5 -11t4 -13.5t1.5 -11q6 -28 9.5 -55t5.5 -56q1 -15 2 -32t0 -34.5t-4.5 -34.5t-10.5 -30q-4 -6 -9 -4q-5 1 -9 6.5t-7 9.5z" />
    <glyph glyph-name="q" unicode="q" horiz-adv-x="281" 
d="M481 202q-26 -5 -50.5 -7.5t-49.5 -7.5q-82 -12 -158 -27q3 -80 4.5 -162.5t18.5 -161.5q2 -9 7 -19.5t2 -20.5q-2 -9 -6 -9t-8.5 4t-8 10t-4.5 10q-5 22 -7 46.5t-4 47.5q-6 63 -8 125.5t-4 125.5q-55 -10 -110 -19t-111 -11q-6 0 -21.5 -1.5t-32 -1.5t-30 3t-16.5 11
t3 11t15 3t18 -1.5t12 -1.5q69 -4 137 7.5t135 22.5q-2 67 -4.5 133.5t-6.5 133.5q0 17 -1 32.5t-3 30.5h-1l-23 -54q-3 -7 -11 -26.5t-19.5 -44.5t-25.5 -50.5t-28 -45t-28 -28.5t-25 0q-13 10 -15 28.5t2.5 39t12 39t12.5 30.5q16 32 39 59t52 47q9 6 19 11t21 10
q1 4 2.5 12t4 15.5t7 12.5t11.5 4q10 0 11.5 -11.5t1.5 -18.5q8 2 20.5 3.5t14.5 -9.5q1 -6 -3 -9.5t-10 -5t-12 -2t-10 -0.5l14 -332q62 10 125.5 17.5t126.5 2.5h6zM105 367q17 32 31 64.5t26 66.5q-32 -17 -58 -43t-43 -59q-9 -18 -16 -38t-10 -40q0 -3 -1 -9.5t-1 -14
t1 -14t6 -8.5q11 4 21 16t18 26t14.5 28.5t11.5 24.5z" />
    <glyph glyph-name="r" unicode="r" horiz-adv-x="296" 
d="M402 342q5 0 10.5 1t10.5 1q-39 -14 -77.5 -25t-79.5 -16q-24 -3 -53 -5t-57.5 2t-53.5 15.5t-40 35.5q-3 -8 -6 -14t-5 -13v-27q0 -13 -0.5 -25.5t-5.5 -24.5q0 -7 -2.5 -11.5t-6.5 -5.5t-8 1.5t-6 9.5q-3 8 -2.5 17t2.5 17q1 9 2 19t4 19q5 14 4.5 27.5t-0.5 27.5
q0 28 -0.5 56.5t-5.5 54.5q-3 9 -6.5 20t-0.5 19q3 7 6.5 7.5t7.5 -1.5t7 -6.5t3 -7.5q2 -14 2 -26t2 -25q2 -23 2.5 -45.5t1.5 -45.5q5 10 20 31.5t34 40t38.5 27.5t33.5 -6q12 -14 2.5 -31.5t-27 -33.5t-37.5 -28.5t-30 -16.5q19 -20 46 -27t56.5 -8t59 3t53.5 7
q25 3 50.5 8t51.5 8zM70 365q17 5 33.5 17.5t30.5 23.5q1 1 6.5 7t11.5 13.5t10 13.5t1 8l-1 1q-10 3 -21 -4t-21.5 -17t-19.5 -21t-14 -17z" />
    <glyph glyph-name="s" unicode="s" horiz-adv-x="315" 
d="M315 313q5 -16 -2.5 -27.5t-20.5 -19.5t-29 -13t-27 -8q-42 -9 -89.5 -10.5t-88.5 12.5q-25 9 -25 25t12 33t29.5 32.5t29.5 23.5q-6 -6 -16 -18t-19.5 -25t-15.5 -25.5t-3 -21.5q8 -8 20.5 -9.5t23.5 -2.5q24 -3 48 -2.5t47 2.5q10 1 26.5 2.5t33.5 6t30 12.5t15 21
q-1 10 -9.5 18.5t-20.5 15.5t-24.5 12.5t-20.5 9.5q-29 14 -59 24.5t-60 23.5q-7 2 -29 9.5t-43.5 18.5t-34 24t-0.5 27q9 12 25.5 15t30.5 3q23 0 46 -6.5t41 -20.5q4 -3 10.5 -9t11 -13t6 -14t-4.5 -13q-3 -5 -8 -5t-8 5q-8 14 -14 23.5t-20 17.5q-8 4 -21.5 8t-28 6.5
t-28 0.5t-20.5 -10q12 -14 33.5 -21.5t37.5 -14.5l91 -36q16 -6 37.5 -13.5t42.5 -18t38 -24t24 -31.5z" />
    <glyph glyph-name="t" unicode="t" horiz-adv-x="166" 
d="M336 469q9 0 10.5 -7t-3.5 -13q-12 -12 -32 -16t-36 -6q-48 -7 -96 2.5t-93 26.5l4 -89q14 -29 25 -60t19 -63q1 -5 3 -18.5t1 -26t-6.5 -20.5t-19.5 0q-10 4 -16 15.5t-9.5 25.5t-4.5 27.5t-2 22.5q-5 32 -8 64.5t-5 64.5q-12 21 -26.5 41t-31.5 39q-3 3 -9.5 8.5
t-12.5 11t-8.5 11.5t2.5 11q4 6 15.5 2.5t24.5 -11t24.5 -15.5t16.5 -10q-3 55 -6.5 110t-9.5 110q-3 26 -6 54t-13 53q-2 8 -5.5 17t-1.5 18q2 6 8 7t11 -3q8 -8 9 -19t3 -20q17 -84 23 -168.5t11 -169.5q32 -13 67 -22t71 -10q31 -3 65 5q12 3 24 11.5t24 8.5zM111 307
q-5 13 -9.5 24t-9.5 22q2 -25 4 -51t5 -51q2 -14 5.5 -30t12.5 -27q1 0 3 -1q8 -1 8 15.5t-4 37t-9 39.5t-6 22zM66 415q0 26 -3 50l-18 10q-7 2 -12 4.5t-10 4.5q12 -16 23 -33t20 -36z" />
    <glyph glyph-name="u" unicode="u" horiz-adv-x="181" 
d="M166 441q1 -38 -6 -77.5t-21 -75.5q-4 -9 -12 -23.5t-19 -27t-24 -18.5t-26 2q-10 5 -16 14.5t-10 20.5t-6 22.5t-3 20.5q-4 23 -5.5 45t-1.5 44q0 20 -1.5 46t5.5 46q3 8 11 10.5t11 -7.5q3 -9 0.5 -19t-4.5 -19q-3 -23 -3.5 -47t1.5 -47q1 -10 1.5 -27t3.5 -34.5
t8.5 -32t16.5 -20.5q10 -6 20 3t19 23.5t15 29.5l8 20q12 36 17.5 77t0.5 79q-2 11 -3.5 19.5t-6.5 17.5l-7 14t-1 16q2 5 7 5t9 -3q8 -6 12.5 -19t6.5 -27t2.5 -27.5t0.5 -22.5v-1z" />
    <glyph glyph-name="v" unicode="v" horiz-adv-x="202" 
d="M173 461q6 4 9 0t4.5 -11t1.5 -14.5v-9.5l-14 -50q-3 -9 -11 -31t-20 -41t-26 -27.5t-29 10.5q-17 21 -24 53t-13 58q-4 14 -8 29t-9 29q-5 10 -12 20.5t-9 21.5q0 7 6 12h7q9 -3 14.5 -12.5t9.5 -21t6.5 -23.5t4.5 -19l20 -81q4 -13 8.5 -31t15.5 -27q0 -1 1 -1h2h1
q9 2 16 12t12.5 22.5t9.5 25t7 19.5q4 13 6.5 26t4.5 27v19t8 16z" />
    <glyph glyph-name="w" unicode="w" 
d="M259 383q5 -41 9.5 -83t1.5 -84q-1 -11 -3.5 -23t-8 -22.5t-13.5 -17.5t-21 -8q-19 2 -32.5 14.5t-23 30t-16 36t-10.5 33.5q-11 38 -16 76t-9 76q-1 -3 -1.5 -5t-0.5 -6q-2 -6 -5 -19.5t-8 -30t-11.5 -33t-15 -28.5t-18.5 -16.5t-21 3.5q-14 12 -18 32.5t-3 43t5.5 44.5
t7.5 37q2 7 4 18t5 22t7.5 20.5t10.5 14.5q5 5 11.5 4t6.5 -9q2 -10 -3.5 -20t-10.5 -18q-19 -48 -24 -104q0 -6 -0.5 -16t0.5 -20t3.5 -19.5t8.5 -14.5q2 0 2 -0.5t1 -0.5h1q7 0 14 15t13 34t10 35.5t6 21.5q1 6 3 21.5t5.5 31.5t8.5 28t13 11q7 0 9.5 -6t3 -13.5
t-0.5 -15.5t-1 -12q0 -20 1.5 -40.5t3.5 -40.5q5 -30 11 -61t16 -61q3 -7 8.5 -20.5t13.5 -26.5t18 -21.5t21 -5.5q14 4 19.5 21.5t6.5 39.5t-1 42.5t-3 30.5q-5 52 -12.5 103.5t-13.5 104.5q-2 20 -3.5 40.5t-3.5 41.5q0 8 -1 14.5t0 13.5q1 13 11.5 17.5t12.5 -11.5
q2 -8 0 -17t-2 -18q-2 -14 -0.5 -29t2.5 -29q5 -37 9.5 -73t9.5 -73z" />
    <glyph glyph-name="x" unicode="x" horiz-adv-x="321" 
d="M343 276q3 -2 6 -6t4.5 -8t0 -7.5t-7.5 -3.5q-11 -2 -20 4.5t-17 12.5l-59 37h1q-20 12 -40 25t-41 29q-15 -28 -32.5 -54.5t-37.5 -51.5q-8 -9 -15 -18.5t-16 -17.5q-2 -2 -7 -5t-10 -5t-9.5 -1.5t-4.5 7.5q-6 0 -7 5q-3 8 1 19.5t6 19.5q1 8 1 14.5v12.5q0 23 -2.5 46
t-6.5 46q-6 28 -15 54.5t-14 53.5q-1 8 0 14.5t8 11.5q7 4 14.5 1.5t14.5 -8.5t13 -13t11 -11q24 -25 49.5 -47t53.5 -42q7 15 13.5 31t9.5 32q2 9 3 23.5t11 18.5q11 5 12 -5t-2 -24.5t-8 -28t-6 -15.5q-4 -11 -8.5 -22t-9.5 -22q39 -29 80 -53t83 -49zM107 292
q13 19 25 39t23 40q-48 36 -93 81l-8 8t-15 15.5t-14.5 14.5t-6.5 5q-4 -18 2.5 -39.5t9.5 -40.5q4 -22 6.5 -44t3.5 -45l7 -96q19 14 32.5 29t27.5 33z" />
    <glyph glyph-name="y" unicode="y" horiz-adv-x="225" 
d="M242 4q0 -110 -21 -219q-6 -34 -15.5 -68t-23.5 -66q-5 -10 -10.5 -21.5t-12.5 -22t-16 -18.5t-21 -11q-9 -2 -16.5 3.5t-13.5 13.5t-10.5 17l-7.5 15q-15 29 -27.5 59.5t-23.5 61.5q-21 64 -34.5 131.5t-11.5 136.5q1 55 16.5 107t52.5 93q-38 -61 -46.5 -133t-0.5 -142
q6 -50 18 -98.5t29 -95.5q6 -18 13 -37.5t15.5 -39t19 -38t23.5 -32.5q8 3 15 10t12.5 16.5t10 19t7.5 16.5q11 26 19.5 53.5t14.5 55.5q20 98 23 196q1 45 -4.5 88t-14 86t-19 85t-19.5 85q-5 29 -9 57.5t-7 57.5q-8 -26 -17.5 -51.5t-23.5 -48.5q-5 -7 -12.5 -16
t-18.5 -11q-13 -2 -21 8t-13 24.5t-7 29t-3 23.5q-1 8 -2 19.5t-0.5 23t3.5 21.5t12 15q8 5 10 -4t0.5 -22t-4 -25.5t-2.5 -13.5q2 -20 6.5 -42.5t18.5 -37.5h1l4.5 6t10 13.5t10 14.5t5.5 9q7 16 12.5 31t10.5 31t8.5 32.5t4.5 32.5v10.5t1.5 12.5t4.5 10t9 4q7 0 9.5 -5.5
t3 -13t-0.5 -15.5t-1 -12q-2 -15 -0.5 -31t2.5 -31q3 -29 8 -58t11 -58q9 -37 18.5 -74t17.5 -74t13.5 -74t6.5 -75z" />
    <glyph glyph-name="z" unicode="z" horiz-adv-x="293" 
d="M251 318q20 -2 39.5 -5t34.5 -15q-18 9 -44 7t-45 -3q-27 -1 -55 -4t-55 -10q-28 -5 -53.5 -12t-50.5 -17q-5 -2 -16 -8.5t-22.5 -12.5t-22 -8.5t-14.5 3.5q-6 6 0.5 15t17.5 17.5t22 16t14 10.5q48 39 97.5 74.5t102.5 65.5q5 3 10 5.5t10 4.5h-6q-33 -2 -65.5 -1
t-64.5 7q-3 0 -14.5 2.5t-23 6.5t-18 10t0.5 14q3 5 12 3.5t19.5 -5.5t20 -9t14.5 -6q27 -4 54.5 -4.5t54.5 0.5q5 0 16.5 3t23.5 4.5t21 0.5t11 -9q3 -7 -2 -12t-13.5 -9t-17 -7t-12.5 -5q-35 -17 -69 -39q-38 -23 -74.5 -49.5t-70.5 -55.5q54 21 114 31t119 5z" />
    <glyph glyph-name="braceleft" unicode="{" horiz-adv-x="165" 
d="M122 191q-15 -9 -33 -16q-38 -14 -58.5 1.5t-10.5 53.5q6 23 15.5 45.5t19.5 45.5q1 3 5 10t7.5 14.5t5.5 14.5t0 11q-4 6 -12 6.5t-16.5 0t-16.5 -0.5t-12 6q-3 1 -3 5q0 3 2 6q3 6 10.5 8.5t16.5 4t17.5 4t14.5 8.5q5 5 6 9.5t1 9.5q0 15 -5.5 29.5t-11.5 28.5
t-10 28.5t-1 29.5q1 10 7 23t15 23.5t20.5 16.5t23.5 2q10 -6 8 -11t-9.5 -9t-16 -7.5t-11.5 -4.5q-17 -12 -19.5 -27t1.5 -31t11.5 -33t12.5 -33.5t4 -31.5t-15 -28q-5 -5 -13 -9q20 -10 20 -27q-2 -22 -13.5 -42.5t-19.5 -40.5q-3 -8 -8.5 -19t-10 -23t-6 -24t1.5 -21
q3 -7 9 -8q10 -5 21.5 -2.5t22.5 8.5t20 14.5t15 15.5q3 3 8 6t9.5 3.5t7 -2t1.5 -10.5q-2 -10 -11 -18t-17 -13z" />
    <glyph glyph-name="bar" unicode="|" horiz-adv-x="84" 
d="M20 627q-3 8 -6 18.5t4 18.5q1 5 8 5l5 -3q7 -5 10.5 -18t4.5 -28t1 -29.5v-21.5q6 -74 6 -147t2 -146q2 -35 2.5 -70t3.5 -70q1 -17 2.5 -36t6.5 -36q-14 22 -19 47.5t-8 51.5q-8 67 -9.5 135t-2.5 136q-1 34 -2 67t-3 67q0 30 -6 59z" />
    <glyph glyph-name="braceright" unicode="}" horiz-adv-x="161" 
d="M31 194q-6 2 -9.5 5t-5.5 6q-3 5 0 9t8 6q9 1 18 -2.5t17 -3.5q13 0 24.5 5t19.5 14t12.5 21t3.5 25q-2 13 -7.5 24t-12.5 22t-12 22t-5 24q-1 10 4.5 17.5t13.5 13.5q-8 3 -15 5.5t-13 6.5q-8 5 -14 13t-4 17q2 19 11.5 37.5t15.5 35.5q5 12 9.5 28.5t-1.5 30.5
q-3 8 -10 10.5t-15 2t-16.5 -1.5t-15.5 0q-8 1 -10.5 5t-1 8t6 7.5t11.5 3.5q13 1 29.5 -1t26.5 -11q9 -7 12 -16.5t3 -20t-2 -20.5t-4 -19q-7 -19 -15.5 -37.5t-13.5 -37.5q-1 -5 -1.5 -6.5t0.5 -4.5q6 -7 17.5 -9t23.5 -3.5t21.5 -4.5t10.5 -10q2 -7 -3.5 -11t-13 -7
t-15.5 -6.5t-11 -7.5q-4 -6 -2 -14t7 -16.5t10.5 -16.5t7.5 -14q4 -8 7 -17t3 -20q3 -26 -10.5 -47.5t-36.5 -31.5q-14 -5 -29 -8t-29 1z" />
    <glyph glyph-name="asciitilde" unicode="~" horiz-adv-x="337" 
d="M181 427q7 -12 16.5 -28t19.5 -26t20.5 -10.5t20.5 19.5q4 7 10.5 17.5t17.5 11.5q11 0 10.5 -8t-6 -18.5t-12.5 -19.5t-9 -10q-17 -16 -32 -14t-28.5 14t-25.5 31t-24 37q-20 31 -41 22t-26 -50q-2 -8 -2 -20.5t-9 -18.5q-10 -5 -12 4t0 22t5 25.5t4 15.5q8 21 20 34
t25.5 15t28 -8.5t29.5 -36.5z" />
    <glyph glyph-name="exclamdown" unicode="&#xa1;" horiz-adv-x="236" 
d="M212 702q3 -14 0 -28.5t-9.5 -28.5t-15 -26.5t-17.5 -22.5q-5 -6 -16.5 -18.5t-26 -23.5t-29.5 -17t-25 1q-5 -5 -16 -13t-22.5 -13t-20 -2.5t-7.5 19.5q0 15 5.5 31t14 31.5t18 30t18.5 26.5q20 25 47 51t60 30q15 1 26.5 -5.5t15.5 -21.5zM190 679q0 4 1 7.5t1 6.5
q1 13 -15 13.5t-31 -9.5q-25 -13 -44 -34.5t-35 -44.5q-6 -9 -14 -20.5t-15 -24t-11.5 -25t-2.5 -23.5q11 -1 23.5 7.5t24 20t21.5 23.5t16 20q11 14 20.5 26.5t18.5 26.5q-10 -23 -22 -43.5t-29 -40.5q34 14 59.5 46.5t33.5 67.5zM126 515q3 -17 1.5 -34.5t-3.5 -34.5
q-4 -48 -14 -97t-26 -96q-2 -5 -4.5 -16.5t-7 -23.5t-11 -20t-14.5 -4q-8 3 -7 12.5t5.5 21t10 22t7.5 15.5q20 63 36 128.5t27 130.5v-4z" />
    <glyph glyph-name="cent" unicode="&#xa2;" horiz-adv-x="215" 
d="M146 352q-12 -9 -26 -16.5t-28 -11.5q-6 -48 -10.5 -94t-9.5 -93q-4 23 -4.5 44t-1.5 44q0 24 2 47.5t4 47.5q-28 -4 -46 13t-8 46q7 29 29 50t45 36q4 17 7.5 32.5t8.5 32.5q4 17 8.5 34.5t11.5 33.5q4 8 9.5 10.5t10 0.5t6 -7.5t-2.5 -14.5q-6 -17 -12 -31.5t-11 -30.5
q-3 -11 -6 -22.5t-5 -22.5q4 1 14.5 6.5t21.5 9t20.5 3t10.5 -10.5q1 -6 -3 -9t-9 -5.5t-11 -3.5t-10 -2q-10 -2 -20 -6t-19 -10q-5 -26 -9.5 -53.5t-8.5 -53.5q33 11 61 33.5t46 51.5q-6 -23 -18 -40t-29 -31q-6 -6 -8 -7zM49 341q11 -4 24 -1q3 23 6 47t7 47
q-8 -6 -17.5 -15t-17.5 -20t-12.5 -22.5t-0.5 -23.5q1 -7 11 -12z" />
    <glyph glyph-name="sterling" unicode="&#xa3;" horiz-adv-x="460" 
d="M153 264q-3 -5 -7 -3q-17 8 -30.5 12.5t-33.5 4.5q-6 0 -16.5 -2.5t-21.5 -4t-19.5 -1t-9.5 7.5q-2 8 8.5 12.5t25 7.5t27.5 4.5t18 2.5l60 12q0 19 -4 35q-9 -1 -19 -1.5t-19 -2.5q-8 -2 -19 -5.5t-20 1.5q-5 2 -7 6.5t3 9.5q9 10 25.5 8.5t28.5 -0.5q6 0 12 0.5t12 0.5
q-1 11 -3 20t-4 20q-13 -2 -26 -2h-26q-12 0 -27.5 -3t-28.5 3q-5 3 -6.5 8t4.5 10q9 7 23.5 4.5t24.5 -3.5q14 -1 29 -0.5t29 1.5q-3 16 -11.5 52t-12 74.5t3 68.5t34.5 34q25 3 50 -5.5t48 -23.5t42.5 -34t33.5 -37q11 -14 20 -29.5t12 -34.5q1 -5 0 -13.5t-4.5 -16.5
t-9 -12.5t-13.5 0.5q-5 3 -4.5 8t3 11t5.5 12t3 10q1 17 -12 35.5t-26 31.5q-19 22 -41.5 39.5t-48.5 28.5q-12 5 -29 10.5t-31 0.5q-11 -4 -14 -17t-3 -28.5t2 -30.5t3 -23q3 -29 8.5 -56t10.5 -55q17 2 33.5 3t32.5 4q10 2 23 7.5t23 0.5q12 -5 6 -13t-15 -10
q-11 -3 -21.5 -3t-21.5 -2l-56 -4q2 -9 3.5 -18t3.5 -17v-4q15 1 31 1.5t31 5.5q9 2 22.5 6t20.5 -4q8 -8 1.5 -12.5t-18 -7t-23 -3t-14.5 -0.5q-12 -2 -24 -2t-24 -2q2 -8 3 -16l2 -16q47 9 94 17.5t94 13.5q6 0 19.5 2t27.5 2t25 -4t12 -16q0 -6 -8.5 -7t-20 0t-22 3
t-13.5 2q-52 -1 -104 -11.5t-103 -20.5q1 -5 1.5 -11.5t-1 -13t-5 -11.5t-9.5 -6q-6 0 -7 5q0 -1 -1 -1zM140 274q8 0 11 -3q-1 7 0.5 13t2.5 14l-68 -15q10 0 18 -3q9 -1 18 -3t18 -3z" />
    <glyph glyph-name="currency" unicode="&#xa4;" horiz-adv-x="364" 
d="M23 238q-10 1 -9 9t6.5 18t12.5 18.5t9 10.5q11 13 22.5 26.5t24.5 24.5q-6 12 -7 25t0 26q3 19 10 42t21 37q-3 4 -8.5 5t-4.5 8l-9 9t-10 12.5t-4.5 13t7.5 10.5q6 3 11 -0.5t9.5 -9.5t7.5 -12.5t5 -10.5q20 2 41 0t39 -6q8 -2 16 -4.5t15 -6.5q5 12 15.5 18t18.5 14
t16 14t18 12q4 3 10.5 8t13.5 8.5t14 4t13 -5.5q6 -5 0.5 -10.5t-15 -10t-19.5 -8t-13 -5.5q-14 -11 -26 -26t-27 -24q9 -6 16.5 -14.5t10.5 -19.5q4 -15 -1 -29t-14.5 -26.5t-22 -23t-23.5 -17.5q6 -7 7 -17.5t3 -18.5q3 -10 9.5 -20.5t11.5 -19.5t6 -15.5t-7 -6.5
q-10 0 -16.5 6t-11 15t-7 19t-4.5 17t-6 15t-4 16q-10 -5 -23 -9t-26 -5.5t-25 1.5t-21 13q-10 -11 -19 -22t-17 -22q-3 -5 -7 -13.5t-9 -17t-11 -14.5t-13 -5zM243 452q-20 18 -50.5 24.5t-56.5 2.5q2 -2 2 -7l37 -46q-11 8 -21 15t-20 16l-2 2q-17 -22 -27 -47.5t-1 -54.5
q12 9 24 15.5t27 10.5q-12 -8 -23.5 -17.5t-20.5 -20.5q7 -9 18 -10.5t22.5 1t22.5 7.5t18 9q9 5 21.5 13.5t23 19t16.5 23t2 25.5q-1 10 -12 19z" />
    <glyph glyph-name="yen" unicode="&#xa5;" horiz-adv-x="350" 
d="M22 591q-5 5 -7 13q-2 5 2 9.5t10 2.5q7 0 14.5 -7.5t14 -17.5t11.5 -19.5t9 -15.5q9 -15 16.5 -31t15.5 -33q7 -13 15.5 -31t22.5 -25q1 0 2 -1t3 1q9 0 18.5 11t19 26.5t18 33.5t16.5 32.5t15 23t13 5.5q8 -3 6.5 -14t-7.5 -24.5t-13 -25.5t-9 -16l-47 -102
q21 4 42.5 9t42.5 10l24 6t25 4q8 2 16.5 -5t-2.5 -15q-8 -7 -22 -6t-25 -1q-29 -3 -56 -10.5t-53 -13.5l-19 -46q26 6 52.5 13t52.5 14q-14 -8 -27 -14.5t-28 -13.5q-14 -6 -28.5 -11t-29.5 -9l-12 -40t-4 -40q2 -9 6 -17.5t4 -17.5q0 -11 -9 -9t-14 7q-6 7 -7.5 16.5
t-1 19.5t2.5 19.5t4 17.5q2 11 5 20t6 19q-8 -2 -14 -3t-12 -1q-12 -2 -24.5 -3.5t-24.5 1.5q-7 3 -11.5 10.5t6.5 12.5q9 4 19 2.5t19 -2.5q12 -2 24 0.5t24 4.5l18 46q-9 -2 -18 -3.5t-19 -3.5q-13 -1 -25 -3t-26 -1q-6 0 -10.5 3t-6 7.5t1 8t10.5 5.5q10 2 21 0t22 -2
q15 1 29.5 3.5t29.5 5.5q6 14 12 29t14 29q-8 -9 -21 -17.5t-25 -1.5q-11 5 -18.5 14t-13.5 20t-11.5 23t-10.5 22q-14 26 -28.5 49t-34.5 44z" />
    <glyph glyph-name="brokenbar" unicode="&#xa6;" horiz-adv-x="128" 
d="M47 318q2 9 3.5 22.5t11.5 19.5q8 3 12 -3t3 -12q-1 -12 -6.5 -24t-7.5 -24q-1 -7 -1.5 -25t-1.5 -37.5t-1 -37v-23.5q0 -3 3.5 -13.5t6 -21.5t2 -19.5t-9.5 -7.5q-13 2 -17 31.5t-3.5 66t3 69t3.5 39.5zM54 662q0 10 -1.5 23.5t6.5 21.5q8 4 13 -1t5 -11q2 -12 -0.5 -25
t-2.5 -25q1 -7 -1 -25t-4 -38t-4 -37.5t-2 -23.5q0 -3 3.5 -13.5t6 -21.5t2 -19.5t-9.5 -7.5t-13 15.5t-5 35.5t0 45.5t2.5 46.5t3 38.5t1.5 21.5z" />
    <glyph glyph-name="section" unicode="&#xa7;" horiz-adv-x="208" 
d="M16 406q-5 8 -1 15q4 15 17.5 28t24.5 23q-19 4 -27.5 11.5t-8.5 16.5t7 19.5t19 22.5q6 6 16.5 14t22 14t22.5 6.5t18 -9.5q3 -7 -0.5 -10.5t-8.5 -4.5q-7 -3 -15 -3t-16 -3q-14 -6 -28 -19t-20 -28q13 -10 32 -13t38 -5t36.5 -7.5t28.5 -21.5q11 -15 1.5 -30t-23.5 -22
q26 -5 35.5 -21t7 -35.5t-14 -39.5t-26.5 -33v-1q-8 -6 -18 -11.5t-21 -8.5t-21.5 -2.5t-19.5 7.5q-8 6 -6 13t11 7q8 1 15.5 -2t15.5 -2q23 3 39.5 21t22.5 38q5 11 5.5 26t-13.5 22q-23 10 -51 9t-53 1q-10 2 -25 4t-18 14zM136 453q-12 5 -25.5 8t-26.5 6q-3 -6 -12 -13
t-18.5 -13.5t-16 -14t-3.5 -15.5q6 -3 14.5 -3.5t16.5 -1.5q7 6 19 5t21 -1q11 0 22.5 1.5t22.5 7.5q15 11 7 20.5t-21 13.5zM31 411h-1l1 -1v1z" />
    <glyph glyph-name="dieresis" unicode="&#xa8;" horiz-adv-x="189" 
d="M116 608q-1 3 -4 10.5t-4.5 16t0.5 14t11 3.5q5 -2 7.5 -7t4 -11t2.5 -12.5t3 -10.5q5 -11 10.5 -23t12.5 -20q1 -1 5.5 -6t7.5 -10.5t3 -10t-8 -4.5q-16 -2 -23 11.5t-12 24.5q-9 23 -12 28t-4 7zM13 652l32 -40q10 -11 22.5 -20.5t18.5 -18.5t2.5 -16t-14.5 -5
q-12 3 -17.5 11.5t-11.5 17.5q-8 11 -16 23t-13 26z" />
    <glyph glyph-name="copyright" unicode="&#xa9;" horiz-adv-x="358" 
d="M20 373q-9 42 -3.5 89.5t33.5 82.5q13 16 29.5 24t35.5 10.5t38 1.5t37 -4q45 -6 80.5 -36t54.5 -70.5t18.5 -86t-28.5 -82.5q-15 -20 -36.5 -35t-46 -23.5t-51 -9.5t-50.5 7q-44 15 -72 51.5t-39 80.5zM36 464q-5 -26 -2.5 -55t12 -56t27 -49t43.5 -34q21 -11 45 -14
t47 1t44 15.5t38 28.5q31 33 34 76t-14 82.5t-51.5 68t-77.5 32.5q-5 -9 -15 -7t-18 4q-14 -5 -27 -15.5t-18 -24.5q-5 -10 -2.5 -21t-3.5 -19q-6 -7 -10 -4t-6 9.5t-3 14t0 10.5q3 15 12.5 29.5t21.5 23.5q-18 -3 -30.5 -12t-21.5 -22.5t-15 -29.5t-9 -32zM103 375
q-4 18 3.5 32.5t21 26t30.5 19.5t31 12q6 2 16 5.5t21.5 6t22 2t17.5 -6.5q7 -7 4 -11t-10.5 -6.5t-15.5 -3.5t-10 -1q-31 0 -60 -13q-8 -4 -18 -10t-18 -14t-12.5 -18t-1.5 -20q15 -14 37 -17.5t45.5 -0.5t45.5 11.5t37 19.5q-12 -17 -29 -27t-37 -16q-13 -3 -32 -5.5
t-37.5 -0.5t-33 10t-17.5 26z" />
    <glyph glyph-name="ordfeminine" unicode="&#xaa;" horiz-adv-x="290" 
d="M259 496q8 6 18.5 6t5.5 -14q-4 -9 -13.5 -14.5t-17.5 -9.5q-36 -21 -75 -31q-23 -5 -47.5 -7t-47.5 3q-8 1 -18.5 3.5t-20.5 7t-17 11.5t-8 17q-3 19 8.5 28t29 12t36 2t28.5 -4q4 -1 20.5 -7.5t34.5 -13t33 -11t17 -1.5q9 7 8 20.5t-7 28t-14.5 27.5t-14.5 18
q-11 10 -26.5 14.5t-32 4t-32.5 -5.5t-28 -12q-8 -5 -15.5 -13t-16.5 -10q-10 -2 -11.5 2t1 10t7 11.5t7.5 7.5q20 14 45.5 21t51.5 6q23 -1 42 -10.5t32.5 -25.5t20.5 -36.5t6 -43.5zM139 445q17 2 32 5.5t29 9.5q-23 7 -46 16t-46 14q-4 1 -16.5 1.5t-26 -1t-23 -6
t-7.5 -13.5q0 -11 14 -16.5t32 -8t35 -2t23 0.5z" />
    <glyph glyph-name="guillemotleft" unicode="&#xab;" horiz-adv-x="351" 
d="M104 324q-9 2 -27 7t-34.5 13.5t-25 19.5t1.5 26q12 16 28.5 28.5t34.5 23.5t36 22.5t33 25.5q5 6 13.5 14t17.5 3q6 -2 6 -7.5t-3 -9.5q-8 -14 -25 -23t-29 -18q-14 -9 -28.5 -19t-28.5 -20q-9 -6 -23 -15t-19 -20q11 -11 30 -18t34 -12q17 -6 38 -9t37 -11
q8 -4 9.5 -8.5t-1.5 -8.5t-9 -5.5t-12 0.5q-14 5 -27 10.5t-27 10.5zM220 340q-9 3 -27.5 10.5t-34 17.5t-23 21t6.5 22q16 13 36 21.5t41 15.5t42.5 14.5t39.5 17.5q6 5 16 11t19 1q6 -3 5.5 -8t-5.5 -8q-11 -11 -31 -16.5t-34 -11.5q-16 -6 -33 -12.5t-34 -14.5
q-11 -3 -27.5 -9t-22.5 -16q8 -11 27.5 -20t34.5 -15q17 -9 38.5 -14t38.5 -15q7 -5 7.5 -9t-3 -7t-10 -4t-13.5 2q-14 6 -27 13t-27 13z" />
    <glyph glyph-name="logicalnot" unicode="&#xac;" horiz-adv-x="262" 
d="M194 440q10 0 23 0.5t21 -8.5q5 -8 -3 -14q-4 -8 -6 -16t-4 -14q0 -3 2.5 -13.5t3.5 -21.5t-0.5 -19t-10.5 -6q-11 2 -14.5 12t-3 23.5t3.5 27.5t6 24l-18 4t-19 2q-7 0 -18 -0.5t-23 -1.5t-23 -2.5t-18 -2.5q-3 0 -12.5 -5t-20 -9.5t-19 -5t-9.5 8.5q0 13 22.5 20t51 11
t55 5t33.5 1z" />
    <glyph glyph-name="uni00AD" unicode="&#xad;" horiz-adv-x="231" 
d="M167 402q10 0 23 0.5t21 -8.5q5 -8 -0.5 -12t-12.5 -4q-12 -2 -24.5 1.5t-25.5 3.5q-14 0 -27.5 -2t-27.5 -5q-3 0 -12.5 -5t-20 -9.5t-19 -5t-9.5 8.5q0 13 18.5 20t42 11t45.5 5t29 1z" />
    <glyph glyph-name="registered" unicode="&#xae;" horiz-adv-x="405" 
d="M22 317q-14 36 -5.5 77.5t29.5 73.5q13 20 31 36.5t39 28.5l18 9q2 1 9.5 4t15 3.5t12 -1.5t0.5 -11q11 13 33 15t38 1q35 -3 67 -19t55 -40q16 -17 22 -37t4 -41t-11 -41t-23 -37q-35 -44 -89 -68t-109 -26q-21 -1 -41.5 2.5t-39 12t-33 23t-22.5 35.5zM32 373
q-2 -42 14.5 -66.5t44.5 -34.5t63 -8t69.5 12.5t64.5 28.5t49 39q17 20 26 41.5t8.5 42t-11.5 39.5t-33 35q-23 16 -52 25.5t-58 5.5q-3 -1 -12.5 -5t-18.5 -6t-15 -0.5t-1 11.5q-7 -8 -17.5 -9.5t-18.5 -4.5q-13 -5 -23.5 -12.5t-20.5 -15.5q-25 -23 -40.5 -53.5
t-17.5 -64.5zM107 467q-9 5 -6.5 9.5t9.5 8t15.5 5.5t10.5 2q14 2 26.5 5.5t26.5 8.5q8 3 19.5 6.5t22.5 5t21.5 0t17.5 -10.5q8 -12 3.5 -27t-10.5 -27q-13 -26 -32.5 -49.5t-44.5 -43.5l-2 -3q19 3 38.5 5.5t39.5 1.5q12 -1 27 -0.5t26 -8.5q7 -8 5 -11.5t-8 -5
t-13.5 -0.5t-10.5 2q-29 8 -62 5.5t-61 -9.5q2 -5 3.5 -10.5t0.5 -11.5q0 -5 -4.5 -8t-9.5 -1q-6 4 -8.5 10.5t-4.5 12.5q-3 -1 -8 -2.5t-10 -2.5t-8.5 0.5t-4.5 6.5q-3 9 8 15q5 3 9.5 4.5t9.5 3.5v3q-3 15 -5.5 31.5t-4.5 33.5q-1 10 -5.5 21.5t-2.5 22.5q-8 -2 -13 2z
M225 496q-11 -2 -21.5 -5.5t-21.5 -6.5l-42 -15q8 -10 7 -22.5t0 -24.5q2 -15 3.5 -30t4.5 -31q22 13 39 30t31 36q8 11 14 21t11 21q1 1 2 5t1.5 8.5t1.5 8.5l1 4l-5 4q-13 1 -26 -3z" />
    <glyph glyph-name="macron" unicode="&#xaf;" horiz-adv-x="285" 
d="M181 626q4 0 14.5 0.5t21.5 0t21 -2.5t13 -6q5 -8 -0.5 -12t-11.5 -4q-6 -1 -16.5 0t-22 2t-22 2t-16.5 1q-14 0 -34.5 -2t-34.5 -5q-3 0 -12.5 -5t-20 -9t-19 -4.5t-9.5 8.5q0 12 20.5 19.5t47 11t50.5 4.5t31 1z" />
    <glyph glyph-name="degree" unicode="&#xb0;" horiz-adv-x="167" 
d="M23 465q-9 17 -9 35.5t6 35.5q3 8 10.5 20t17.5 21.5t21 12.5t21 -7q7 -13 -6 -16q-8 -3 -14.5 -4t-12.5 -6q-16 -13 -22 -35t1 -41q2 -5 6.5 -10.5t10.5 -5.5q13 -2 29 8t28.5 25t19.5 32t4 30q-2 6 -7.5 12t-10.5 11q-14 12 -30 12q-5 0 -11 -1.5t-12.5 -2t-11.5 1
t-8 6.5q-5 7 -0.5 11t12.5 5.5t16 1.5t11 -1q28 -3 45 -20q7 -5 14.5 -14t9.5 -17q6 -20 -8 -47t-36 -47t-45.5 -25.5t-38.5 19.5z" />
    <glyph glyph-name="plusminus" unicode="&#xb1;" horiz-adv-x="358" 
d="M211 391q0 -3 1 -14t0 -21.5t-4 -18t-12 -3.5q-7 4 -8.5 11.5t-0.5 16t3.5 17t2.5 13.5q-23 -4 -45.5 -5.5t-44.5 0.5q-4 0 -15.5 0.5t-23 3t-19 7.5t-2.5 15q3 6 11 6.5t18 -2t19 -5.5t14 -3q23 -2 45 -1t44 3q2 17 4 33.5t2 32.5q-2 11 -5 22t-5 22q-1 10 6.5 13
t14.5 -5q8 -11 6.5 -24.5t-0.5 -25.5q2 -17 0 -32.5t-4 -32.5l77 13q-15 -9 -28.5 -15.5t-30.5 -11.5l-19 -4q0 -4 -1 -5zM235 280q9 0 22.5 0.5t20.5 -8.5q5 -7 -0.5 -11.5t-11.5 -4.5q-12 -1 -25 2t-25 3q-30 0 -55 -6q-3 -1 -13 -6t-20.5 -9t-19 -4.5t-8.5 8.5
q0 13 18.5 20t42 10.5t45.5 4.5t29 1z" />
    <glyph glyph-name="twosuperior" unicode="&#xb2;" horiz-adv-x="263" 
d="M15 615q-4 9 2 21t15.5 24t20 21.5t16.5 14.5q13 10 29.5 16t33 6.5t31 -6.5t23.5 -24q7 -14 7.5 -30.5t-2.5 -33t-8 -32.5t-10 -29q-12 -35 -28 -67.5t-33 -63.5l-20 -37l8 4q29 18 62.5 31.5t68.5 19.5q5 1 15.5 4t21.5 4t19.5 -1.5t9.5 -11.5q1 -7 -8 -9.5t-21 -3
t-24 0t-16 -0.5q-49 -11 -90 -33q-24 -11 -44 -27q-7 -6 -14 -13.5t-17 -9.5q-5 -2 -9 2q-6 4 -5 10.5t4.5 13t8.5 13t8 10.5q14 21 26 43t23 45q12 24 23.5 49.5t19.5 51.5q3 9 6.5 21t6 24.5t2 25t-6.5 22.5q-12 20 -34.5 20t-42.5 -11q-14 -8 -26 -19.5t-20 -24.5
q0 -2 -3.5 -11.5t-8.5 -17t-10.5 -10t-9.5 8.5z" />
    <glyph glyph-name="threesuperior" unicode="&#xb3;" horiz-adv-x="263" 
d="M-3 614q-9 1 -9.5 5t2.5 8.5t8.5 8.5t8.5 6q15 6 31 11.5t32 10.5q18 6 44 12t53 7.5t50.5 -4.5t36.5 -26q13 -19 4.5 -37.5t-26 -34t-38 -28.5t-32.5 -20q-12 -8 -24 -15t-23 -16l40 -10q9 -2 24 -6t29 -10.5t24.5 -15.5t10.5 -22q0 -15 -19 -20q-18 -7 -39 -7t-41 -2
q-19 -2 -36 -5.5t-34 -8.5q-9 -3 -14.5 -1t-6.5 6.5t2 9.5t11 8q14 4 29 5t29 3h21t32 0.5t30.5 3t16.5 8.5q-2 6 -7.5 10t-12.5 7.5t-14.5 6.5l-12.5 5q-14 4 -27 7t-27 5q-9 1 -20.5 0t-18.5 5q-6 3 -6 8q-5 7 9 18t36.5 23.5t48.5 27t44.5 30t25 30.5t-9.5 29
q-12 9 -27 12.5t-31 3t-32 -3.5t-29 -6q-16 -3 -31 -8t-31 -11q-12 -5 -26 -15t-28 -8z" />
    <glyph glyph-name="acute" unicode="&#xb4;" horiz-adv-x="277" 
d="M38 546q-9 -3 -15 -1t-8 6.5t1 10.5t11 10q12 5 24 9t25 10l52 24l135 65q-12 -11 -25 -21t-27 -20q-32 -20 -65 -38t-66 -33q-11 -5 -21 -11t-21 -11z" />
    <glyph glyph-name="mu" unicode="&#xb5;" horiz-adv-x="335" 
d="M26 18q-11 -1 -11.5 7t3.5 17.5t9.5 18.5t6.5 11q9 23 13.5 47.5t9.5 48.5q7 55 10 109.5t5 110.5q2 39 0 77q0 4 -1 14t-1 20t3 16.5t12 2.5q7 -3 9 -11.5t1.5 -19t-2 -21t-1.5 -16.5q0 -8 0.5 -19t2 -22t5 -21.5t9.5 -16.5q1 0 1 -0.5t1 -0.5q0 -1 1 -1q4 -2 8 1t8 7.5
t6.5 9.5l3.5 7q5 10 8 21t5 22q2 10 1.5 20t2.5 20q2 7 7.5 11t11.5 -2q6 -7 6.5 -16.5t1.5 -17.5q0 -17 6.5 -37.5t26.5 -24.5q13 -5 28 1t26 12q13 8 26.5 16.5t25.5 17.5q-10 -14 -21 -24.5t-25 -21.5q-15 -11 -31.5 -16.5t-31.5 -3t-27 13t-19 30.5q-3 -8 -7.5 -20.5
t-12 -23t-17.5 -17t-22 -2.5q-4 1 -10 5l-8 11q-1 -67 -5.5 -134.5t-21.5 -132.5q-2 -8 -4 -20.5t-6 -25t-10.5 -23.5t-15.5 -14z" />
    <glyph glyph-name="paragraph" unicode="&#xb6;" horiz-adv-x="444" 
d="M42 460q-3 18 11 33.5t35 27.5t43 21t35 15q46 18 93.5 32.5t95.5 26.5q20 5 40.5 11.5t40.5 10.5q14 3 20.5 -6t-9.5 -17q-11 -4 -22 -4.5t-21 -2.5q-22 -4 -42.5 -9t-40.5 -11q4 -9 2 -20.5t-6.5 -24t-9.5 -24t-7 -19.5l-30 -90q-14 -43 -25.5 -86t-16.5 -88
q-4 -18 -1 -38q0 -3 2 -11.5t2 -16.5t-2.5 -14t-9.5 -4q-9 3 -12 14.5t-3 25.5t2 27t3 19q8 71 31 139.5t45 137.5q5 17 7 34t6 34l-48 -16q3 -11 -4 -24t-10 -24q-6 -15 -10 -31t-9 -32q-9 -31 -17 -61t-15 -61q-3 -15 -5.5 -30t-4.5 -30q0 -8 1 -22t-9 -20q-10 -7 -12.5 3
t-1.5 25t4 29t4 16q6 33 14 65.5t17 65.5q-20 -5 -44 -5.5t-44 1.5q-14 0 -31.5 2.5t-26.5 14.5q-2 3 -2.5 5.5t-1.5 5.5zM59 463v-1q0 -1 2 -1q6 -8 18 -10.5t25.5 -2.5t26.5 1.5t22 2.5q10 2 22 6t23 1l14 47q4 13 6.5 26.5t6.5 25.5q-26 -9 -52 -19t-51 -22q-7 -4 -17 -9
t-19.5 -11t-17 -13.5t-9.5 -16.5v-4z" />
    <glyph glyph-name="periodcentered" unicode="&#xb7;" horiz-adv-x="109" 
d="M43 414q5 9 13.5 13.5t16.5 -0.5q7 -3 9.5 -12t-1.5 -20q-5 -9 -13.5 -13.5t-16.5 0.5q-7 3 -9.5 12t1.5 20z" />
    <glyph glyph-name="cedilla" unicode="&#xb8;" horiz-adv-x="190" 
d="M58 237q-6 3 -6 9.5t2.5 13.5t6.5 14t6 10q1 1 2 4q1 2 2 5t3 8q1 3 3.5 11t6.5 15.5t9 11t11 -2.5q4 -4 3.5 -10t-3 -12.5t-6 -12t-5.5 -9.5q-2 -5 -5.5 -10.5t-3.5 -11.5l32 16q7 3 17.5 5t19.5 0.5t15.5 -6.5t6.5 -17q1 -18 -8 -35t-22.5 -33t-29.5 -29t-29 -23
q-5 -3 -14 -10.5t-19.5 -13.5t-20.5 -8t-16 5q-5 6 2.5 12.5t18.5 12t22.5 10t14.5 7.5q29 20 52 46t32 59q-1 1 -2 3q-1 0 -1 2q0 1 -1 1q-6 3 -13.5 1t-12.5 -4t-15 -10t-20.5 -15t-20.5 -11t-14 2z" />
    <glyph glyph-name="onesuperior" unicode="&#xb9;" horiz-adv-x="115" 
d="M42 672q-3 7 0 13q1 6 6 8t10 -1q6 -4 8 -13t2 -19.5t-1 -20.5t-1 -16q0 -49 -5 -97t0 -97q0 -3 2.5 -15t3 -24t-2.5 -19t-13 1q-6 4 -8 13t-2 19t0.5 19.5t0.5 16.5q-1 29 0.5 58l3 58t1.5 58t-5 58z" />
    <glyph glyph-name="ordmasculine" unicode="&#xba;" horiz-adv-x="224" 
d="M-3 546q0 17 4.5 31.5t11.5 28.5q2 3 7.5 10.5t12.5 13t13.5 7t11.5 -6.5q3 -5 0.5 -9.5t-7 -9.5t-10 -9t-7.5 -7q-6 -6 -9 -16.5t-5 -18.5q-3 -16 0 -32.5t10.5 -31.5t19.5 -27t27 -19q28 -12 52 -5t40.5 25.5t24.5 44t4 50.5q-5 29 -24 47.5t-44 30.5t-52.5 19.5
t-51.5 14.5q60 5 110 -17q31 -14 54 -36.5t30 -54.5q8 -35 -4 -69t-41 -56q-29 -23 -59.5 -23.5t-56 14.5t-43 42.5t-19.5 60.5v8v0z" />
    <glyph glyph-name="guillemotright" unicode="&#xbb;" horiz-adv-x="328" 
d="M20 287q-9 4 -4 13.5t15.5 18.5t22 16.5t13.5 9.5q11 9 24 16.5t26 16t24.5 17.5t20.5 20q-11 11 -28 16t-31 11q-6 3 -15.5 6.5t-19.5 9t-17 12t-8 14.5q-1 11 5 11t14 -4.5t16 -10.5t10 -8q16 -11 34.5 -18.5t36.5 -15.5q8 -3 15 -8.5t7 -14.5q0 -8 -5.5 -15t-13.5 -13
t-16.5 -10.5t-14.5 -8.5q-17 -11 -32.5 -21.5t-29.5 -22.5q-4 -4 -10 -11.5t-12.5 -14t-13.5 -10.5t-13 -1zM131 324q-10 4 -4 11.5t18 15t24.5 13.5t15.5 7q13 7 27.5 13t29.5 12.5t28.5 13.5t23.5 16q-13 9 -31 14.5t-33 11.5q-6 3 -17 6.5t-21.5 9t-18 11.5t-7.5 13
q-1 9 5.5 9t15.5 -4.5t17.5 -10t10.5 -7.5q17 -11 37 -18t38 -15q8 -4 16.5 -8.5t8.5 -12.5q-1 -7 -8 -13t-16 -10.5t-19 -8t-16 -6.5q-18 -9 -35.5 -17t-34.5 -18q-5 -3 -11.5 -9t-14 -11.5t-15.5 -8t-14 0.5z" />
    <glyph glyph-name="onequarter" unicode="&#xbc;" horiz-adv-x="462" 
d="M38 648q-2 7 -3.5 16.5t4.5 15.5q5 4 9 2t7 -6q8 -11 7 -29t0 -31q2 -27 2.5 -54t1.5 -54q1 -24 4.5 -47t6.5 -47q2 -9 -1 -14.5t-7.5 -6.5t-9 3t-6.5 14l-3 49q-4 47 -3 95t-9 94zM47 141q-5 23 0 47.5t11 45.5q26 94 76 181t114 157q13 14 25 28t25 26q4 4 11 7t13 3
t8.5 -4t-3.5 -13q-5 -8 -12.5 -13t-13.5 -11q-10 -8 -19 -17.5t-17 -19.5q-43 -48 -78.5 -102t-66.5 -111q-12 -23 -24 -48.5t-22.5 -52.5t-17.5 -54t-7 -54q-1 0 -1 1q-1 1 -1 4zM238 468q-2 6 2 9.5t10 2.5q4 -1 7.5 -5.5t5.5 -7.5q8 -14 8 -32v-35h-1q0 -20 -2.5 -40
t-4.5 -40q0 -8 -1.5 -17.5t-1.5 -19t2 -18t7 -14.5q7 -9 23 -4t33.5 16.5t32.5 24t20 18.5q-1 14 -1 28.5v28.5t-0.5 27.5t1.5 27.5q0 4 3 8.5t6.5 7.5t7 2t6.5 -7q5 -11 0.5 -26.5t-5.5 -26.5q-2 -13 -1 -26t1 -26q5 3 12.5 4.5t9.5 -7.5t-6 -16.5t-14 -12.5
q3 -44 8.5 -87.5t16.5 -87.5q2 -6 2.5 -14.5t-4.5 -13.5q-9 -7 -16 4q-8 12 -8 32t-3 34q-4 30 -7.5 60.5t-5.5 60.5l-22 -15q-13 -9 -31.5 -19.5t-36.5 -14t-31 4t-16 34.5t1 54t6 55q2 20 0 39q-1 14 -5 24t-8 21v5z" />
    <glyph glyph-name="onehalf" unicode="&#xbd;" horiz-adv-x="486" 
d="M55 648q-1 7 -2.5 16.5t4.5 15.5q4 4 8.5 2t7.5 -6q8 -11 6.5 -29t0.5 -31q2 -27 2 -54t2 -54q1 -24 4 -47t6 -47q2 -9 -0.5 -14.5t-7 -6.5t-9.5 3t-7 14l-3 49q-4 47 -2.5 95t-9.5 94zM65 141q-5 23 -0.5 47.5t11.5 45.5q25 94 75.5 181t114.5 157l24 28t26 26q4 4 11 7
t12.5 3t8 -4t-3.5 -13q-5 -8 -12 -13t-13 -11q-11 -8 -20 -17.5t-17 -19.5q-43 -48 -78.5 -102t-65.5 -111q-12 -23 -24.5 -48.5t-23 -52.5t-17.5 -54t-7 -54q-1 0 -1 1v4zM216 59q-7 4 -5.5 10.5t6.5 13t11.5 12t9.5 8.5q19 23 36 46t32 48q38 53 61 112q4 10 9 23.5t7 27
t1 27t-9 23.5q-6 10 -20 12q-13 4 -26 1t-25 -9.5t-21.5 -16.5t-15.5 -21q-2 -3 -3.5 -11.5t-4.5 -16.5t-7.5 -12.5t-11.5 0.5q-9 10 -5 24t13.5 27t21.5 23.5t19 15.5q10 7 24.5 11.5t29 5t27 -4.5t20.5 -17q11 -15 12.5 -34.5t-3 -39.5t-12 -38.5t-14.5 -33.5
q-17 -37 -39 -72t-46 -67q28 17 59 28t65 12q13 0 26.5 0.5t25.5 -4.5q4 -2 8 -5.5t6 -7t0.5 -7.5t-8.5 -5q-14 -2 -28 4t-28 6q-13 0 -26 -1.5t-26 -6.5q-28 -8 -54 -22t-47 -34q-4 -3 -9 -10t-11 -13t-12.5 -10t-12.5 -1z" />
    <glyph glyph-name="threequarters" unicode="&#xbe;" horiz-adv-x="614" 
d="M22 652q-9 -2 -11 1.5t0.5 9t7 11t7.5 7.5q14 8 29.5 12t30.5 6q16 3 41 2.5t48.5 -6.5t41 -19.5t18.5 -37.5q1 -16 -6.5 -30.5t-19.5 -27t-26 -23t-26 -17.5q-10 -7 -19 -12l-18 -10l45 -11q12 -3 33.5 -9.5t40 -17t29.5 -25.5t3 -34q-3 -12 -15 -18.5t-27 -9t-30 -2.5
h-24q-24 2 -50 7.5t-45 20.5q-13 10 -16.5 23t5.5 27q7 11 18 16.5t24 8.5q-8 -6 -16 -15t-13 -18q-3 -7 -1 -15q4 -8 9 -12q13 -9 35 -15.5t46 -8.5t45 2t32 17q5 9 -1 16.5t-16.5 13.5t-22 10.5t-16.5 6.5q-19 8 -37 12t-38 7q-3 0 -10.5 0.5t-15 2t-13 5t-4.5 10.5
q-1 7 6 12t16.5 9t19 6.5t14.5 4.5q16 8 30 18.5t28 21.5q5 5 11.5 13t11.5 17t6.5 18t-4.5 17q-8 12 -21.5 19t-29.5 10.5t-32.5 4t-28.5 -0.5q-14 -2 -28.5 -5.5t-25.5 -11.5l-12 -8t-13 -6zM211 141q-5 23 -0.5 47.5t10.5 45.5q26 94 76.5 181t114.5 157l24 28t26 26
q4 4 11 7t12.5 3t8 -4t-3.5 -13q-5 -8 -12 -13t-14 -11q-10 -8 -19 -17.5t-17 -19.5q-43 -48 -78.5 -102t-66.5 -111q-12 -23 -24 -48.5t-22.5 -52.5t-17.5 -54t-7 -54q-1 0 -1 1v4zM401 468q-2 14 12 12q4 -1 8 -5.5t6 -7.5q7 -14 7.5 -32t0.5 -35h-2q0 -20 -2 -40l-4 -40
q-1 -8 -2 -17.5t-1.5 -19t1.5 -18t7 -14.5q7 -9 23.5 -4t33.5 16.5t32 24t20 18.5q-1 14 -1 28.5v28.5t-0.5 27.5t1.5 27.5q1 4 3.5 8.5t6.5 7.5t7.5 2t5.5 -7q5 -11 0.5 -26.5t-5.5 -26.5q-1 -13 -0.5 -26t0.5 -26q5 3 13 4.5t10 -7.5t-6 -16.5t-14 -12.5q3 -44 8 -87.5
t16 -87.5q2 -6 3 -14.5t-4 -13.5q-10 -7 -17 4q-8 12 -7.5 32t-2.5 34q-5 30 -8.5 60.5t-5.5 60.5l-22 -15q-13 -9 -31.5 -19.5t-36 -14t-31 4t-15.5 34.5q-3 27 0.5 54t5.5 55q3 20 0 39q-1 14 -5 24t-8 21v5z" />
    <glyph glyph-name="questiondown" unicode="&#xbf;" horiz-adv-x="254" 
d="M223 417q3 -23 -4 -46t-18 -43t-31.5 -46.5t-46 -46.5t-54 -28t-54.5 9q-3 2 -5.5 4.5l-4.5 4.5q-9 15 -6 33.5t11.5 37t20 36t18.5 29.5q19 32 39.5 64t33.5 67q4 9 4.5 19t4.5 20q2 7 8 11t11 -4q4 -5 3.5 -12t-2.5 -13q-5 -20 -15.5 -40t-20.5 -39q-14 -24 -29 -48.5
t-31 -48.5q-6 -10 -13.5 -21.5t-13.5 -24.5t-9.5 -25.5t-0.5 -24.5l2 -5l4 -4q13 -8 27.5 -7t29 7t27 15t22.5 17q20 18 36.5 41t26.5 48q7 20 7 32.5t-3 32.5q-2 6 0 14.5t12 4.5q6 -2 9 -8.5t5 -11.5zM197 692q12 -12 8 -27t-15 -29.5t-25 -26.5t-22 -18q-14 -9 -33 -20.5
t-37 -13.5q-5 0 -10.5 1.5t-7.5 9.5q-1 9 9.5 12.5t15.5 4.5q14 4 31 12.5t32 20.5t26 27t12 31l-1 1q-10 4 -22.5 2t-25.5 -7t-24.5 -11.5t-19.5 -10.5q-14 -7 -26.5 -16.5t-18.5 -23.5l2 -2q7 -3 17 -1.5t18 3.5q12 3 23.5 3.5t22.5 1.5q-17 -13 -42 -22.5t-48 -1.5
q-11 5 -12 13t2.5 16.5t10 16t12.5 12.5q12 10 29 21.5t36.5 20t39 11.5t35.5 -3z" />
    <glyph glyph-name="Agrave" unicode="&#xc0;" horiz-adv-x="431" 
d="M197 267q-4 -1 -15 -3t-22 -2.5t-19.5 2t-8.5 11.5q0 1 -0.5 2.5t0.5 2.5q1 5 6.5 7t11.5 2t12 -1t9 -1q16 -3 31 -2l30 2q29 1 58 3t57 8q-20 58 -30 118.5t-15 123.5q-4 54 -1 108.5t1 108.5q-28 -32 -48 -75t-38 -82q-29 -63 -54.5 -126t-48.5 -128q-20 -54 -38 -110
l-36 -112q-1 -3 -4 -7t-6 -6.5t-6.5 -2.5t-6.5 6q-5 9 0 21t10 20l24 67q42 124 88.5 244.5t107.5 235.5q2 4 10.5 21.5t19 35.5t21.5 30.5t19 6.5q6 0 7.5 -15t0.5 -33.5t-3 -35t-2 -20.5q-3 -99 4.5 -198t42.5 -192q9 1 15.5 -2t9 -7.5t-1 -9t-14.5 -5.5q6 -14 12.5 -27.5
t16.5 -24.5q2 -3 6.5 -8t8.5 -10.5t5 -11.5t-3 -10q-3 -6 -13 -1.5t-21 12.5t-21.5 16t-14.5 11l-32 17q-14 5 -26.5 10.5t-26.5 9.5q-17 7 -34 7t-35 -1zM354 230q17 -9 32 -14q-7 14 -14.5 27.5t-13.5 27.5q0 2 -3 5q-6 0 -12 1t-14 -1q-18 -2 -37 -3.5t-38 -2.5
q26 -8 50.5 -18.5t49.5 -21.5zM187 958q-2 2 -3.5 4t-5.5 4q17 -8 30.5 -17.5t26.5 -20.5q29 -23 57 -48t55 -49q4 -3 13.5 -9t19 -13t15 -15t1.5 -14q-5 -8 -14 -5.5t-18 10t-16.5 16t-11.5 11.5q-29 24 -56.5 51t-53.5 54q-9 11 -19.5 20.5t-19.5 20.5z" />
    <glyph glyph-name="Aacute" unicode="&#xc1;" horiz-adv-x="431" 
d="M197 267q-4 -1 -15 -3t-22 -2.5t-19.5 2t-8.5 11.5q0 1 -0.5 2.5t0.5 2.5q1 5 6.5 7t11.5 2t12 -1t9 -1q16 -3 31 -2l30 2q29 1 58 3t57 8q-20 58 -30 118.5t-15 123.5q-4 54 -1 108.5t1 108.5q-28 -32 -48 -75t-38 -82q-29 -63 -54.5 -126t-48.5 -128q-20 -54 -38 -110
l-36 -112q-1 -3 -4 -7t-6 -6.5t-6.5 -2.5t-6.5 6q-5 9 0 21t10 20l24 67q42 124 88.5 244.5t107.5 235.5q2 4 10.5 21.5t19 35.5t21.5 30.5t19 6.5q6 0 7.5 -15t0.5 -33.5t-3 -35t-2 -20.5q-3 -99 4.5 -198t42.5 -192q9 1 15.5 -2t9 -7.5t-1 -9t-14.5 -5.5q6 -14 12.5 -27.5
t16.5 -24.5q2 -3 6.5 -8t8.5 -10.5t5 -11.5t-3 -10q-3 -6 -13 -1.5t-21 12.5t-21.5 16t-14.5 11l-32 17q-14 5 -26.5 10.5t-26.5 9.5q-17 7 -34 7t-35 -1zM354 230q17 -9 32 -14q-7 14 -14.5 27.5t-13.5 27.5q0 2 -3 5q-6 0 -12 1t-14 -1q-18 -2 -37 -3.5t-38 -2.5
q26 -8 50.5 -18.5t49.5 -21.5zM233 793q-9 -3 -15 -1t-8 6.5t1 10.5t11 10q12 5 24 9t25 10l52 24l135 65q-12 -11 -25 -21t-27 -20q-32 -20 -65 -38t-66 -33q-11 -5 -21 -11t-21 -11z" />
    <glyph glyph-name="Acircumflex" unicode="&#xc2;" horiz-adv-x="431" 
d="M197 267q-4 -1 -15 -3t-22 -2.5t-19.5 2t-8.5 11.5q0 1 -0.5 2.5t0.5 2.5q1 5 6.5 7t11.5 2t12 -1t9 -1q16 -3 31 -2l30 2q29 1 58 3t57 8q-20 58 -30 118.5t-15 123.5q-4 54 -1 108.5t1 108.5q-28 -32 -48 -75t-38 -82q-29 -63 -54.5 -126t-48.5 -128q-20 -54 -38 -110
l-36 -112q-1 -3 -4 -7t-6 -6.5t-6.5 -2.5t-6.5 6q-5 9 0 21t10 20l24 67q42 124 88.5 244.5t107.5 235.5q2 4 10.5 21.5t19 35.5t21.5 30.5t19 6.5q6 0 7.5 -15t0.5 -33.5t-3 -35t-2 -20.5q-3 -99 4.5 -198t42.5 -192q9 1 15.5 -2t9 -7.5t-1 -9t-14.5 -5.5q6 -14 12.5 -27.5
t16.5 -24.5q2 -3 6.5 -8t8.5 -10.5t5 -11.5t-3 -10q-3 -6 -13 -1.5t-21 12.5t-21.5 16t-14.5 11l-32 17q-14 5 -26.5 10.5t-26.5 9.5q-17 7 -34 7t-35 -1zM354 230q17 -9 32 -14q-7 14 -14.5 27.5t-13.5 27.5q0 2 -3 5q-6 0 -12 1t-14 -1q-18 -2 -37 -3.5t-38 -2.5
q26 -8 50.5 -18.5t49.5 -21.5zM250 780q-5 13 2.5 26t12.5 24q17 34 38 67q2 3 5.5 12t9 17t11.5 12.5t13 0.5q7 -2 8 -8.5t-0.5 -15t-3.5 -16.5t-1 -13q1 -12 4.5 -26.5t12.5 -24.5q5 -8 12.5 -17t7.5 -18q0 -7 -3 -9t-7.5 -1t-8.5 4t-6 6q-5 7 -8.5 15t-6.5 16
q-13 28 -16 54q0 3 -1 5t-1 4q-17 -18 -30 -44.5t-20 -52.5q0 -3 -1.5 -8t-4 -9.5t-6 -6.5t-9.5 1z" />
    <glyph glyph-name="Atilde" unicode="&#xc3;" horiz-adv-x="431" 
d="M197 267q-4 -1 -15 -3t-22 -2.5t-19.5 2t-8.5 11.5q0 1 -0.5 2.5t0.5 2.5q1 5 6.5 7t11.5 2t12 -1t9 -1q16 -3 31 -2l30 2q29 1 58 3t57 8q-20 58 -30 118.5t-15 123.5q-4 54 -1 108.5t1 108.5q-28 -32 -48 -75t-38 -82q-29 -63 -54.5 -126t-48.5 -128q-20 -54 -38 -110
l-36 -112q-1 -3 -4 -7t-6 -6.5t-6.5 -2.5t-6.5 6q-5 9 0 21t10 20l24 67q42 124 88.5 244.5t107.5 235.5q2 4 10.5 21.5t19 35.5t21.5 30.5t19 6.5q6 0 7.5 -15t0.5 -33.5t-3 -35t-2 -20.5q-3 -99 4.5 -198t42.5 -192q9 1 15.5 -2t9 -7.5t-1 -9t-14.5 -5.5q6 -14 12.5 -27.5
t16.5 -24.5q2 -3 6.5 -8t8.5 -10.5t5 -11.5t-3 -10q-3 -6 -13 -1.5t-21 12.5t-21.5 16t-14.5 11l-32 17q-14 5 -26.5 10.5t-26.5 9.5q-17 7 -34 7t-35 -1zM354 230q17 -9 32 -14q-7 14 -14.5 27.5t-13.5 27.5q0 2 -3 5q-6 0 -12 1t-14 -1q-18 -2 -37 -3.5t-38 -2.5
q26 -8 50.5 -18.5t49.5 -21.5zM315 892q7 -12 16.5 -28t19.5 -26.5t20.5 -10.5t20.5 19q4 8 10.5 18t17.5 12q11 0 10.5 -8.5t-6 -18.5t-12.5 -19.5t-9 -10.5q-17 -16 -32 -14t-28.5 14.5t-25.5 31.5t-24 37q-20 31 -41 22t-26 -50q-2 -8 -2 -20.5t-9 -19.5q-10 -5 -12 4
t0 22.5t5 26t4 15.5q8 21 20 34t25.5 15t28 -8.5t29.5 -36.5z" />
    <glyph glyph-name="Adieresis" unicode="&#xc4;" horiz-adv-x="431" 
d="M197 267q-4 -1 -15 -3t-22 -2.5t-19.5 2t-8.5 11.5q0 1 -0.5 2.5t0.5 2.5q1 5 6.5 7t11.5 2t12 -1t9 -1q16 -3 31 -2l30 2q29 1 58 3t57 8q-20 58 -30 118.5t-15 123.5q-4 54 -1 108.5t1 108.5q-28 -32 -48 -75t-38 -82q-29 -63 -54.5 -126t-48.5 -128q-20 -54 -38 -110
l-36 -112q-1 -3 -4 -7t-6 -6.5t-6.5 -2.5t-6.5 6q-5 9 0 21t10 20l24 67q42 124 88.5 244.5t107.5 235.5q2 4 10.5 21.5t19 35.5t21.5 30.5t19 6.5q6 0 7.5 -15t0.5 -33.5t-3 -35t-2 -20.5q-3 -99 4.5 -198t42.5 -192q9 1 15.5 -2t9 -7.5t-1 -9t-14.5 -5.5q6 -14 12.5 -27.5
t16.5 -24.5q2 -3 6.5 -8t8.5 -10.5t5 -11.5t-3 -10q-3 -6 -13 -1.5t-21 12.5t-21.5 16t-14.5 11l-32 17q-14 5 -26.5 10.5t-26.5 9.5q-17 7 -34 7t-35 -1zM354 230q17 -9 32 -14q-7 14 -14.5 27.5t-13.5 27.5q0 2 -3 5q-6 0 -12 1t-14 -1q-18 -2 -37 -3.5t-38 -2.5
q26 -8 50.5 -18.5t49.5 -21.5zM324 881q-1 3 -4 10.5t-4.5 16t0.5 14t11 3.5q5 -2 7.5 -7t4 -11t2.5 -12.5t3 -10.5q5 -11 10.5 -23t12.5 -20q1 -1 5.5 -6t7.5 -10.5t3 -10t-8 -4.5q-16 -2 -23 11.5t-12 24.5q-9 23 -12 28t-4 7zM221 925l32 -40q10 -11 22.5 -20.5
t18.5 -18.5t2.5 -16t-14.5 -5q-12 3 -17.5 11.5t-11.5 17.5q-8 11 -16 23t-13 26z" />
    <glyph glyph-name="Aring" unicode="&#xc5;" horiz-adv-x="431" 
d="M115 765q0 2 -1 3t-1 3q-5 18 3 32.5t22 25t31 18t31 10.5q51 14 108.5 12.5t108.5 -16.5q15 -5 27 -12.5t18 -17.5t4.5 -22t-14.5 -25q-26 -26 -60 -40.5t-71 -21.5q-1 -8 -1.5 -14t-0.5 -8q-3 -99 4.5 -198t42.5 -192q9 1 15.5 -2t9 -7.5t-1 -9t-14.5 -5.5
q6 -14 12.5 -27.5t16.5 -24.5q2 -3 6.5 -8t8.5 -10.5t5 -11.5t-3 -10q-3 -6 -13 -1.5t-21 12.5t-21.5 16t-14.5 11l-32 17q-14 5 -26.5 10.5t-26.5 9.5q-17 7 -34 7t-35 -1q-4 -1 -15 -3t-22 -2.5t-19.5 2t-8.5 11.5q0 1 -0.5 2.5t0.5 2.5q1 5 6.5 7t11.5 2t12 -1t9 -1
q16 -3 31 -2l30 2q29 1 58 3t57 8q-20 58 -30 118.5t-15 123.5q-3 43 -1.5 85.5t1.5 85.5l-34 -3q-15 -26 -27.5 -54t-24.5 -54q-29 -63 -54.5 -126t-48.5 -128q-20 -54 -38 -110l-36 -112q-1 -3 -4 -7t-6 -6.5t-6.5 -2.5t-6.5 6q-5 9 0 21t10 20l24 67q42 124 88.5 244.5
t107.5 235.5q0 2 2 4q-23 -1 -46.5 1.5t-42.5 13.5q-14 8 -16 17.5t2.5 19t13.5 17t19 12.5q32 15 66.5 19.5t69.5 2.5q-23 -3 -47 -8t-47 -13q-15 -5 -32 -12t-26 -21q-5 -7 -1.5 -12t11 -8t16 -5t12.5 -2q14 -2 28.5 -2.5t29.5 0.5q6 12 13.5 26t15.5 25t15.5 17t13.5 2
q7 -1 8 -19.5t-1 -38.5q15 3 30 9q12 3 26 8.5t26.5 12.5t23 16.5t16.5 21.5q2 0 1 2.5t-1 1.5q-3 10 -15 16t-27 9.5t-29.5 5t-22.5 1.5q-65 9 -126 -1q-19 -3 -44.5 -10.5t-37.5 -25.5q-8 -11 -6 -20.5t0 -20.5q0 -6 -4.5 -8.5t-9.5 0.5q-6 2 -8 9zM354 230q17 -9 32 -14
q-7 14 -14.5 27.5t-13.5 27.5q0 2 -3 5q-6 0 -12 1t-14 -1q-18 -2 -37 -3.5t-38 -2.5q26 -8 50.5 -18.5t49.5 -21.5zM302 757q-13 -15 -21 -28q5 1 10.5 1.5t10.5 2.5v24z" />
    <glyph glyph-name="AE" unicode="&#xc6;" horiz-adv-x="691" 
d="M765 730q-111 -55 -219 -98t-227 -75q2 -34 5 -67.5t9 -66.5l18 3q61 11 122 25t121 32q3 1 14 5.5t23 7.5t20 2t5 -11q-2 -8 -11.5 -12t-21.5 -7t-23.5 -4.5t-17.5 -2.5q-54 -15 -108 -27.5t-109 -23.5q23 -4 46 -15q19 -9 39 -24t35.5 -33.5t25.5 -40.5t9 -46
q-1 -19 -11 -31.5t-24.5 -18t-31.5 -5t-32 6.5l3 -7l-41 26q-6 12 -13 24t-12 25q0 2 -3 5h-4l-7 21q1 0 1.5 0.5t1.5 0.5q-17 49 -28 104q-15 -4 -43.5 -10.5t-56.5 -11t-49 -5.5t-22 7q-1 3 1.5 7.5t9.5 6.5q6 1 26 4.5t44 7l48 7t39 5.5q-5 30 -8.5 60t-5.5 60
q-1 4 -1 12l-25 -6q-3 -1 -12 -2.5t-17 -1.5t-13 3t1 12q7 9 19.5 10t23.5 2l22 5q-1 46 1.5 91.5t0.5 91.5q-28 -32 -48 -75t-38 -82q-29 -63 -54.5 -126t-48.5 -128q-20 -54 -38 -110l-36 -112q-1 -3 -4 -7t-6 -6.5t-6.5 -2.5t-6.5 6q-5 9 0 21t10 20l24 67
q42 124 88.5 244.5t107.5 235.5q2 4 10.5 21.5t19 35.5t21.5 30.5t19 6.5q6 0 7.5 -15t0.5 -33.5t-3 -35t-2 -20.5q-1 -29 -1.5 -57t0.5 -56q111 29 219 73t220 94q29 14 57.5 26t57.5 23q-24 -20 -51 -35.5t-56 -29.5zM375 278v-1q13 -22 30.5 -40.5t36.5 -20.5
q11 -2 23.5 -1.5t23.5 5.5q12 6 17 16t5.5 22t-3 24.5t-7.5 22.5q-20 41 -62 67t-102 32q5 -26 12 -51.5t17 -50.5z" />
    <glyph glyph-name="Ccedilla" unicode="&#xc7;" horiz-adv-x="578" 
d="M278 113q-6 3 -6 9.5t2.5 13.5t6.5 14t6 10q1 1 2 4q1 2 2 5t3 8q1 3 3 10.5t6 15.5q-33 7 -64 24t-59 40.5t-51.5 51.5t-42.5 56q-15 22 -30 52t-25.5 63t-14.5 65.5t3 61.5t27.5 50.5t58.5 32.5q36 8 72 5.5t72 -11.5t71 -21.5t67 -24.5q34 -13 67.5 -25t66.5 -21
q11 -3 21.5 -5.5t21.5 -4.5q8 -1 18.5 2t18.5 -2q5 -1 8 -5.5t-2 -9.5q-5 -6 -13 -7.5t-17 -0.5t-17.5 3t-15.5 4q-32 7 -63.5 18t-62.5 22q-54 20 -108.5 40t-112.5 28q-35 4 -71 0.5t-64 -27.5q-20 -19 -26.5 -44t-4 -52t11 -53.5t18.5 -48.5q22 -49 54 -93.5t73 -79.5
q30 -26 67 -47t80 -22q53 -2 97 27t73 69q8 11 14 24.5t14 22.5q8 8 15 5t5 -14q-2 -10 -7.5 -17t-10.5 -14q-23 -32 -50 -58.5t-64 -43.5q-24 -12 -47.5 -16.5t-46.5 -2.5q-1 -8 -6 -17t-8 -14q-2 -5 -5.5 -10.5t-3.5 -11.5l32 16q7 3 17.5 5t19.5 0.5t15.5 -6.5t6.5 -17
q1 -18 -8 -35t-22.5 -33t-29.5 -29t-29 -23q-5 -3 -14 -10.5t-19.5 -13.5t-20.5 -8t-16 5q-5 6 2.5 12.5t18.5 12t22.5 10t14.5 7.5q29 20 52 46t32 59q-1 1 -2 3q-1 0 -1 2q0 1 -1 1q-6 3 -13.5 1t-12.5 -4t-15 -10t-20.5 -15t-20.5 -11t-14 2z" />
    <glyph glyph-name="Egrave" unicode="&#xc8;" horiz-adv-x="628" 
d="M356 212q-21 15 -34 38t-21 49.5t-12 54t-7 51.5q-5 -1 -16.5 -5t-23.5 -6t-22 -1t-11 10q-1 3 1.5 7.5t9.5 6.5q14 4 30.5 3.5t30.5 2.5q-5 36 -7 72t-4 73q-32 -9 -64.5 -18t-65.5 -17q-20 -5 -40.5 -9.5t-40.5 -9.5q-3 -1 -12 -2.5t-17 -1.5t-13 3t1 12q7 9 19.5 10
t23.5 2q19 3 37.5 7.5t36.5 9.5q35 8 68 17.5t66 20.5q-2 55 -7 108.5t-18 106.5q-3 13 5.5 20t16.5 -7q4 -8 4.5 -16.5t2.5 -16.5q8 -57 12 -110q2 -19 3 -38.5t2 -39.5q98 29 191.5 67t186.5 80q29 14 57.5 26t57.5 23q-24 -20 -51 -35.5t-56 -29.5q-93 -46 -188.5 -85.5
t-195.5 -69.5l4 -74t6 -75q61 11 122 25t121 32q3 1 14 5.5t23 7.5t20 2t5 -11q-2 -8 -11.5 -12t-21.5 -7t-23.5 -4.5t-17.5 -2.5q-54 -15 -108 -27.5t-109 -23.5q23 -4 46 -15q19 -9 39 -24t35.5 -33.5t25.5 -40.5t9 -46q-1 -22 -13.5 -35t-30 -17.5t-37 -1t-34.5 14.5z
M323 302q4 -13 9.5 -27.5t14 -26.5t20 -21t26.5 -11q11 -2 23.5 -1.5t23.5 5.5q12 6 17 16t5.5 22t-3 24.5t-7.5 22.5q-20 42 -61.5 68t-86.5 30q3 -26 7 -51.5t12 -49.5zM292 928q-2 2 -3.5 4t-5.5 4q17 -8 30.5 -17.5t26.5 -20.5q29 -23 57 -48t55 -49q4 -3 13.5 -9
t19 -13t15 -15t1.5 -14q-5 -8 -14 -5.5t-18 10t-16.5 16t-11.5 11.5q-29 24 -56.5 51t-53.5 54q-9 11 -19.5 20.5t-19.5 20.5z" />
    <glyph glyph-name="Eacute" unicode="&#xc9;" horiz-adv-x="628" 
d="M356 212q-21 15 -34 38t-21 49.5t-12 54t-7 51.5q-5 -1 -16.5 -5t-23.5 -6t-22 -1t-11 10q-1 3 1.5 7.5t9.5 6.5q14 4 30.5 3.5t30.5 2.5q-5 36 -7 72t-4 73q-32 -9 -64.5 -18t-65.5 -17q-20 -5 -40.5 -9.5t-40.5 -9.5q-3 -1 -12 -2.5t-17 -1.5t-13 3t1 12q7 9 19.5 10
t23.5 2q19 3 37.5 7.5t36.5 9.5q35 8 68 17.5t66 20.5q-2 55 -7 108.5t-18 106.5q-3 13 5.5 20t16.5 -7q4 -8 4.5 -16.5t2.5 -16.5q8 -57 12 -110q2 -19 3 -38.5t2 -39.5q98 29 191.5 67t186.5 80q29 14 57.5 26t57.5 23q-24 -20 -51 -35.5t-56 -29.5q-93 -46 -188.5 -85.5
t-195.5 -69.5l4 -74t6 -75q61 11 122 25t121 32q3 1 14 5.5t23 7.5t20 2t5 -11q-2 -8 -11.5 -12t-21.5 -7t-23.5 -4.5t-17.5 -2.5q-54 -15 -108 -27.5t-109 -23.5q23 -4 46 -15q19 -9 39 -24t35.5 -33.5t25.5 -40.5t9 -46q-1 -22 -13.5 -35t-30 -17.5t-37 -1t-34.5 14.5z
M323 302q4 -13 9.5 -27.5t14 -26.5t20 -21t26.5 -11q11 -2 23.5 -1.5t23.5 5.5q12 6 17 16t5.5 22t-3 24.5t-7.5 22.5q-20 42 -61.5 68t-86.5 30q3 -26 7 -51.5t12 -49.5zM378 744q-9 -3 -15 -1t-8 6.5t1 10.5t11 10q12 5 24 9t25 10l52 24l135 65q-12 -11 -25 -21t-27 -20
q-32 -20 -65 -38t-66 -33q-11 -5 -21 -11t-21 -11z" />
    <glyph glyph-name="Ecircumflex" unicode="&#xca;" horiz-adv-x="628" 
d="M356 212q-21 15 -34 38t-21 49.5t-12 54t-7 51.5q-5 -1 -16.5 -5t-23.5 -6t-22 -1t-11 10q-1 3 1.5 7.5t9.5 6.5q14 4 30.5 3.5t30.5 2.5q-5 36 -7 72t-4 73q-32 -9 -64.5 -18t-65.5 -17q-20 -5 -40.5 -9.5t-40.5 -9.5q-3 -1 -12 -2.5t-17 -1.5t-13 3t1 12q7 9 19.5 10
t23.5 2q19 3 37.5 7.5t36.5 9.5q35 8 68 17.5t66 20.5q-2 55 -7 108.5t-18 106.5q-3 13 5.5 20t16.5 -7q4 -8 4.5 -16.5t2.5 -16.5q8 -57 12 -110q2 -19 3 -38.5t2 -39.5q98 29 191.5 67t186.5 80q29 14 57.5 26t57.5 23q-24 -20 -51 -35.5t-56 -29.5q-93 -46 -188.5 -85.5
t-195.5 -69.5l4 -74t6 -75q61 11 122 25t121 32q3 1 14 5.5t23 7.5t20 2t5 -11q-2 -8 -11.5 -12t-21.5 -7t-23.5 -4.5t-17.5 -2.5q-54 -15 -108 -27.5t-109 -23.5q23 -4 46 -15q19 -9 39 -24t35.5 -33.5t25.5 -40.5t9 -46q-1 -22 -13.5 -35t-30 -17.5t-37 -1t-34.5 14.5z
M323 302q4 -13 9.5 -27.5t14 -26.5t20 -21t26.5 -11q11 -2 23.5 -1.5t23.5 5.5q12 6 17 16t5.5 22t-3 24.5t-7.5 22.5q-20 42 -61.5 68t-86.5 30q3 -26 7 -51.5t12 -49.5zM368 731q-5 13 2.5 26t12.5 24q17 34 38 67q2 3 5.5 12t9 17t11.5 12.5t13 0.5q7 -2 8 -8.5t-0.5 -15
t-3.5 -16.5t-1 -13q1 -12 4.5 -26.5t12.5 -24.5q5 -8 12.5 -17t7.5 -18q0 -7 -3 -9t-7.5 -1t-8.5 4t-6 6q-5 7 -8.5 15t-6.5 16q-13 28 -16 54q0 3 -1 5t-1 4q-17 -18 -30 -44.5t-20 -52.5q0 -3 -1.5 -8t-4 -9.5t-6 -6.5t-9.5 1z" />
    <glyph glyph-name="Edieresis" unicode="&#xcb;" horiz-adv-x="628" 
d="M356 212q-21 15 -34 38t-21 49.5t-12 54t-7 51.5q-5 -1 -16.5 -5t-23.5 -6t-22 -1t-11 10q-1 3 1.5 7.5t9.5 6.5q14 4 30.5 3.5t30.5 2.5q-5 36 -7 72t-4 73q-32 -9 -64.5 -18t-65.5 -17q-20 -5 -40.5 -9.5t-40.5 -9.5q-3 -1 -12 -2.5t-17 -1.5t-13 3t1 12q7 9 19.5 10
t23.5 2q19 3 37.5 7.5t36.5 9.5q35 8 68 17.5t66 20.5q-2 55 -7 108.5t-18 106.5q-3 13 5.5 20t16.5 -7q4 -8 4.5 -16.5t2.5 -16.5q8 -57 12 -110q2 -19 3 -38.5t2 -39.5q98 29 191.5 67t186.5 80q29 14 57.5 26t57.5 23q-24 -20 -51 -35.5t-56 -29.5q-93 -46 -188.5 -85.5
t-195.5 -69.5l4 -74t6 -75q61 11 122 25t121 32q3 1 14 5.5t23 7.5t20 2t5 -11q-2 -8 -11.5 -12t-21.5 -7t-23.5 -4.5t-17.5 -2.5q-54 -15 -108 -27.5t-109 -23.5q23 -4 46 -15q19 -9 39 -24t35.5 -33.5t25.5 -40.5t9 -46q-1 -22 -13.5 -35t-30 -17.5t-37 -1t-34.5 14.5z
M323 302q4 -13 9.5 -27.5t14 -26.5t20 -21t26.5 -11q11 -2 23.5 -1.5t23.5 5.5q12 6 17 16t5.5 22t-3 24.5t-7.5 22.5q-20 42 -61.5 68t-86.5 30q3 -26 7 -51.5t12 -49.5zM423 814q-1 3 -4 10.5t-4.5 16t0.5 14t11 3.5q5 -2 7.5 -7t4 -11t2.5 -12.5t3 -10.5q5 -11 10.5 -23
t12.5 -20q1 -1 5.5 -6t7.5 -10.5t3 -10t-8 -4.5q-16 -2 -23 11.5t-12 24.5q-9 23 -12 28t-4 7zM320 858l32 -40q10 -11 22.5 -20.5t18.5 -18.5t2.5 -16t-14.5 -5q-12 3 -17.5 11.5t-11.5 17.5q-8 11 -16 23t-13 26z" />
    <glyph glyph-name="Igrave" unicode="&#xcc;" horiz-adv-x="437" 
d="M71 930q-2 2 -3.5 4t-5.5 4q17 -8 30.5 -17.5t26.5 -20.5q26 -21 50.5 -43t48.5 -43q3 17 10 31q-2 -9 -2 -18.5v-19.5l5 -4q4 -3 13.5 -9t19 -13t15 -15t1.5 -14q-5 -7 -11.5 -6t-14 6t-15 12.5l-13.5 13.5q1 -13 1.5 -24.5t0.5 -22.5q0 -10 1 -20t1 -20q38 2 77 2.5
t78 -4.5q16 -2 38 -4t36 -13q9 -7 8 -11t-6.5 -5.5t-13 -1.5t-11.5 2q-30 13 -58 14q-37 5 -74 4.5t-74 -2.5q3 -109 9.5 -218.5t26.5 -217.5q29 3 57.5 7.5t57.5 9.5l28 6t28 8q10 2 19.5 3.5t17.5 5.5q-17 -12 -37 -18.5t-40 -12.5q-32 -9 -63.5 -16t-63.5 -12
q3 -12 5.5 -23.5t7.5 -22.5q1 -2 6 -9.5t8 -16t2.5 -15t-10.5 -4.5q-10 1 -17 12.5t-12 25.5t-8 28t-4 21q-28 -3 -57 -5t-57 -1q-17 2 -35.5 1.5t-33.5 5.5q-6 2 -11 8t1 12q5 5 13 4.5t16 -2.5q39 -8 79 -7.5t81 4.5q-22 108 -27.5 218.5t-5.5 220.5q-28 -2 -56 -3t-55 -1
q-17 0 -36.5 -2t-36.5 3q-5 1 -10 6.5t-1 11.5q5 6 13 6t14 -1q42 -6 84 -5l84 2q0 11 0.5 21.5t0.5 20.5v28.5t2 28.5q-28 23 -53.5 49t-50.5 52q-9 11 -19.5 20.5t-19.5 20.5z" />
    <glyph glyph-name="Iacute" unicode="&#xcd;" horiz-adv-x="437" 
d="M193 752q-9 -3 -15 -1t-8 6.5t1 10.5t11 10t16.5 6.5t16.5 5.5q2 14 4.5 28t8.5 27q-2 -12 -2.5 -24.5t0.5 -26.5l5 3l52 24l135 65q-12 -11 -25 -21t-27 -20q-32 -20 -65 -38t-66 -33q-3 -2 -9 -4q1 -11 1.5 -20.5t0.5 -18.5q0 -10 1 -20t1 -20q38 2 77 2.5t78 -4.5
q16 -2 38 -4t36 -13q9 -7 8 -11t-6.5 -5.5t-13 -1.5t-11.5 2q-30 13 -58 14q-37 5 -74 4.5t-74 -2.5q3 -109 9.5 -218.5t26.5 -217.5q29 3 57.5 7.5t57.5 9.5l28 6t28 8q10 2 19.5 3.5t17.5 5.5q-17 -12 -37 -18.5t-40 -12.5q-32 -9 -63.5 -16t-63.5 -12q3 -12 5.5 -23.5
t7.5 -22.5q1 -2 6 -9.5t8 -16t2.5 -15t-10.5 -4.5q-10 1 -17 12.5t-12 25.5t-8 28t-4 21q-28 -3 -57 -5t-57 -1q-17 2 -35.5 1.5t-33.5 5.5q-6 2 -11 8t1 12q5 5 13 4.5t16 -2.5q39 -8 79 -7.5t81 4.5q-22 108 -27.5 218.5t-5.5 220.5q-28 -2 -56 -3t-55 -1q-17 0 -36.5 -2
t-36.5 3q-5 1 -10 6.5t-1 11.5q5 6 13 6t14 -1q42 -6 84 -5l84 2q0 11 0.5 21.5t0.5 20.5v30l-19 -9v0z" />
    <glyph glyph-name="Icircumflex" unicode="&#xce;" horiz-adv-x="437" 
d="M248 213q-28 -3 -57 -5t-57 -1q-17 2 -35.5 1.5t-33.5 5.5q-6 2 -11 8t1 12q5 5 13 4.5t16 -2.5q39 -8 79 -7.5t81 4.5q-22 108 -27.5 218.5t-5.5 220.5q-28 -2 -56 -3t-55 -1q-17 0 -36.5 -2t-36.5 3q-5 1 -10 6.5t-1 11.5q5 6 13 6t14 -1q42 -6 84 -5l84 2
q0 11 0.5 21.5t0.5 20.5q1 28 3 58t13 56q-4 -26 -2 -57t2 -57q0 -10 1 -20t1 -20q38 2 77 2.5t78 -4.5q16 -2 38 -4t36 -13q9 -7 8 -11t-6.5 -5.5t-13 -1.5t-11.5 2q-30 13 -58 14q-37 5 -74 4.5t-74 -2.5q3 -109 9.5 -218.5t26.5 -217.5q29 3 57.5 7.5t57.5 9.5l28 6t28 8
q10 2 19.5 3.5t17.5 5.5q-17 -12 -37 -18.5t-40 -12.5q-32 -9 -63.5 -16t-63.5 -12q3 -12 5.5 -23.5t7.5 -22.5q1 -2 6 -9.5t8 -16t2.5 -15t-10.5 -4.5q-10 1 -17 12.5t-12 25.5t-8 28t-4 21zM169 798q-5 13 2.5 26t12.5 24q17 34 38 67q2 3 5.5 12t9 17t11.5 12.5t13 0.5
q7 -2 8 -8.5t-0.5 -15t-3.5 -16.5t-1 -13q1 -12 4.5 -26.5t12.5 -24.5q5 -8 12.5 -17t7.5 -18q0 -7 -3 -9t-7.5 -1t-8.5 4t-6 6q-5 7 -8.5 15t-6.5 16q-13 28 -16 54q0 3 -1 5t-1 4q-17 -18 -30 -44.5t-20 -52.5q0 -3 -1.5 -8t-4 -9.5t-6 -6.5t-9.5 1z" />
    <glyph glyph-name="Idieresis" unicode="&#xcf;" horiz-adv-x="437" 
d="M248 213q-28 -3 -57 -5t-57 -1q-17 2 -35.5 1.5t-33.5 5.5q-6 2 -11 8t1 12q5 5 13 4.5t16 -2.5q39 -8 79 -7.5t81 4.5q-22 108 -27.5 218.5t-5.5 220.5q-28 -2 -56 -3t-55 -1q-17 0 -36.5 -2t-36.5 3q-5 1 -10 6.5t-1 11.5q5 6 13 6t14 -1q42 -6 84 -5l84 2
q0 11 0.5 21.5t0.5 20.5q1 28 3 58t13 56q-4 -26 -2 -57t2 -57q0 -10 1 -20t1 -20q38 2 77 2.5t78 -4.5q16 -2 38 -4t36 -13q9 -7 8 -11t-6.5 -5.5t-13 -1.5t-11.5 2q-30 13 -58 14q-37 5 -74 4.5t-74 -2.5q3 -109 9.5 -218.5t26.5 -217.5q29 3 57.5 7.5t57.5 9.5l28 6t28 8
q10 2 19.5 3.5t17.5 5.5q-17 -12 -37 -18.5t-40 -12.5q-32 -9 -63.5 -16t-63.5 -12q3 -12 5.5 -23.5t7.5 -22.5q1 -2 6 -9.5t8 -16t2.5 -15t-10.5 -4.5q-10 1 -17 12.5t-12 25.5t-8 28t-4 21zM228 886q-1 3 -4 10.5t-4.5 16t0.5 14t11 3.5q5 -2 7.5 -7t4 -11t2.5 -12.5
t3 -10.5q5 -11 10.5 -23t12.5 -20q1 -1 5.5 -6t7.5 -10.5t3 -10t-8 -4.5q-16 -2 -23 11.5t-12 24.5q-9 23 -12 28t-4 7zM125 930l32 -40q10 -11 22.5 -20.5t18.5 -18.5t2.5 -16t-14.5 -5q-12 3 -17.5 11.5t-11.5 17.5q-8 11 -16 23t-13 26z" />
    <glyph glyph-name="Eth" unicode="&#xd0;" horiz-adv-x="679" 
d="M404 436q14 0 31.5 0.5t28.5 -7.5q6 -8 -1.5 -11.5t-16.5 -3.5q-13 -2 -26.5 0t-27.5 3l24 -73q1 -5 5.5 -18t8.5 -27.5t4 -26t-9 -12.5q-6 -4 -11 -0.5t-9 10t-7 13.5t-5 11q-8 11 -15.5 22t-15.5 21q-29 39 -60 75q-6 -2 -19 -6.5t-26.5 -8t-24 -3.5t-11.5 8
q0 10 19.5 16.5t46.5 10.5q-11 11 -21 22l-20 22q-32 33 -65.5 63.5t-69.5 57.5q-14 9 -28 17.5t-29 15.5q-4 1 -11 3t-14 5t-11 7.5t-2 10.5q-4 7 0.5 13t12.5 10.5t17.5 7t14.5 4.5q33 14 67.5 23.5t71.5 12.5q90 8 178.5 -16.5t160.5 -77.5q19 -14 38.5 -31.5t35 -37.5
t26.5 -42.5t14 -47.5q5 -44 -8.5 -85.5t-39 -78.5t-58.5 -68.5t-66 -54.5q-18 -12 -46.5 -27t-59 -23.5t-59.5 -7t-49 22.5q-14 16 -14 36t10 37q13 23 35 33t47 18q-14 -6 -29 -16.5t-26.5 -23.5t-16.5 -28t0 -30q6 -18 22 -23.5t35 -4.5t38 6.5t32 10.5q50 20 92.5 54.5
t75.5 76.5q15 20 28.5 42.5t22.5 46.5t12 49t-3 50q-9 36 -33.5 66.5t-56.5 54.5t-68 42t-68 30q-44 16 -90 23t-92.5 5t-91.5 -14.5t-85 -35.5q17 -9 32 -20t30 -23q52 -40 97.5 -86t88.5 -96q19 3 39 4t37 2q-5 14 -10.5 27t-10.5 26q-14 40 -30.5 79t-36.5 75q-3 6 -6 17
t6 16q5 2 9 -1t6 -6q11 -14 15.5 -32.5t11.5 -33.5q17 -42 33 -83t31 -83h19zM406 295q-3 31 -12 61.5t-21 61.5q-35 0 -68 -6l62 -72q11 -12 20 -23t19 -22zM355 276q-4 -2 -6 -2zM349 274q-1 -1 -3 -1q2 0 3 1z" />
    <glyph glyph-name="Ntilde" unicode="&#xd1;" horiz-adv-x="489" 
d="M165 232q0 -2 2.5 -11t3.5 -18.5t-1 -15.5t-11 -1q-7 4 -10.5 12.5t-4.5 19t-1 20.5v17q-4 45 -3 92t8 93q-43 76 -79 155q-12 29 -24 59.5t-21 60.5q-2 7 -4.5 15t-4 16.5t-1 16t5.5 13.5q3 2 6 2q7 1 10 -4.5t3.5 -13t0.5 -15.5v-11q4 -20 10 -38.5t13 -37.5
q19 -48 41.5 -95t48.5 -92q0 3 3.5 12t8 16.5t9.5 9t8 -10.5q3 -13 -4.5 -28t-10.5 -26q26 -44 54.5 -85.5t60.5 -79.5q11 -13 25.5 -28.5t30.5 -28t34 -20t37 -5.5q13 0 20 8q10 7 13.5 19.5t4 26.5t-1.5 27.5t-4 24.5q-5 29 -12.5 57.5t-15.5 57.5q-17 53 -34.5 105
t-34.5 106q-9 29 -17.5 58.5t-14.5 58.5q-1 7 -3 16.5t-3 19t0 17.5t7 13q5 5 9.5 2.5t6.5 -7.5q5 -8 2.5 -18.5t-2.5 -18.5q2 -13 4.5 -26t5.5 -25q8 -37 18.5 -71.5t23.5 -70.5l46.5 -139.5t34.5 -143.5q1 -14 2 -31.5t-2 -33.5t-11.5 -29.5t-25.5 -19.5q-20 -7 -41 -0.5
t-38 17.5q-30 18 -55.5 43t-48 54t-42 60t-37.5 60q-4 -44 -5.5 -91t7.5 -91zM160 868q7 -12 16.5 -28t19.5 -26.5t20.5 -10.5t20.5 19q4 8 10.5 18t17.5 12q11 0 10.5 -8.5t-6 -18.5t-12.5 -19.5t-9 -10.5q-17 -16 -32 -14t-28.5 14.5t-25.5 31.5t-24 37q-20 31 -41 22
t-26 -50q-2 -8 -2 -20.5t-9 -19.5q-10 -5 -12 4t0 22.5t5 26t4 15.5q8 21 20 34t25.5 15t28 -8.5t29.5 -36.5z" />
    <glyph glyph-name="Ograve" unicode="&#xd2;" horiz-adv-x="644" 
d="M605 633q30 -69 13 -136t-62 -124q-29 -37 -66 -67.5t-79.5 -54t-88.5 -38t-92 -19.5q-23 -3 -46.5 -2.5t-46.5 5t-44 14.5t-38 26q-22 23 -32 54.5t-8 63.5q0 41 12.5 82t32.5 79t47.5 72t57.5 61q26 23 57.5 42t66.5 27q13 2 30 2.5t34.5 -2t33.5 -9t25 -18.5
q5 -6 3 -13.5t-11 -5.5q-6 1 -11.5 4.5t-10.5 7.5l-20 11q-32 11 -66 3t-62 -25q-57 -32 -100 -86t-69 -114q-9 -22 -16.5 -47t-10 -51t1 -51.5t15.5 -47.5q14 -24 36 -37t48 -18.5t53.5 -5t51.5 4.5q54 8 107.5 29.5t100.5 55t83.5 78t54.5 97.5q18 46 10 91t-32 84.5
t-59.5 73.5t-72.5 58q-43 28 -93.5 49t-103.5 19q-26 -1 -45.5 -11t-32 -26.5t-17 -39t-1.5 -47.5q-8 29 -4.5 61.5t28.5 53.5q31 26 73 26.5t79 -10.5q43 -12 86.5 -33.5t81.5 -51t68.5 -66t49.5 -78.5zM346 983q-2 2 -3.5 4t-5.5 4q17 -8 30.5 -17.5t26.5 -20.5
q29 -23 57 -48t55 -49q4 -3 13.5 -9t19 -13t15 -15t1.5 -14q-5 -8 -14 -5.5t-18 10t-16.5 16t-11.5 11.5q-29 24 -56.5 51t-53.5 54q-9 11 -19.5 20.5t-19.5 20.5z" />
    <glyph glyph-name="Oacute" unicode="&#xd3;" horiz-adv-x="644" 
d="M278 803q-9 -3 -15 -1t-8 6.5t1 10.5t11 10q11 5 22 8t22 8q-34 10 -72 10q-26 -1 -45.5 -11t-32 -26.5t-17 -39t-1.5 -47.5q-8 29 -4.5 61.5t28.5 53.5q31 26 73 26.5t79 -10.5q4 -2 8 -2.5t9 -2.5l32 15l135 65q-12 -11 -25 -21t-27 -20q-21 -14 -42.5 -26t-43.5 -23
q38 -15 74 -36.5t67.5 -49t56.5 -60t42 -68.5q30 -69 13 -136t-62 -124q-29 -37 -66 -67.5t-79.5 -54t-88.5 -38t-92 -19.5q-23 -3 -46.5 -2.5t-46.5 5t-44 14.5t-38 26q-22 23 -32 54.5t-8 63.5q0 41 12.5 82t32.5 79t47.5 72t57.5 61q26 23 57.5 42t66.5 27q13 2 30 2.5
t34.5 -2t33.5 -9t25 -18.5q5 -6 3 -13.5t-11 -5.5q-6 1 -11.5 4.5t-10.5 7.5l-20 11q-32 11 -66 3t-62 -25q-57 -32 -100 -86t-69 -114q-9 -22 -16.5 -47t-10 -51t1 -51.5t15.5 -47.5q14 -24 36 -37t48 -18.5t53.5 -5t51.5 4.5q54 8 107.5 29.5t100.5 55t83.5 78t54.5 97.5
q18 46 10 91t-32 84.5t-59.5 73.5t-72.5 58q-22 14 -45 26.5t-49 21.5l-22 -10q-11 -5 -21 -11t-21 -11z" />
    <glyph glyph-name="Ocircumflex" unicode="&#xd4;" horiz-adv-x="644" 
d="M237 784q-5 13 2.5 26t12.5 24l10 20q-6 1 -11.5 1h-11.5q-26 -1 -45.5 -11t-32 -26.5t-17 -39t-1.5 -47.5q-8 29 -4.5 61.5t28.5 53.5q21 18 48.5 23t56.5 2q4 8 8.5 15t9.5 15q2 3 5.5 12t9 17t11.5 12.5t13 0.5q7 -2 8 -8.5t-0.5 -15t-3.5 -16.5t-1 -13q0 -8 1.5 -17
t4.5 -17q41 -13 81.5 -34.5t75.5 -50t63.5 -63.5t46.5 -75q30 -69 13 -136t-62 -124q-29 -37 -66 -67.5t-79.5 -54t-88.5 -38t-92 -19.5q-23 -3 -46.5 -2.5t-46.5 5t-44 14.5t-38 26q-22 23 -32 54.5t-8 63.5q0 41 12.5 82t32.5 79t47.5 72t57.5 61q26 23 57.5 42t66.5 27
q13 2 30 2.5t34.5 -2t33.5 -9t25 -18.5q5 -6 3 -13.5t-11 -5.5q-6 1 -11.5 4.5t-10.5 7.5l-20 11q-32 11 -66 3t-62 -25q-57 -32 -100 -86t-69 -114q-9 -22 -16.5 -47t-10 -51t1 -51.5t15.5 -47.5q14 -24 36 -37t48 -18.5t53.5 -5t51.5 4.5q54 8 107.5 29.5t100.5 55
t83.5 78t54.5 97.5q18 46 10 91t-32 84.5t-59.5 73.5t-72.5 58q-19 12 -39 23t-41 20q5 -6 9 -13t4 -13q0 -7 -3 -9t-7.5 -1t-8.5 4t-6 6q-5 7 -8.5 15t-6.5 16l-3 6q-24 8 -46 11q-7 -12 -11.5 -25.5t-7.5 -25.5q0 -3 -1.5 -8t-4 -9.5t-6 -6.5t-9.5 1zM318 862q-4 14 -5 27
q0 3 -1 5t-1 4q-6 -6 -11.5 -13.5t-10.5 -15.5z" />
    <glyph glyph-name="Otilde" unicode="&#xd5;" horiz-adv-x="644" 
d="M439 877q7 -12 16.5 -28t19.5 -26.5t20.5 -10.5t20.5 19q4 8 10.5 18t17.5 12q11 0 10.5 -8.5t-6 -18.5t-12.5 -19.5t-9 -10.5q-17 -16 -32 -14t-28.5 14.5t-25.5 31.5t-24 37q-20 30 -39.5 23t-26.5 -44q39 -14 77.5 -35.5t72 -49.5t60.5 -62t44 -72q30 -69 13 -136
t-62 -124q-29 -37 -66 -67.5t-79.5 -54t-88.5 -38t-92 -19.5q-23 -3 -46.5 -2.5t-46.5 5t-44 14.5t-38 26q-22 23 -32 54.5t-8 63.5q0 41 12.5 82t32.5 79t47.5 72t57.5 61q26 23 57.5 42t66.5 27q13 2 30 2.5t34.5 -2t33.5 -9t25 -18.5q5 -6 3 -13.5t-11 -5.5
q-6 1 -11.5 4.5t-10.5 7.5l-20 11q-32 11 -66 3t-62 -25q-57 -32 -100 -86t-69 -114q-9 -22 -16.5 -47t-10 -51t1 -51.5t15.5 -47.5q14 -24 36 -37t48 -18.5t53.5 -5t51.5 4.5q54 8 107.5 29.5t100.5 55t83.5 78t54.5 97.5q18 46 10 91t-32 84.5t-59.5 73.5t-72.5 58
q-20 13 -42 24.5t-45 21.5q-1 -8 -2.5 -15.5t-7.5 -12.5q-12 -5 -13 7.5t2 28.5q-22 7 -44 11t-45 3q-26 -1 -45.5 -11t-32 -26.5t-17 -39t-1.5 -47.5q-8 29 -4.5 61.5t28.5 53.5q31 26 73 26.5t79 -10.5l6 -2t7 -2l4 15q8 21 20 34t25.5 15t28 -8.5t29.5 -36.5z" />
    <glyph glyph-name="Odieresis" unicode="&#xd6;" horiz-adv-x="644" 
d="M333 867q-1 3 -4 10.5t-4.5 16t0.5 14t11 3.5q5 -2 7.5 -7t4 -11t2.5 -12.5t3 -10.5q2 -5 4.5 -11t5.5 -11q38 -15 74.5 -36.5t68 -49t57 -60t42.5 -69.5q30 -69 13 -136t-62 -124q-29 -37 -66 -67.5t-79.5 -54t-88.5 -38t-92 -19.5q-23 -3 -46.5 -2.5t-46.5 5t-44 14.5
t-38 26q-22 23 -32 54.5t-8 63.5q0 41 12.5 82t32.5 79t47.5 72t57.5 61q26 23 57.5 42t66.5 27q13 2 30 2.5t34.5 -2t33.5 -9t25 -18.5q5 -6 3 -13.5t-11 -5.5q-6 1 -11.5 4.5t-10.5 7.5l-20 11q-32 11 -66 3t-62 -25q-57 -32 -100 -86t-69 -114q-9 -22 -16.5 -47t-10 -51
t1 -51.5t15.5 -47.5q14 -24 36 -37t48 -18.5t53.5 -5t51.5 4.5q54 8 107.5 29.5t100.5 55t83.5 78t54.5 97.5q18 46 10 91t-32 84.5t-59.5 73.5t-72.5 58q-12 8 -24.5 15.5t-26.5 14.5q5 -7 7 -14t-8 -7q-16 -2 -23 11.5t-12 24.5l-1 1q-16 6 -32 11t-33 8q12 -11 20 -20
q6 -9 2.5 -16t-14.5 -5q-12 3 -17.5 11.5t-11.5 17.5q-3 3 -6 7t-5 8h-12q-26 -1 -45.5 -11t-32 -26.5t-17 -39t-1.5 -47.5q-8 29 -4.5 61.5t28.5 53.5q15 13 34 19t39 7q-2 4 -3.5 8t-3.5 9l-3 22q8 -11 15 -20t15 -19q15 -1 30 -3.5t29 -6.5l20 -6q-6 12 -6 11z" />
    <glyph glyph-name="multiply" unicode="&#xd7;" horiz-adv-x="198" 
d="M20 477q-2 3 -4.5 7.5t-0.5 9.5t6.5 7t9.5 -2q11 -8 18 -21t18 -24q24 -22 49 -40q3 4 8.5 15.5t12 22.5t13.5 18t13 3q7 -4 5 -11.5t-7.5 -16.5t-12 -16.5t-8.5 -11.5l-9 -14q4 -3 14 -7.5t19.5 -10t15.5 -12t2 -13.5q-4 -8 -12 -6t-16.5 8t-16 13t-10.5 9l-5 4
q-11 -14 -20.5 -28t-20.5 -28q-6 -8 -11 -17t-13 -17q-2 -3 -6 -5.5t-7.5 -3t-7 1t-4.5 6.5q-2 9 6 17t13 14q17 15 29.5 33t24.5 38q-14 11 -28.5 22.5t-27.5 24.5q-8 8 -15.5 15t-13.5 16z" />
    <glyph glyph-name="Oslash" unicode="&#xd8;" horiz-adv-x="644" 
d="M605 633q30 -69 13 -136t-62 -124q-29 -37 -66 -67.5t-79.5 -54t-88.5 -38t-92 -19.5q-42 -5 -85.5 1t-78.5 32q-25 -42 -34 -84q-1 0 -1 1q-1 1 0 4q-2 23 6.5 45t19.5 42l-2 2q-22 23 -32 54.5t-8 63.5q0 41 12.5 82t32.5 79t47.5 72t57.5 61q26 23 57.5 42t66.5 27
q13 2 30 2.5t34.5 -2t33.5 -9t25 -18.5q5 -6 3 -13.5t-11 -5.5q-6 1 -11.5 4.5t-10.5 7.5l-20 11q-32 11 -66 3t-62 -25q-57 -32 -100 -86t-69 -114q-9 -22 -16.5 -47t-10 -51t1 -51.5t15.5 -47.5q7 -12 14 -19q26 46 67.5 97t90 100t98.5 92.5t93 73.5q6 4 19 12.5t30 19
t36 22t36 22.5q-23 27 -49.5 50t-53.5 41q-43 28 -93.5 49t-103.5 19q-26 -1 -45.5 -11t-32 -26.5t-17 -39t-1.5 -47.5q-8 29 -4.5 61.5t28.5 53.5q31 26 73 26.5t79 -10.5q66 -18 130 -57.5t109 -96.5l33 20q6 3 14.5 5t15 1.5t8.5 -4.5t-6 -12t-17.5 -11.5t-17.5 -8.5
l-16 -9q19 -26 33 -56zM156 348q-20 -23 -40 -48.5t-37 -52.5q16 -13 36.5 -20t42.5 -10t44 -1.5t42 4.5q54 8 107.5 29.5t100.5 55t83.5 78t54.5 97.5q20 54 7.5 104t-44.5 94q-16 -9 -35 -20.5t-36 -22t-30 -19t-17 -11.5q-30 -21 -68.5 -54t-77.5 -69t-74 -71.5
t-59 -62.5z" />
    <glyph glyph-name="Ugrave" unicode="&#xd9;" horiz-adv-x="443" 
d="M396 460l9 -40.5t6.5 -45t-3.5 -42.5t-21 -35q-23 -21 -52.5 -36.5t-62 -25.5t-66 -16t-63.5 -7q-24 -1 -44.5 1.5t-36.5 10.5t-27 23.5t-15 40.5q-11 64 -3 131t18 130q4 26 9 52.5t10 52.5q1 6 2 15t2.5 18.5t4.5 18t9 12.5q8 7 10.5 2.5t2.5 -13.5t-2 -18.5t-2 -11.5
q-4 -11 -6.5 -21.5t-4.5 -21.5q-11 -51 -19 -101.5t-13 -102.5q-3 -27 -4 -55t1 -55q1 -19 4.5 -38t15.5 -33q12 -12 28.5 -16.5t35 -4.5t37 2.5t32.5 5.5q45 7 90.5 22t83.5 41q23 17 28 38t0 50q-6 50 -18.5 97t-20.5 96q-5 32 -7.5 65.5t0.5 65.5q2 11 2.5 25.5
t11.5 20.5q7 4 10 0t3.5 -11t-1 -14t-1.5 -10q-9 -32 -8 -65t6.5 -67t13.5 -67t15 -63zM78 924q-2 2 -3.5 4t-5.5 4q17 -8 30.5 -17.5t26.5 -20.5q29 -23 57 -48t55 -49q4 -3 13.5 -9t19 -13t15 -15t1.5 -14q-5 -8 -14 -5.5t-18 10t-16.5 16t-11.5 11.5q-29 24 -56.5 51
t-53.5 54q-9 11 -19.5 20.5t-19.5 20.5z" />
    <glyph glyph-name="Uacute" unicode="&#xda;" horiz-adv-x="443" 
d="M396 460l9 -40.5t6.5 -45t-3.5 -42.5t-21 -35q-23 -21 -52.5 -36.5t-62 -25.5t-66 -16t-63.5 -7q-24 -1 -44.5 1.5t-36.5 10.5t-27 23.5t-15 40.5q-11 64 -3 131t18 130q4 26 9 52.5t10 52.5q1 6 2 15t2.5 18.5t4.5 18t9 12.5q8 7 10.5 2.5t2.5 -13.5t-2 -18.5t-2 -11.5
q-4 -11 -6.5 -21.5t-4.5 -21.5q-11 -51 -19 -101.5t-13 -102.5q-3 -27 -4 -55t1 -55q1 -19 4.5 -38t15.5 -33q12 -12 28.5 -16.5t35 -4.5t37 2.5t32.5 5.5q45 7 90.5 22t83.5 41q23 17 28 38t0 50q-6 50 -18.5 97t-20.5 96q-5 32 -7.5 65.5t0.5 65.5q2 11 2.5 25.5
t11.5 20.5q7 4 10 0t3.5 -11t-1 -14t-1.5 -10q-9 -32 -8 -65t6.5 -67t13.5 -67t15 -63zM166 748q-9 -3 -15 -1t-8 6.5t1 10.5t11 10q12 5 24 9t25 10l52 24l135 65q-12 -11 -25 -21t-27 -20q-32 -20 -65 -38t-66 -33q-11 -5 -21 -11t-21 -11z" />
    <glyph glyph-name="Ucircumflex" unicode="&#xdb;" horiz-adv-x="443" 
d="M396 460l9 -40.5t6.5 -45t-3.5 -42.5t-21 -35q-23 -21 -52.5 -36.5t-62 -25.5t-66 -16t-63.5 -7q-24 -1 -44.5 1.5t-36.5 10.5t-27 23.5t-15 40.5q-11 64 -3 131t18 130q4 26 9 52.5t10 52.5q1 6 2 15t2.5 18.5t4.5 18t9 12.5q8 7 10.5 2.5t2.5 -13.5t-2 -18.5t-2 -11.5
q-4 -11 -6.5 -21.5t-4.5 -21.5q-11 -51 -19 -101.5t-13 -102.5q-3 -27 -4 -55t1 -55q1 -19 4.5 -38t15.5 -33q12 -12 28.5 -16.5t35 -4.5t37 2.5t32.5 5.5q45 7 90.5 22t83.5 41q23 17 28 38t0 50q-6 50 -18.5 97t-20.5 96q-5 32 -7.5 65.5t0.5 65.5q2 11 2.5 25.5
t11.5 20.5q7 4 10 0t3.5 -11t-1 -14t-1.5 -10q-9 -32 -8 -65t6.5 -67t13.5 -67t15 -63zM159 723q-5 13 2.5 26t12.5 24q17 34 38 67q2 3 5.5 12t9 17t11.5 12.5t13 0.5q7 -2 8 -8.5t-0.5 -15t-3.5 -16.5t-1 -13q1 -12 4.5 -26.5t12.5 -24.5q5 -8 12.5 -17t7.5 -18
q0 -7 -3 -9t-7.5 -1t-8.5 4t-6 6q-5 7 -8.5 15t-6.5 16q-13 28 -16 54q0 3 -1 5t-1 4q-17 -18 -30 -44.5t-20 -52.5q0 -3 -1.5 -8t-4 -9.5t-6 -6.5t-9.5 1z" />
    <glyph glyph-name="Udieresis" unicode="&#xdc;" horiz-adv-x="443" 
d="M396 460l9 -40.5t6.5 -45t-3.5 -42.5t-21 -35q-23 -21 -52.5 -36.5t-62 -25.5t-66 -16t-63.5 -7q-24 -1 -44.5 1.5t-36.5 10.5t-27 23.5t-15 40.5q-11 64 -3 131t18 130q4 26 9 52.5t10 52.5q1 6 2 15t2.5 18.5t4.5 18t9 12.5q8 7 10.5 2.5t2.5 -13.5t-2 -18.5t-2 -11.5
q-4 -11 -6.5 -21.5t-4.5 -21.5q-11 -51 -19 -101.5t-13 -102.5q-3 -27 -4 -55t1 -55q1 -19 4.5 -38t15.5 -33q12 -12 28.5 -16.5t35 -4.5t37 2.5t32.5 5.5q45 7 90.5 22t83.5 41q23 17 28 38t0 50q-6 50 -18.5 97t-20.5 96q-5 32 -7.5 65.5t0.5 65.5q2 11 2.5 25.5
t11.5 20.5q7 4 10 0t3.5 -11t-1 -14t-1.5 -10q-9 -32 -8 -65t6.5 -67t13.5 -67t15 -63zM223 805q-1 3 -4 10.5t-4.5 16t0.5 14t11 3.5q5 -2 7.5 -7t4 -11t2.5 -12.5t3 -10.5q5 -11 10.5 -23t12.5 -20q1 -1 5.5 -6t7.5 -10.5t3 -10t-8 -4.5q-16 -2 -23 11.5t-12 24.5
q-9 23 -12 28t-4 7zM120 849l32 -40q10 -11 22.5 -20.5t18.5 -18.5t2.5 -16t-14.5 -5q-12 3 -17.5 11.5t-11.5 17.5q-8 11 -16 23t-13 26z" />
    <glyph glyph-name="Yacute" unicode="&#xdd;" horiz-adv-x="406" 
d="M354 510q4 -89 5.5 -176t-1.5 -175q-2 -40 -4.5 -80.5t-13.5 -80.5q-3 -11 -8.5 -24.5t-19.5 -14.5q-13 -1 -27.5 6t-28.5 17t-26.5 21t-21.5 19q-32 28 -62.5 59t-59.5 63q-11 13 -22.5 28.5t-22 32t-18 34t-8.5 35.5q-1 17 7.5 30.5t22 24t29 18t29.5 13.5
q45 20 93 30.5t98 15.5q-33 -11 -67 -21t-66 -21q-17 -6 -41.5 -15t-45.5 -22t-32 -31.5t-2 -42.5q19 -48 55 -88t71 -75q20 -18 39 -35t41 -34q4 -3 12.5 -10t17.5 -14t18 -11.5t15 -3.5q9 13 13 29.5t6 34.5t2.5 35.5t1.5 31.5q3 47 4 93t0 93q0 176 -12 350
q-29 -62 -69 -117t-92 -99q-3 -4 -13 -13.5t-21 -17.5t-21.5 -12t-14.5 4q-6 3 -6 9t3 13t7 13.5t6 10.5q8 15 13.5 31.5t10.5 32.5q10 34 17.5 67.5t12.5 67.5q1 13 2.5 25t1.5 23q0 6 -1 13.5l-2 15t-0.5 14.5t4.5 12t7.5 5t6.5 -3.5t4.5 -8t1.5 -8.5q2 -14 0 -28.5
t-4 -28.5q-8 -107 -46 -210l-12 -35q34 17 62 48t52 60q37 47 62 101q6 14 10 27t9 27q3 20 16 16q7 1 10 -5.5t4 -15.5t0.5 -18.5t0.5 -14.5zM261 744q-9 -3 -15 -1t-8 6.5t1 10.5t11 10q12 5 24 9t25 10l52 24l135 65q-12 -11 -25 -21t-27 -20q-32 -20 -65 -38t-66 -33
q-11 -5 -21 -11t-21 -11z" />
    <glyph glyph-name="Thorn" unicode="&#xde;" horiz-adv-x="556" 
d="M568 531q-2 -19 -12.5 -35t-25.5 -30.5t-32 -26.5t-31 -22q-43 -31 -87.5 -57.5t-91.5 -49.5q0 -38 0.5 -77.5t5.5 -79.5q2 -7 3 -13t4 -14q2 -7 4.5 -14t-0.5 -15t-8.5 -6t-10.5 7q-6 8 -7 19l-2 22q-6 36 -6 71q-2 21 -2 44.5v47.5q-23 -11 -46 -21t-48 -21
q-27 -11 -55 -19.5t-57 -16.5q-10 -2 -19 -5.5t-20 -0.5q-9 3 -9 7t4.5 7.5t11 6.5t9.5 4q30 2 59.5 9.5t58.5 18.5t56.5 24.5t54.5 26.5q0 73 2.5 145t6.5 145q-36 -1 -72 -4.5t-71 -13.5q-17 -5 -32.5 -13.5t-30.5 -12.5q-8 -2 -12 1t-4 7.5t3 9.5t8 8q8 3 14.5 5t14.5 4
q29 8 57 14t58 9q17 2 33.5 3t33.5 2l8 125q2 25 1.5 50t1.5 51q0 6 5 14.5t14 2.5q8 -6 6 -19t-4 -21q-9 -50 -9.5 -101.5t-3.5 -101.5q46 0 90.5 -4.5t89.5 -18.5q13 -4 29 -10t29.5 -15.5t23 -22t9.5 -29.5zM549 525q0 2 1 4.5t-1 4.5q-2 15 -14 26t-28.5 18.5t-33.5 12
t-29 7.5q-36 8 -73 11t-75 3q-3 -70 -5.5 -140t-2.5 -140q39 20 77 41.5t76 47.5q14 9 30.5 20t32 24t28 28t17.5 32z" />
    <glyph glyph-name="germandbls" unicode="&#xdf;" horiz-adv-x="265" 
d="M252 423q2 -5 0.5 -12t-5.5 -14t-8 -13.5t-7 -10.5q-12 -18 -26 -35t-31 -32h2l-24.5 -24.5t-28.5 -18.5q-5 -2 -12 -1t-5 9q0 9 9.5 14.5t15.5 9.5q16 9 32 23.5t30.5 31t25 34.5t14.5 35q-8 5 -18.5 4.5t-22 -3.5t-21.5 -7.5t-17 -7.5q-5 -2 -15 -9t-21.5 -13.5
t-21 -9.5t-13.5 3q-5 9 -5 14.5t5 16.5l9 16q8 20 17.5 40.5t19.5 40.5l42 96t30 99q7 32 -3 55.5t-45 22.5q-19 -1 -33 -12t-24.5 -27t-17.5 -34.5t-12 -34.5q-16 -56 -21.5 -114.5t-3.5 -117.5q1 -54 7.5 -108.5t23.5 -106.5q8 -25 19 -46q1 -2 3.5 -6.5t4 -9t1 -8.5
t-4.5 -7q-6 -4 -11.5 1t-8.5 10q-17 32 -25 69t-15 72q-11 65 -13 131t5 132q3 27 7.5 60.5t15 66t28 60t44.5 41.5q14 7 30.5 7.5t31 -4.5t25 -16.5t13.5 -27.5q6 -30 -2.5 -62t-19.5 -59q-10 -26 -21 -52l-22 -52q-14 -29 -27.5 -58t-22.5 -59l40 17q7 3 23 9t33.5 9
t31.5 0t16 -17z" />
    <glyph glyph-name="agrave" unicode="&#xe0;" 
d="M255 367q11 6 17 -2t-6 -21q-18 -18 -40.5 -34.5t-45.5 -27.5q-16 -7 -34 -12t-36.5 -6.5t-36.5 2t-34 12.5q-8 5 -18.5 16.5t-5.5 23.5q4 10 17 12.5t28.5 1.5t30 -4t21.5 -4q12 -2 26 -3.5t28.5 -1.5t28 3t24.5 10q14 9 16.5 25t-4.5 30q-12 23 -37 35.5t-48 18.5
q-15 4 -31.5 6.5t-33.5 0.5q-3 0 -10 -2t-14 -3.5t-13 -1t-8 6.5q-5 13 12.5 16.5t41.5 2t45.5 -5.5t23.5 -5q15 -5 31.5 -12.5t31 -18.5t24 -25.5t9.5 -32.5zM140 287q18 5 31 12l7 3q-19 -1 -38 0.5t-39 3.5q-15 2 -34 6t-35 -1v-1q2 0 2 -1q6 -13 19 -19t29 -7.5t31.5 0
t26.5 4.5zM19 722q-2 2 -3.5 4t-5.5 4q17 -8 30.5 -17.5t26.5 -20.5q29 -23 57 -48t55 -49q4 -3 13.5 -9t19 -13t15 -15t1.5 -14q-5 -8 -14 -5.5t-18 10t-16.5 16t-11.5 11.5q-29 24 -56.5 51t-53.5 54q-9 11 -19.5 20.5t-19.5 20.5z" />
    <glyph glyph-name="aacute" unicode="&#xe1;" 
d="M255 367q11 6 17 -2t-6 -21q-18 -18 -40.5 -34.5t-45.5 -27.5q-16 -7 -34 -12t-36.5 -6.5t-36.5 2t-34 12.5q-8 5 -18.5 16.5t-5.5 23.5q4 10 17 12.5t28.5 1.5t30 -4t21.5 -4q12 -2 26 -3.5t28.5 -1.5t28 3t24.5 10q14 9 16.5 25t-4.5 30q-12 23 -37 35.5t-48 18.5
q-15 4 -31.5 6.5t-33.5 0.5q-3 0 -10 -2t-14 -3.5t-13 -1t-8 6.5q-5 13 12.5 16.5t41.5 2t45.5 -5.5t23.5 -5q15 -5 31.5 -12.5t31 -18.5t24 -25.5t9.5 -32.5zM140 287q18 5 31 12l7 3q-19 -1 -38 0.5t-39 3.5q-15 2 -34 6t-35 -1v-1q2 0 2 -1q6 -13 19 -19t29 -7.5t31.5 0
t26.5 4.5zM101 538q-9 -3 -15 -1t-8 6.5t1 10.5t11 10q12 5 24 9t25 10l52 24l135 65q-12 -11 -25 -21t-27 -20q-32 -20 -65 -38t-66 -33q-11 -5 -21 -11t-21 -11z" />
    <glyph glyph-name="acircumflex" unicode="&#xe2;" 
d="M255 367q11 6 17 -2t-6 -21q-18 -18 -40.5 -34.5t-45.5 -27.5q-16 -7 -34 -12t-36.5 -6.5t-36.5 2t-34 12.5q-8 5 -18.5 16.5t-5.5 23.5q4 10 17 12.5t28.5 1.5t30 -4t21.5 -4q12 -2 26 -3.5t28.5 -1.5t28 3t24.5 10q14 9 16.5 25t-4.5 30q-12 23 -37 35.5t-48 18.5
q-15 4 -31.5 6.5t-33.5 0.5q-3 0 -10 -2t-14 -3.5t-13 -1t-8 6.5q-5 13 12.5 16.5t41.5 2t45.5 -5.5t23.5 -5q15 -5 31.5 -12.5t31 -18.5t24 -25.5t9.5 -32.5zM140 287q18 5 31 12l7 3q-19 -1 -38 0.5t-39 3.5q-15 2 -34 6t-35 -1v-1q2 0 2 -1q6 -13 19 -19t29 -7.5t31.5 0
t26.5 4.5zM84 513q-5 13 2.5 26t12.5 24q17 34 38 67q2 3 5.5 12t9 17t11.5 12.5t13 0.5q7 -2 8 -8.5t-0.5 -15t-3.5 -16.5t-1 -13q1 -12 4.5 -26.5t12.5 -24.5q5 -8 12.5 -17t7.5 -18q0 -7 -3 -9t-7.5 -1t-8.5 4t-6 6q-5 7 -8.5 15t-6.5 16q-13 28 -16 54q0 3 -1 5t-1 4
q-17 -18 -30 -44.5t-20 -52.5q0 -3 -1.5 -8t-4 -9.5t-6 -6.5t-9.5 1z" />
    <glyph glyph-name="atilde" unicode="&#xe3;" 
d="M255 367q11 6 17 -2t-6 -21q-18 -18 -40.5 -34.5t-45.5 -27.5q-16 -7 -34 -12t-36.5 -6.5t-36.5 2t-34 12.5q-8 5 -18.5 16.5t-5.5 23.5q4 10 17 12.5t28.5 1.5t30 -4t21.5 -4q12 -2 26 -3.5t28.5 -1.5t28 3t24.5 10q14 9 16.5 25t-4.5 30q-12 23 -37 35.5t-48 18.5
q-15 4 -31.5 6.5t-33.5 0.5q-3 0 -10 -2t-14 -3.5t-13 -1t-8 6.5q-5 13 12.5 16.5t41.5 2t45.5 -5.5t23.5 -5q15 -5 31.5 -12.5t31 -18.5t24 -25.5t9.5 -32.5zM140 287q18 5 31 12l7 3q-19 -1 -38 0.5t-39 3.5q-15 2 -34 6t-35 -1v-1q2 0 2 -1q6 -13 19 -19t29 -7.5t31.5 0
t26.5 4.5zM143 630q7 -12 16.5 -28t19.5 -26.5t20.5 -10.5t20.5 19q4 8 10.5 18t17.5 12q11 0 10.5 -8.5t-6 -18.5t-12.5 -19.5t-9 -10.5q-17 -16 -32 -14t-28.5 14.5t-25.5 31.5t-24 37q-20 31 -41 22t-26 -50q-2 -8 -2 -20.5t-9 -19.5q-10 -5 -12 4t0 22.5t5 26t4 15.5
q8 21 20 34t25.5 15t28 -8.5t29.5 -36.5z" />
    <glyph glyph-name="adieresis" unicode="&#xe4;" 
d="M255 367q11 6 17 -2t-6 -21q-18 -18 -40.5 -34.5t-45.5 -27.5q-16 -7 -34 -12t-36.5 -6.5t-36.5 2t-34 12.5q-8 5 -18.5 16.5t-5.5 23.5q4 10 17 12.5t28.5 1.5t30 -4t21.5 -4q12 -2 26 -3.5t28.5 -1.5t28 3t24.5 10q14 9 16.5 25t-4.5 30q-12 23 -37 35.5t-48 18.5
q-15 4 -31.5 6.5t-33.5 0.5q-3 0 -10 -2t-14 -3.5t-13 -1t-8 6.5q-5 13 12.5 16.5t41.5 2t45.5 -5.5t23.5 -5q15 -5 31.5 -12.5t31 -18.5t24 -25.5t9.5 -32.5zM140 287q18 5 31 12l7 3q-19 -1 -38 0.5t-39 3.5q-15 2 -34 6t-35 -1v-1q2 0 2 -1q6 -13 19 -19t29 -7.5t31.5 0
t26.5 4.5zM162 608q-1 3 -4 10.5t-4.5 16t0.5 14t11 3.5q5 -2 7.5 -7t4 -11t2.5 -12.5t3 -10.5q5 -11 10.5 -23t12.5 -20q1 -1 5.5 -6t7.5 -10.5t3 -10t-8 -4.5q-16 -2 -23 11.5t-12 24.5q-9 23 -12 28t-4 7zM59 652l32 -40q10 -11 22.5 -20.5t18.5 -18.5t2.5 -16t-14.5 -5
q-12 3 -17.5 11.5t-11.5 17.5q-8 11 -16 23t-13 26z" />
    <glyph glyph-name="aring" unicode="&#xe5;" 
d="M255 367q11 6 17 -2t-6 -21q-18 -18 -40.5 -34.5t-45.5 -27.5q-16 -7 -34 -12t-36.5 -6.5t-36.5 2t-34 12.5q-8 5 -18.5 16.5t-5.5 23.5q4 10 17 12.5t28.5 1.5t30 -4t21.5 -4q12 -2 26 -3.5t28.5 -1.5t28 3t24.5 10q14 9 16.5 25t-4.5 30q-12 23 -37 35.5t-48 18.5
q-15 4 -31.5 6.5t-33.5 0.5q-3 0 -10 -2t-14 -3.5t-13 -1t-8 6.5q-5 13 12.5 16.5t41.5 2t45.5 -5.5t23.5 -5q15 -5 31.5 -12.5t31 -18.5t24 -25.5t9.5 -32.5zM140 287q18 5 31 12l7 3q-19 -1 -38 0.5t-39 3.5q-15 2 -34 6t-35 -1v-1q2 0 2 -1q6 -13 19 -19t29 -7.5t31.5 0
t26.5 4.5zM-31 581q0 2 -1 3t-1 3q-5 18 3 32.5t22 25t31 18t31 10.5q51 14 108.5 12.5t108.5 -16.5q15 -5 27 -12.5t18 -17.5t4.5 -22t-14.5 -25q-18 -19 -42 -31.5t-50 -20.5t-53 -12t-52 -5q-23 -1 -49.5 0.5t-46.5 13.5q-14 8 -16 17.5t2.5 19t13.5 17t19 12.5
q32 15 66.5 19.5t69.5 2.5q-23 -3 -47 -8t-47 -13q-15 -5 -32 -12t-26 -21q-5 -7 -1.5 -12t11 -8t16 -5t12.5 -2q38 -5 78 0.5t75 18.5q12 3 26 8.5t26.5 12.5t23 16.5t16.5 21.5q2 0 1 2.5t-1 1.5q-3 10 -15 16t-27 9.5t-29.5 5t-22.5 1.5q-65 9 -126 -1
q-19 -3 -44.5 -10.5t-37.5 -25.5q-8 -11 -6 -20.5t0 -20.5q0 -6 -4.5 -8.5t-9.5 0.5q-6 2 -8 9z" />
    <glyph glyph-name="ae" unicode="&#xe6;" horiz-adv-x="482" 
d="M589 396q-50 -37 -111 -62q-20 -9 -52.5 -18.5t-66.5 -13t-64.5 3t-46.5 30.5q-11 -19 -32.5 -33t-35.5 -21q-16 -7 -34 -12t-36.5 -6.5t-36.5 2t-34 12.5q-8 5 -18.5 16.5t-5.5 23.5q4 10 17 12.5t28.5 1.5t30 -4t21.5 -4q12 -2 26 -3.5t28.5 -1.5t28 3t24.5 10
q14 9 16.5 25t-4.5 30q-12 23 -37 35.5t-48 18.5q-15 4 -31.5 6.5t-33.5 0.5q-3 0 -10 -2t-14 -3.5t-13 -1t-8 6.5q-5 13 12.5 16.5t41.5 2t45.5 -5.5t23.5 -5q20 -7 44 -19t38 -32q13 19 36.5 28t45.5 13q11 2 25 3.5t28.5 1t27.5 -4.5t21 -13q15 -17 4 -30t-31.5 -21.5
t-43 -13t-31.5 -4.5q-32 -2 -63 0q9 -23 31.5 -32t49.5 -9t54 6t44 11q39 10 75.5 25.5t74.5 30.5zM272 403q-10 -6 -14 -17q23 -2 47 -1.5t47 5.5q5 0 14 2t18 5.5t16 8.5t7 12q-3 4 -10 6t-15 3t-16.5 0.5t-12.5 -0.5q-20 -1 -42 -5.5t-39 -18.5zM140 287q18 5 31 12l7 3
q-19 -1 -38 0.5t-39 3.5q-15 2 -34 6t-35 -1v-1q2 0 2 -1q6 -13 19 -19t29 -7.5t31.5 0t26.5 4.5z" />
    <glyph glyph-name="ccedilla" unicode="&#xe7;" horiz-adv-x="360" 
d="M147 192q-6 3 -6 9.5t2.5 13.5t6.5 14t6 10q1 1 2 4q1 2 2 5t3 8q0 5 5 18q-27 2 -54.5 8t-49 17.5t-34.5 29t-10 43.5q2 25 21 43t39 29q38 20 80.5 30t85.5 9q23 -2 48 -5.5t46 -13.5l18 -11q-54 12 -110 11t-108 -18q-12 -4 -33 -13.5t-38.5 -23t-25.5 -30t6 -35.5
q11 -15 29 -24.5t38.5 -14.5t41.5 -7t38 -3q26 -2 52.5 -1.5t51.5 8.5q10 3 20.5 9t21.5 2q8 -4 6 -9t-8 -9.5t-13 -8t-10 -3.5q-20 -5 -40.5 -7t-40.5 -4q-8 -1 -18.5 -0.5t-22.5 0.5q-2 -7 -6.5 -13.5t-6.5 -11.5t-5.5 -10.5t-3.5 -11.5l32 16q7 3 17.5 5t19.5 0.5
t15.5 -6.5t6.5 -17q1 -18 -8 -35t-22.5 -33t-29.5 -29t-29 -23q-5 -3 -14 -10.5t-19.5 -13.5t-20.5 -8t-16 5q-5 6 2.5 12.5t18.5 12t22.5 10t14.5 7.5q29 20 52 46t32 59q-1 1 -2 3q-1 0 -1 2q0 1 -1 1q-6 3 -13.5 1t-12.5 -4t-15 -10t-20.5 -15t-20.5 -11t-14 2z" />
    </font>
</defs>
</svg>
